<svg width="187" height="16" viewBox="0 0 187 16" fill="none" xmlns="http://www.w3.org/2000/svg">
<path d="M2 12.6528C56.2166 3.96574 111.089 5.65281 165.833 5.65281C171.752 5.65281 189.491 5.53864 183.583 5.18058C175.702 4.70295 167.668 5.15281 159.778 5.15281C133.648 5.15281 107.518 5.10197 81.3889 5.15281C69.6563 5.17563 57.1155 4.1479 45.5556 6.62503C44.8506 6.7761 37.6947 7.87891 40.4722 6.84725C48.0934 4.01652 56.2948 3.50645 64.3333 3.04169C74.4004 2.45966 84.4727 2.19938 94.5556 2.15281C97.2222 2.14049 99.8889 2.13549 102.556 2.15281C103.094 2.1563 104.297 1.74168 104.167 2.26392C103.813 3.67711 84.812 3.80755 83.3611 3.90281C64.259 5.15698 44.4653 6.55383 25.9167 11.5417C25.081 11.7664 19.5272 13.4613 19.7222 13.3195C24.8848 9.56491 33.6196 9.90936 39.6111 9.43058C65.7088 7.34515 91.9842 8.15281 118.139 8.15281C130.861 8.15281 143.583 8.15281 156.306 8.15281C159.789 8.15281 163.24 7.70807 166.722 7.65281C169.739 7.60492 173.195 7.77489 176 6.65281" stroke="#8BA6CD" stroke-width="4" stroke-linecap="round" stroke-linejoin="round"/>
</svg>
