<svg width="51" height="50" viewBox="0 0 51 50" fill="none" xmlns="http://www.w3.org/2000/svg">
<path d="M6.87598 27.4286C6.87598 26.7845 7.1262 26.1668 7.5716 25.7113C8.017 25.2559 8.62109 25 9.25098 25H14.001C14.6309 25 15.235 25.2559 15.6804 25.7113C16.1258 26.1668 16.376 26.7845 16.376 27.4286V39.5714C16.376 40.2155 16.1258 40.8332 15.6804 41.2887C15.235 41.7441 14.6309 42 14.001 42H9.25098C8.62109 42 8.017 41.7441 7.5716 41.2887C7.1262 40.8332 6.87598 40.2155 6.87598 39.5714V27.4286ZM21.126 17.7143C21.126 17.0702 21.3762 16.4525 21.8216 15.997C22.267 15.5416 22.8711 15.2857 23.501 15.2857H28.251C28.8809 15.2857 29.485 15.5416 29.9304 15.997C30.3758 16.4525 30.626 17.0702 30.626 17.7143V39.5714C30.626 40.2155 30.3758 40.8332 29.9304 41.2887C29.485 41.7441 28.8809 42 28.251 42H23.501C22.8711 42 22.267 41.7441 21.8216 41.2887C21.3762 40.8332 21.126 40.2155 21.126 39.5714V17.7143ZM35.376 10.4286C35.376 9.78447 35.6262 9.16676 36.0716 8.71131C36.517 8.25587 37.1211 8 37.751 8H42.501C43.1309 8 43.735 8.25587 44.1804 8.71131C44.6258 9.16676 44.876 9.78447 44.876 10.4286V39.5714C44.876 40.2155 44.6258 40.8332 44.1804 41.2887C43.735 41.7441 43.1309 42 42.501 42H37.751C37.1211 42 36.517 41.7441 36.0716 41.2887C35.6262 40.8332 35.376 40.2155 35.376 39.5714V10.4286Z" fill="#F28556"/>
</svg>
