<svg width="50" height="50" viewBox="0 0 50 50" fill="none" xmlns="http://www.w3.org/2000/svg">
<path d="M22.5906 39.5272C23.2 39.6086 23.8297 39.6493 24.5 39.6493C25.15 39.6493 25.8 39.6086 26.4094 39.5069L29.6187 43.6371C29.7652 43.8151 29.9687 43.9367 30.1947 43.9813C30.4206 44.0258 30.655 43.9904 30.8578 43.8813L37.6016 39.9748C37.8056 39.8598 37.9624 39.6762 38.0441 39.4565C38.1259 39.2367 38.1275 38.9951 38.0484 38.7744L36.0984 33.9116C36.8703 32.8943 37.5203 31.816 38.0078 30.6156L43.1672 29.8831C43.3997 29.8471 43.6116 29.7287 43.7644 29.5495C43.9172 29.3703 44.0008 29.1421 44 28.9065L44 21.0935C44 20.6052 43.6547 20.2186 43.1672 20.1373L38.0078 19.4048C37.5203 18.2044 36.85 17.1057 36.0984 16.1087L38.0484 11.246C38.2109 10.7983 38.0484 10.2897 37.6016 10.0455L30.8578 6.1594C30.4312 5.91524 29.9031 5.99663 29.6187 6.40355L26.4094 10.5338C25.8 10.4321 25.1297 10.3507 24.5 10.3507C23.8703 10.3507 23.2 10.3914 22.5906 10.4931L19.3812 6.36286C19.2348 6.18488 19.0313 6.06327 18.8053 6.01875C18.5794 5.97423 18.345 6.00955 18.1422 6.1187L11.3984 10.0252C10.9516 10.2693 10.8094 10.778 10.9516 11.2256L12.9016 16.0884C12.1297 17.1057 11.4797 18.184 10.9922 19.3844L5.83281 20.1169C5.34531 20.2186 5 20.6052 5 21.0935L5 28.9065C5 29.3948 5.34531 29.8017 5.83281 29.8627L10.9922 30.5952C11.4797 31.7956 12.1297 32.8943 12.9016 33.8913L10.9516 38.754C10.7891 39.2017 10.9516 39.7103 11.3984 39.9545L18.1422 43.8609C18.5891 44.1051 19.0969 44.0034 19.3812 43.6168L22.5906 39.5272ZM17.1875 25C17.1875 20.9714 20.4781 17.6754 24.5 17.6754C28.5219 17.6754 31.8125 20.9714 31.8125 25C31.8125 29.0286 28.5219 32.3246 24.5 32.3246C20.4781 32.3246 17.1875 29.0285 17.1875 25Z" fill="#F3A5A5"/>
</svg>
