<svg width="51" height="51" viewBox="0 0 51 51" fill="none" xmlns="http://www.w3.org/2000/svg">
<path fill-rule="evenodd" clip-rule="evenodd" d="M43.858 15.5006C43.5205 14.9018 43.0371 14.4028 42.4551 14.0523C41.8731 13.7018 41.2122 13.5117 40.5371 13.5006H15.5324L14.3994 8.98056C14.2849 8.54424 14.0295 8.16045 13.6748 7.89171C13.3201 7.62296 12.8869 7.4851 12.4459 7.50056L8.53894 7.50056C8.02084 7.50056 7.52396 7.71128 7.15761 8.08635C6.79126 8.46142 6.58545 8.97013 6.58545 9.50056C6.58545 10.031 6.79126 10.5397 7.15761 10.9148C7.52396 11.2898 8.02084 11.5006 8.53894 11.5006H10.9613L16.3529 32.0206C16.4674 32.4569 16.7228 32.8407 17.0775 33.1094C17.4322 33.3782 17.8654 33.516 18.3064 33.5006H35.8878C36.2485 33.4994 36.6019 33.3961 36.9088 33.2019C37.2157 33.0078 37.464 32.7304 37.6264 32.4006L44.0338 19.2806C44.3115 18.6846 44.4408 18.0275 44.4102 17.3679C44.3795 16.7084 44.1898 16.0668 43.858 15.5006ZM17.3296 43.5006C18.948 43.5006 20.2599 42.1575 20.2599 40.5006C20.2599 38.8438 18.948 37.5006 17.3296 37.5006C15.7113 37.5006 14.3994 38.8438 14.3994 40.5006C14.3994 42.1575 15.7113 43.5006 17.3296 43.5006ZM39.7948 40.5006C39.7948 42.1575 38.4829 43.5006 36.8646 43.5006C35.2462 43.5006 33.9343 42.1575 33.9343 40.5006C33.9343 38.8438 35.2462 37.5006 36.8646 37.5006C38.4829 37.5006 39.7948 38.8438 39.7948 40.5006Z" fill="#8BA6CD"/>
</svg>
