<svg width="51" height="50" viewBox="0 0 51 50" fill="none" xmlns="http://www.w3.org/2000/svg">
<path d="M39.6545 41.5484H37.3116V11.5161C37.3116 10.8391 36.7797 10.2903 36.1235 10.2903H27.2126V7.22581C27.2126 6.54878 26.6807 6 26.0245 6H17.7819C17.1257 6 16.5938 6.54878 16.5938 7.22581V10.2903H15.6284C14.9722 10.2903 14.4403 10.8391 14.4403 11.5161V41.5484H12.0974C11.4575 41.5484 10.9071 42.056 10.8773 42.7155C10.8455 43.4195 11.3888 44 12.0641 44H20.5294C20.8575 44 21.1235 43.7256 21.1235 43.3871V36.3387H20.6373C19.9975 36.3387 19.4471 35.8315 19.4169 35.1722C19.3848 34.4683 19.9285 33.8871 20.6037 33.8871C20.9624 33.8871 31.4115 33.8871 31.1147 33.8871C31.7544 33.8871 32.3049 34.3944 32.335 35.0536C32.3672 35.7575 31.8236 36.3387 31.1483 36.3387H30.6285V43.3871C30.6285 43.7256 30.8944 44 31.2225 44H39.6879C40.3632 44 40.9064 43.4195 40.8747 42.7155C40.8449 42.056 40.2945 41.5484 39.6545 41.5484ZM22.9799 31.3589H21.6433C20.9872 31.3589 20.4552 30.81 20.4552 30.1331C20.4552 29.4561 20.9872 28.9073 21.6433 28.9073H22.9799C23.6361 28.9073 24.1681 29.4561 24.1681 30.1331C24.1681 30.81 23.6361 31.3589 22.9799 31.3589ZM22.9799 26.7621H21.6433C20.9872 26.7621 20.4552 26.2132 20.4552 25.5363C20.4552 24.8593 20.9872 24.3105 21.6433 24.3105H22.9799C23.6361 24.3105 24.1681 24.8593 24.1681 25.5363C24.1681 26.2132 23.6361 26.7621 22.9799 26.7621ZM22.9799 22.1653H21.6433C20.9872 22.1653 20.4552 21.6165 20.4552 20.9395C20.4552 20.2626 20.9872 19.7137 21.6433 19.7137H22.9799C23.6361 19.7137 24.1681 20.2626 24.1681 20.9395C24.1681 21.6165 23.6361 22.1653 22.9799 22.1653ZM22.9799 17.5685H21.6433C20.9872 17.5685 20.4552 17.0197 20.4552 16.3427C20.4552 15.6658 20.9872 15.1169 21.6433 15.1169H22.9799C23.6361 15.1169 24.1681 15.6658 24.1681 16.3427C24.1681 17.0197 23.6361 17.5685 22.9799 17.5685ZM30.0344 31.3589H28.6978C28.0415 31.3589 27.5096 30.81 27.5096 30.1331C27.5096 29.4561 28.0415 28.9073 28.6978 28.9073H30.0344C30.6906 28.9073 31.2225 29.4561 31.2225 30.1331C31.2225 30.81 30.6906 31.3589 30.0344 31.3589ZM30.0344 26.7621H28.6978C28.0415 26.7621 27.5096 26.2132 27.5096 25.5363C27.5096 24.8593 28.0415 24.3105 28.6978 24.3105H30.0344C30.6906 24.3105 31.2225 24.8593 31.2225 25.5363C31.2225 26.2132 30.6906 26.7621 30.0344 26.7621ZM30.0344 22.1653H28.6978C28.0415 22.1653 27.5096 21.6165 27.5096 20.9395C27.5096 20.2626 28.0415 19.7137 28.6978 19.7137H30.0344C30.6906 19.7137 31.2225 20.2626 31.2225 20.9395C31.2225 21.6165 30.6906 22.1653 30.0344 22.1653ZM30.0344 17.5685H28.6978C28.0415 17.5685 27.5096 17.0197 27.5096 16.3427C27.5096 15.6658 28.0415 15.1169 28.6978 15.1169H30.0344C30.6906 15.1169 31.2225 15.6658 31.2225 16.3427C31.2225 17.0197 30.6906 17.5685 30.0344 17.5685ZM23.4997 43.3871V36.9516C23.4997 36.6131 23.7657 36.3387 24.0938 36.3387H27.6582C27.9862 36.3387 28.2522 36.6131 28.2522 36.9516V43.3871C28.2522 43.7256 27.9862 44 27.6582 44H24.0938C23.7657 44 23.4997 43.7256 23.4997 43.3871Z" fill="#F1C060"/>
</svg>
