<svg width="50" height="50" viewBox="0 0 50 50" fill="none" xmlns="http://www.w3.org/2000/svg">
<path d="M42.2286 12.0044L37.3172 7.09757C36.9708 6.74959 36.559 6.4735 36.1055 6.28514C35.6521 6.09678 35.1658 5.99988 34.6748 6C33.6741 6 32.7333 6.39199 32.0278 7.09757L26.7429 12.3825C26.3949 12.729 26.1188 13.1408 25.9305 13.5943C25.7421 14.0477 25.6452 14.534 25.6453 15.025C25.6453 16.0257 26.0373 16.9665 26.7429 17.6721L30.6074 21.5367C29.7028 23.5305 28.4451 25.3444 26.8951 26.8908C25.3489 28.4446 23.5352 29.7069 21.541 30.617L17.6765 26.7524C17.3301 26.4044 16.9183 26.1284 16.4648 25.94C16.0113 25.7516 15.5251 25.6547 15.0341 25.6549C14.0334 25.6549 13.0926 26.0468 12.387 26.7524L7.09756 32.0328C6.74916 32.3799 6.47283 32.7924 6.28447 33.2467C6.0961 33.701 5.99943 34.1881 6 34.6799C6 35.6806 6.39199 36.6214 7.09756 37.3269L11.9997 42.2291C13.1249 43.359 14.679 44 16.2746 44C16.6113 44 16.9341 43.9723 17.2523 43.917C23.4687 42.8932 29.6344 39.5867 34.6103 34.6153C39.5815 29.6485 42.8834 23.4874 43.921 17.2524C44.2346 15.3478 43.6028 13.3879 42.2286 12.0044Z" fill="#F28556"/>
</svg>
