<svg width="51" height="50" viewBox="0 0 51 50" fill="none" xmlns="http://www.w3.org/2000/svg">
<path d="M6.87598 8.71429C6.87598 7.99441 7.16195 7.30402 7.67097 6.795C8.18 6.28597 8.87039 6 9.59026 6H42.1617C42.8816 6 43.572 6.28597 44.081 6.795C44.59 7.30402 44.876 7.99441 44.876 8.71429V14.1429C44.876 14.8627 44.59 15.5531 44.081 16.0621C43.572 16.5712 42.8816 16.8571 42.1617 16.8571H9.59026C8.87039 16.8571 8.18 16.5712 7.67097 16.0621C7.16195 15.5531 6.87598 14.8627 6.87598 14.1429V8.71429ZM6.87598 25C6.87598 24.2801 7.16195 23.5897 7.67097 23.0807C8.18 22.5717 8.87039 22.2857 9.59026 22.2857H25.876C26.5958 22.2857 27.2862 22.5717 27.7953 23.0807C28.3043 23.5897 28.5903 24.2801 28.5903 25V41.2857C28.5903 42.0056 28.3043 42.696 27.7953 43.205C27.2862 43.714 26.5958 44 25.876 44H9.59026C8.87039 44 8.18 43.714 7.67097 43.205C7.16195 42.696 6.87598 42.0056 6.87598 41.2857V25ZM36.7331 22.2857C36.0132 22.2857 35.3229 22.5717 34.8138 23.0807C34.3048 23.5897 34.0188 24.2801 34.0188 25V41.2857C34.0188 42.0056 34.3048 42.696 34.8138 43.205C35.3229 43.714 36.0132 44 36.7331 44H42.1617C42.8816 44 43.572 43.714 44.081 43.205C44.59 42.696 44.876 42.0056 44.876 41.2857V25C44.876 24.2801 44.59 23.5897 44.081 23.0807C43.572 22.5717 42.8816 22.2857 42.1617 22.2857H36.7331Z" fill="#F1C060"/>
</svg>
