<svg width="50" height="50" viewBox="0 0 50 50" fill="none" xmlns="http://www.w3.org/2000/svg">
<path d="M43.4892 33.9489C48.1037 25.0292 41.5777 14.4723 31.6413 14.4723C24.2895 14.4723 18.3013 20.4179 18.3013 27.8123C18.3013 37.8909 28.9666 44.1772 37.7344 39.6828L42.9778 40.6772C43.797 40.8328 44.5236 40.1236 44.3856 39.2994L43.4892 33.9489ZM32.8822 33.6709V34.2908C32.8822 34.9538 32.3447 35.4913 31.6817 35.4913C31.0188 35.4913 30.4812 34.9538 30.4812 34.2908V33.7105C29.6656 33.4395 28.9539 32.8846 28.5005 32.1323C28.1582 31.5645 28.3411 30.8267 28.9089 30.4844C29.4767 30.1421 30.2146 30.3251 30.5569 30.8929C31.2047 31.9678 32.8626 31.5072 32.8626 30.2539C32.8626 29.5695 32.3058 29.0127 31.6214 29.0127C29.7077 29.0127 28.0185 27.4177 28.0185 25.3706C28.0185 23.8053 29.0112 22.4677 30.4 21.9535V21.3337C30.4 20.6707 30.9375 20.1332 31.6005 20.1332C32.2635 20.1332 32.801 20.6707 32.801 21.3337V21.914C33.6166 22.185 34.3283 22.7399 34.7818 23.4921C35.124 24.0599 34.9412 24.7977 34.3734 25.14C33.8056 25.4823 33.0677 25.2994 32.7254 24.7316C32.0775 23.6567 30.4196 24.1173 30.4196 25.3705C30.4196 25.9875 30.8737 26.5864 31.7007 26.6137C33.6725 26.6562 35.2637 28.2721 35.2637 30.2539C35.2637 31.8192 34.271 33.1568 32.8822 33.6709Z" fill="#F1C060"/>
<path d="M30.0176 12.1541C24.8014 6.66104 16.1511 6.65549 10.9057 11.901C6.64656 16.16 5.9174 22.4966 8.49054 27.4703L7.59421 32.8209C7.4563 33.6442 8.18208 34.3545 9.00195 34.1987L14.2454 33.2043C15.2128 33.7003 16.2413 34.0732 17.3001 34.3196C12.9188 24.6757 19.2266 13.2527 30.0176 12.1541Z" fill="#F1C060"/>
</svg>
