<svg width="34" height="8" viewBox="0 0 34 8" fill="none" xmlns="http://www.w3.org/2000/svg">
<path fill-rule="evenodd" clip-rule="evenodd" d="M32.9449 5.99692C14.9734 4.00016 8.0294 4.5041 0.59815 5.99027C0.327369 6.04443 0.0639584 5.86882 0.0098051 5.59804C-0.0443482 5.32726 0.131263 5.06384 0.402043 5.00969C7.97079 3.49602 15.0268 2.99995 33.0553 5.00304C33.3298 5.03353 33.5275 5.28074 33.497 5.5552C33.4665 5.82965 33.2193 6.02742 32.9449 5.99692Z" fill="black"/>
<path fill-rule="evenodd" clip-rule="evenodd" d="M27.6285 0.665522C27.8132 0.460267 28.1293 0.443628 28.3346 0.628357L33.3346 5.12836C33.472 5.25201 33.53 5.44138 33.4853 5.62076C33.4407 5.80013 33.3007 5.94024 33.1214 5.98508L27.1214 7.48508C26.8535 7.55205 26.582 7.38917 26.515 7.12127C26.4481 6.85337 26.611 6.58191 26.8789 6.51493L31.967 5.24289L27.6656 1.37165C27.4604 1.18692 27.4437 0.870777 27.6285 0.665522Z" fill="black"/>
</svg>
