<svg width="51" height="50" viewBox="0 0 51 50" fill="none" xmlns="http://www.w3.org/2000/svg">
<path fill-rule="evenodd" clip-rule="evenodd" d="M8.87598 8.37503C8.87598 7.74513 9.12432 7.14104 9.56637 6.69563C10.0084 6.25023 10.608 6 11.2331 6H39.5188C40.144 6 40.7435 6.25023 41.1856 6.69563C41.6276 7.14104 41.876 7.74513 41.876 8.37503V15.5001C41.8758 16.13 41.6274 16.734 41.1853 17.1793L30.0903 28.3585V36.8754C30.0901 37.5053 29.8417 38.1093 29.3996 38.5546L24.6853 43.3046C24.3557 43.6367 23.9357 43.8628 23.4786 43.9544C23.0214 44.046 22.5475 43.999 22.1169 43.8192C21.6862 43.6395 21.3181 43.3352 21.0591 42.9447C20.8001 42.5542 20.6618 42.0951 20.6617 41.6255V28.3585L9.56662 17.1793C9.12454 16.734 8.87611 16.13 8.87598 15.5001V8.37503Z" fill="#F3A5A5"/>
</svg>
