<svg width="50" height="51" viewBox="0 0 50 51" fill="none" xmlns="http://www.w3.org/2000/svg">
<path d="M31.929 12.184C28.9462 12.184 26.3975 14.3675 24.9972 15.8729C23.5969 14.3675 21.0538 12.184 18.0725 12.184C12.9338 12.184 9.34619 15.8627 9.34619 21.1286C9.34619 26.9309 13.8018 30.6812 18.1123 34.3087C20.1473 36.0231 22.2535 37.7945 23.8687 39.7588C24.1405 40.0877 24.539 40.2777 24.9573 40.2777H25.0399C25.4597 40.2777 25.8567 40.0862 26.1271 39.7588C27.7452 37.7945 29.8499 36.0217 31.8863 34.3087C36.1954 30.6827 40.6539 26.9323 40.6539 21.1286C40.6539 15.8627 37.0663 12.184 31.929 12.184Z" fill="#F1C060"/>
</svg>
