<svg width="104" height="29" viewBox="0 0 104 29" fill="none" xmlns="http://www.w3.org/2000/svg">
<g clip-path="url(#clip0)">
<path d="M36.3685 9.9905C34.1705 4.15183 28.57 0 22.0096 0C15.4492 0 9.84866 4.147 7.65067 9.98567C3.53783 11.0732 0.5 14.8432 0.5 19.3333C0.5 24.6742 4.7952 29 10.0934 29H33.9066C39.2048 29 43.5 24.6742 43.5 19.3333C43.5 14.8528 40.4718 11.0828 36.3685 9.9905Z" fill="#4856B7"/>
</g>
<path d="M62.08 21H56.82V7.66H62.08C64.1733 7.66 65.8733 8.27333 67.18 9.5C68.5 10.7267 69.16 12.34 69.16 14.34C69.16 16.34 68.5067 17.9533 67.2 19.18C65.8933 20.3933 64.1867 21 62.08 21ZM62.08 18.5C63.36 18.5 64.3733 18.1 65.12 17.3C65.88 16.5 66.26 15.5133 66.26 14.34C66.26 13.1133 65.8933 12.1133 65.16 11.34C64.4267 10.5533 63.4 10.16 62.08 10.16H59.66V18.5H62.08ZM73.6555 21H71.1155V11.34H73.6555V12.66C74.0155 12.2067 74.4755 11.8333 75.0355 11.54C75.5955 11.2467 76.1621 11.1 76.7355 11.1V13.58C76.5621 13.54 76.3288 13.52 76.0355 13.52C75.6088 13.52 75.1555 13.6267 74.6755 13.84C74.1955 14.0533 73.8555 14.3133 73.6555 14.62V21ZM79.5825 10.3C79.1692 10.3 78.8092 10.1533 78.5025 9.86C78.2092 9.55333 78.0625 9.19333 78.0625 8.78C78.0625 8.36667 78.2092 8.01333 78.5025 7.72C78.8092 7.42667 79.1692 7.28 79.5825 7.28C80.0092 7.28 80.3692 7.42667 80.6625 7.72C80.9558 8.01333 81.1025 8.36667 81.1025 8.78C81.1025 9.19333 80.9558 9.55333 80.6625 9.86C80.3692 10.1533 80.0092 10.3 79.5825 10.3ZM80.8625 21H78.3225V11.34H80.8625V21ZM88.6211 21H85.8811L82.0011 11.34H84.7211L87.2411 18.06L89.7611 11.34H92.5011L88.6211 21ZM98.175 21.24C96.6817 21.24 95.4483 20.7733 94.475 19.84C93.5017 18.9067 93.015 17.68 93.015 16.16C93.015 14.7333 93.4817 13.5333 94.415 12.56C95.3617 11.5867 96.5617 11.1 98.015 11.1C99.455 11.1 100.622 11.5933 101.515 12.58C102.408 13.5533 102.855 14.8333 102.855 16.42V16.98H95.675C95.755 17.62 96.0417 18.1533 96.535 18.58C97.0283 19.0067 97.6683 19.22 98.455 19.22C98.8817 19.22 99.3417 19.1333 99.835 18.96C100.342 18.7867 100.742 18.5533 101.035 18.26L102.155 19.9C101.182 20.7933 99.855 21.24 98.175 21.24ZM100.395 15.26C100.355 14.7133 100.135 14.22 99.735 13.78C99.3483 13.34 98.775 13.12 98.015 13.12C97.295 13.12 96.735 13.34 96.335 13.78C95.935 14.2067 95.7017 14.7 95.635 15.26H100.395Z" fill="#4856B7"/>
<path d="M21.8602 22C21.5669 22 21.3435 21.96 21.1902 21.88C21.0435 21.8 20.9202 21.6333 20.8202 21.38L20.6002 20.81C20.3402 21.03 20.0902 21.2233 19.8502 21.39C19.6102 21.5566 19.3602 21.7 19.1002 21.82C18.8469 21.9333 18.5735 22.0166 18.2802 22.07C17.9935 22.13 17.6735 22.16 17.3202 22.16C16.8469 22.16 16.4169 22.1 16.0302 21.98C15.6435 21.8533 15.3135 21.67 15.0402 21.43C14.7735 21.19 14.5669 20.8933 14.4202 20.54C14.2735 20.18 14.2002 19.7666 14.2002 19.3C14.2002 18.9333 14.2935 18.5566 14.4802 18.17C14.6669 17.7833 14.9902 17.4333 15.4502 17.12C15.9102 16.8 16.5302 16.5333 17.3102 16.32C18.0902 16.1066 19.0735 15.9866 20.2602 15.96V15.52C20.2602 14.9133 20.1335 14.4766 19.8802 14.21C19.6335 13.9366 19.2802 13.8 18.8202 13.8C18.4535 13.8 18.1535 13.84 17.9202 13.92C17.6869 14 17.4769 14.09 17.2902 14.19C17.1102 14.29 16.9335 14.38 16.7602 14.46C16.5869 14.54 16.3802 14.58 16.1402 14.58C15.9269 14.58 15.7435 14.53 15.5902 14.43C15.4435 14.3233 15.3269 14.1933 15.2402 14.04L14.6802 13.07C15.3069 12.5166 16.0002 12.1066 16.7602 11.84C17.5269 11.5666 18.3469 11.43 19.2202 11.43C19.8469 11.43 20.4102 11.5333 20.9102 11.74C21.4169 11.94 21.8435 12.2233 22.1902 12.59C22.5435 12.95 22.8135 13.38 23.0002 13.88C23.1869 14.38 23.2802 14.9266 23.2802 15.52V22H21.8602ZM18.3002 20.11C18.7002 20.11 19.0502 20.04 19.3502 19.9C19.6502 19.76 19.9535 19.5333 20.2602 19.22V17.78C19.6402 17.8066 19.1302 17.86 18.7302 17.94C18.3302 18.02 18.0135 18.12 17.7802 18.24C17.5469 18.36 17.3835 18.4966 17.2902 18.65C17.2035 18.8033 17.1602 18.97 17.1602 19.15C17.1602 19.5033 17.2569 19.7533 17.4502 19.9C17.6435 20.04 17.9269 20.11 18.3002 20.11Z" fill="white"/>
<path d="M28.6814 11.63V22H25.5814V11.63H28.6814ZM29.0414 8.78997C29.0414 9.03664 28.9914 9.26997 28.8914 9.48997C28.7914 9.7033 28.6548 9.8933 28.4814 10.06C28.3081 10.22 28.1048 10.35 27.8714 10.45C27.6448 10.5433 27.4014 10.59 27.1414 10.59C26.8881 10.59 26.6514 10.5433 26.4314 10.45C26.2114 10.35 26.0148 10.22 25.8414 10.06C25.6748 9.8933 25.5414 9.7033 25.4414 9.48997C25.3481 9.26997 25.3014 9.03664 25.3014 8.78997C25.3014 8.53664 25.3481 8.29997 25.4414 8.07997C25.5414 7.85997 25.6748 7.66664 25.8414 7.49997C26.0148 7.3333 26.2114 7.2033 26.4314 7.10997C26.6514 7.01664 26.8881 6.96997 27.1414 6.96997C27.4014 6.96997 27.6448 7.01664 27.8714 7.10997C28.1048 7.2033 28.3081 7.3333 28.4814 7.49997C28.6548 7.66664 28.7914 7.85997 28.8914 8.07997C28.9914 8.29997 29.0414 8.53664 29.0414 8.78997Z" fill="white"/>
<defs>
<clipPath id="clip0">
<rect width="43" height="29" fill="white" transform="translate(0.5)"/>
</clipPath>
</defs>
</svg>
