<svg width="19" height="18" viewBox="0 0 19 18" fill="none" xmlns="http://www.w3.org/2000/svg">
<path d="M15.5 3H3.5C2.675 3 2 3.675 2 4.5V13.5C2 14.325 2.675 15 3.5 15H15.5C16.325 15 17 14.325 17 13.5V4.5C17 3.675 16.325 3 15.5 3ZM15.2 6.1875L10.295 9.255C9.8075 9.5625 9.1925 9.5625 8.705 9.255L3.8 6.1875C3.7248 6.14528 3.65894 6.08825 3.60642 6.01984C3.55389 5.95143 3.5158 5.87308 3.49443 5.78953C3.47307 5.70597 3.46888 5.61895 3.48212 5.53373C3.49536 5.44851 3.52575 5.36686 3.57146 5.29373C3.61717 5.22059 3.67724 5.15749 3.74804 5.10825C3.81885 5.059 3.8989 5.02463 3.98337 5.00722C4.06784 4.98981 4.15496 4.98973 4.23947 5.00696C4.32397 5.0242 4.4041 5.0584 4.475 5.1075L9.5 8.25L14.525 5.1075C14.5959 5.0584 14.676 5.0242 14.7605 5.00696C14.845 4.98973 14.9322 4.98981 15.0166 5.00722C15.1011 5.02463 15.1812 5.059 15.252 5.10825C15.3228 5.15749 15.3828 5.22059 15.4285 5.29373C15.4742 5.36686 15.5046 5.44851 15.5179 5.53373C15.5311 5.61895 15.5269 5.70597 15.5056 5.78953C15.4842 5.87308 15.4461 5.95143 15.3936 6.01984C15.3411 6.08825 15.2752 6.14528 15.2 6.1875Z" fill="#4856B7"/>
</svg>
