<svg width="51" height="50" viewBox="0 0 51 50" fill="none" xmlns="http://www.w3.org/2000/svg">
<path d="M25.7972 21.3166C30.0201 21.3166 33.4555 17.8811 33.4555 13.6583C33.4555 9.43543 30.0201 6 25.7972 6C21.5743 6 18.1389 9.43543 18.1389 13.6583C18.1389 17.8811 21.5743 21.3166 25.7972 21.3166Z" fill="#F28556"/>
<path d="M36.0735 25.028C36.0702 25.0269 36.064 25.0246 36.0607 25.0238C35.0636 24.7802 32.0101 24.3531 32.0101 24.3531C31.6654 24.247 31.297 24.4295 31.173 24.7696L26.5768 37.3804C26.3117 38.1079 25.2828 38.1079 25.0177 37.3804L20.4215 24.7696C20.3214 24.495 20.0622 24.3228 19.7844 24.3228C19.7185 24.3228 16.5789 24.763 15.5337 25.0229C12.6775 25.7331 10.876 28.5417 10.876 31.4687V41.9617C10.876 43.5342 12.1508 44.809 13.7233 44.809H37.8687C39.4411 44.809 40.7159 43.5342 40.7159 41.9617V31.4338C40.7158 28.5195 38.8437 25.9331 36.0735 25.028Z" fill="#F28556"/>
<path d="M27.5305 24.1125C27.3471 23.9126 27.079 23.8121 26.8077 23.8121H24.7843C24.513 23.8121 24.2447 23.9128 24.0614 24.1125C23.7775 24.422 23.7362 24.869 23.9378 25.2183L25.0195 26.8489L24.5131 31.1205L25.5103 33.7731C25.6075 34.0399 25.9847 34.0399 26.0819 33.7731L27.0791 31.1205L26.5727 26.8489L27.6544 25.2183C27.8558 24.869 27.8145 24.422 27.5305 24.1125Z" fill="#F28556"/>
</svg>
