<svg width="51" height="50" viewBox="0 0 51 50" fill="none" xmlns="http://www.w3.org/2000/svg">
<path fill-rule="evenodd" clip-rule="evenodd" d="M12.3045 6C10.8648 6 9.48402 6.57194 8.46597 7.58999C7.44791 8.60805 6.87598 9.98882 6.87598 11.4286V38.5714C6.87598 40.0112 7.44791 41.392 8.46597 42.41C9.48402 43.4281 10.8648 44 12.3045 44H39.4474C40.8871 44 42.2679 43.4281 43.286 42.41C44.304 41.392 44.876 40.0112 44.876 38.5714V11.4286C44.876 9.98882 44.304 8.60805 43.286 7.58999C42.2679 6.57194 40.8871 6 39.4474 6H12.3045ZM36.7331 16.8571C36.7331 16.1373 36.4471 15.4469 35.9381 14.9379C35.4291 14.4288 34.7387 14.1429 34.0188 14.1429C33.299 14.1429 32.6086 14.4288 32.0995 14.9379C31.5905 15.4469 31.3045 16.1373 31.3045 16.8571V33.1429C31.3045 33.8627 31.5905 34.5531 32.0995 35.0621C32.6086 35.5712 33.299 35.8571 34.0188 35.8571C34.7387 35.8571 35.4291 35.5712 35.9381 35.0621C36.4471 34.5531 36.7331 33.8627 36.7331 33.1429V16.8571ZM28.5903 22.2857C28.5903 21.5658 28.3043 20.8755 27.7953 20.3664C27.2862 19.8574 26.5958 19.5714 25.876 19.5714C25.1561 19.5714 24.4657 19.8574 23.9567 20.3664C23.4477 20.8755 23.1617 21.5658 23.1617 22.2857V33.1429C23.1617 33.8627 23.4477 34.5531 23.9567 35.0621C24.4657 35.5712 25.1561 35.8571 25.876 35.8571C26.5958 35.8571 27.2862 35.5712 27.7953 35.0621C28.3043 34.5531 28.5903 33.8627 28.5903 33.1429V22.2857ZM20.4474 30.4286C20.4474 29.7087 20.1614 29.0183 19.6524 28.5093C19.1434 28.0003 18.453 27.7143 17.7331 27.7143C17.0132 27.7143 16.3229 28.0003 15.8138 28.5093C15.3048 29.0183 15.0188 29.7087 15.0188 30.4286V33.1429C15.0188 33.8627 15.3048 34.5531 15.8138 35.0621C16.3229 35.5712 17.0132 35.8571 17.7331 35.8571C18.453 35.8571 19.1434 35.5712 19.6524 35.0621C20.1614 34.5531 20.4474 33.8627 20.4474 33.1429V30.4286Z" fill="#988DD8"/>
</svg>
