<svg width="51" height="50" viewBox="0 0 51 50" fill="none" xmlns="http://www.w3.org/2000/svg">
<path d="M32.9397 26.1133H30.7601C30.8414 25.7551 30.8858 25.3828 30.8858 25C30.8858 24.6172 30.8414 24.2449 30.7601 23.8867H32.9397C32.8826 24.2496 32.8525 24.6213 32.8525 25C32.8525 25.3787 32.8825 25.7504 32.9397 26.1133Z" fill="#988DD8"/>
<path d="M23.2097 29.2406L21.5414 30.9089C21.08 30.3247 20.5512 29.796 19.967 29.3345L21.6353 27.6662C22.0357 28.3016 22.5744 28.8403 23.2097 29.2406Z" fill="#988DD8"/>
<path d="M21.6353 22.3339L19.967 20.6655C20.5512 20.2041 21.08 19.6753 21.5414 19.0911L23.2097 20.7595C22.5744 21.1597 22.0357 21.6985 21.6353 22.3339Z" fill="#988DD8"/>
<path d="M39.9775 20.1016C42.6829 20.1016 44.876 22.2947 44.876 25C44.876 27.7053 42.6829 29.8984 39.9775 29.8984C37.2722 29.8984 35.0791 27.7053 35.0791 25C35.0791 22.2947 37.2722 20.1016 39.9775 20.1016Z" fill="#988DD8"/>
<path d="M14.1123 29.5273C18.1088 29.5273 21.3486 32.7672 21.3486 36.7637C21.3486 40.7602 18.1088 44 14.1123 44C10.1158 44 6.87598 40.7602 6.87598 36.7637C6.87598 32.7672 10.1158 29.5273 14.1123 29.5273Z" fill="#988DD8"/>
<path d="M14.1123 6C18.1088 6 21.3486 9.23981 21.3486 13.2363C21.3486 17.2328 18.1088 20.4727 14.1123 20.4727C10.1158 20.4727 6.87598 17.2328 6.87598 13.2363C6.87598 9.23981 10.1158 6 14.1123 6Z" fill="#988DD8"/>
<path d="M25.876 22.2168C27.4131 22.2168 28.6592 23.4629 28.6592 25C28.6592 26.5371 27.4131 27.7832 25.876 27.7832C24.3389 27.7832 23.0928 26.5371 23.0928 25C23.0928 23.4629 24.3389 22.2168 25.876 22.2168Z" fill="#988DD8"/>
</svg>
