<svg width="51" height="50" viewBox="0 0 51 50" fill="none" xmlns="http://www.w3.org/2000/svg">
<path d="M14.7173 19.8731C14.7173 18.2733 15.3528 16.7391 16.4839 15.608C17.6151 14.4768 19.1493 13.8413 20.749 13.8413H38.8443C40.444 13.8413 41.9782 14.4768 43.1094 15.608C44.2405 16.7391 44.876 18.2733 44.876 19.8731V37.9683C44.876 39.568 44.2405 41.1022 43.1094 42.2334C41.9782 43.3646 40.444 44 38.8443 44H20.749C19.1493 44 17.6151 43.3646 16.4839 42.2334C15.3528 41.1022 14.7173 39.568 14.7173 37.9683V19.8731Z" fill="#988DD8"/>
<path d="M12.9077 6C11.308 6 9.77381 6.63549 8.64263 7.76666C7.51146 8.89783 6.87598 10.432 6.87598 12.0317V30.127C6.87598 31.7267 7.51146 33.2609 8.64263 34.3921C9.77381 35.5232 11.308 36.1587 12.9077 36.1587V12.0317H37.0347C37.0347 10.432 36.3992 8.89783 35.268 7.76666C34.1369 6.63549 32.6027 6 31.003 6H12.9077Z" fill="#988DD8"/>
</svg>
