<svg width="148" height="147" viewBox="0 0 148 147" fill="none" xmlns="http://www.w3.org/2000/svg">
<path d="M70.8465 0.948177C72.7793 -0.245866 75.2207 -0.245865 77.1535 0.948178L84.5969 5.54661C85.8656 6.33041 87.3807 6.61364 88.8469 6.34109L97.4488 4.74204C99.6824 4.32682 101.959 5.20876 103.33 7.02037L108.61 13.9971C109.509 15.1863 110.82 15.9978 112.286 16.2733L120.884 17.8896C123.117 18.3093 124.921 19.954 125.545 22.1385L127.948 30.5514C128.357 31.9854 129.286 33.2154 130.554 34.0018L137.988 38.6151C139.918 39.813 141.006 41.9985 140.799 44.2609L140 52.9736C139.864 54.4587 140.286 55.9413 141.184 57.1322L146.449 64.1196C147.816 65.934 148.042 68.3649 147.031 70.3997L143.139 78.2356C142.476 79.5712 142.334 81.106 142.74 82.5408L145.126 90.9585C145.746 93.1442 145.078 95.4925 143.4 97.0247L136.94 102.925C135.839 103.931 135.152 105.311 135.013 106.796L134.197 115.507C133.985 117.769 132.514 119.717 130.396 120.54L122.241 123.709C120.851 124.249 119.712 125.287 119.046 126.622L115.138 134.45C114.123 136.482 112.048 137.768 109.776 137.77L101.026 137.779C99.5351 137.78 98.0978 138.337 96.9947 139.341L90.523 145.229C88.8426 146.757 86.4427 147.206 84.3234 146.387L76.1618 143.235C74.7707 142.698 73.2293 142.698 71.8382 143.235L63.6766 146.387C61.5573 147.206 59.1574 146.757 57.477 145.229L51.0053 139.341C49.9022 138.337 48.4649 137.78 46.9736 137.779L38.2243 137.77C35.9524 137.768 33.8767 136.482 32.862 134.45L28.9543 126.622C28.2882 125.287 27.1491 124.249 25.7591 123.709L17.6038 120.54C15.4862 119.717 14.0149 117.769 13.803 115.507L12.987 106.796C12.8479 105.311 12.1608 103.931 11.0597 102.925L4.59987 97.0247C2.92248 95.4924 2.25436 93.1442 2.87389 90.9585L5.25981 82.5408C5.66649 81.106 5.52426 79.5712 4.86087 78.2356L0.968839 70.3997C-0.0417771 68.3649 0.183488 65.934 1.55077 64.1196L6.81638 57.1323C7.7139 55.9413 8.13572 54.4587 7.99961 52.9736L7.20107 44.2609C6.99371 41.9985 8.08194 39.813 10.0123 38.6151L17.4465 34.0018C18.7136 33.2154 19.6425 31.9854 20.0521 30.5514L22.4549 22.1385C23.0788 19.954 24.883 18.3093 27.1158 17.8896L35.7144 16.2733C37.1801 15.9978 38.4906 15.1863 39.3905 13.9971L44.6701 7.02037C46.041 5.20876 48.3176 4.32682 50.5512 4.74204L59.1531 6.34109C60.6193 6.61364 62.1344 6.33041 63.4031 5.54661L70.8465 0.948177Z" fill="#F5DF68"/>
</svg>
