<svg width="55" height="54" viewBox="0 0 55 54" fill="none" xmlns="http://www.w3.org/2000/svg">
<path d="M21.5793 5.12219C23.6131 -0.37406 31.3869 -0.374065 33.4207 5.12219L36.7232 14.047C37.3626 15.775 38.725 17.1374 40.453 17.7768L49.3778 21.0793C54.8741 23.1131 54.8741 30.8869 49.3778 32.9207L40.453 36.2232C38.725 36.8626 37.3626 38.225 36.7232 39.953L33.4207 48.8778C31.3869 54.3741 23.6131 54.3741 21.5793 48.8778L18.2768 39.953C17.6374 38.225 16.275 36.8626 14.547 36.2232L5.62219 32.9207C0.12594 30.8869 0.125935 23.1131 5.62219 21.0793L14.547 17.7768C16.275 17.1374 17.6374 15.775 18.2768 14.047L21.5793 5.12219Z" fill="#F1C060"/>
</svg>
