<svg width="51" height="50" viewBox="0 0 51 50" fill="none" xmlns="http://www.w3.org/2000/svg">
<path fill-rule="evenodd" clip-rule="evenodd" d="M17.0099 9.45535C18.5377 9.33337 19.988 8.73246 21.1544 7.7382C22.4717 6.61621 24.1456 6 25.876 6C27.6064 6 29.2802 6.61621 30.5976 7.7382C31.7639 8.73246 33.2142 9.33337 34.742 9.45535C36.4673 9.59324 38.0871 10.3412 39.311 11.565C40.5348 12.7889 41.2827 14.4087 41.4206 16.134C41.5418 17.6611 42.1426 19.1123 43.1378 20.2784C44.2598 21.5958 44.876 23.2696 44.876 25C44.876 26.7304 44.2598 28.4042 43.1378 29.7216C42.1435 30.8879 41.5426 32.3383 41.4206 33.866C41.2827 35.5913 40.5348 37.2111 39.311 38.435C38.0871 39.6588 36.4673 40.4068 34.742 40.5446C33.2142 40.6666 31.7639 41.2675 30.5976 42.2618C29.2802 43.3838 27.6064 44 25.876 44C24.1456 44 22.4717 43.3838 21.1544 42.2618C19.988 41.2675 18.5377 40.6666 17.0099 40.5446C15.2846 40.4068 13.6649 39.6588 12.441 38.435C11.2171 37.2111 10.4692 35.5913 10.3313 33.866C10.2093 32.3383 9.60844 30.8879 8.61417 29.7216C7.49218 28.4042 6.87598 26.7304 6.87598 25C6.87598 23.2696 7.49218 21.5958 8.61417 20.2784C9.60844 19.1121 10.2093 17.6617 10.3313 16.134C10.4692 14.4087 11.2171 12.7889 12.441 11.565C13.6649 10.3412 15.2846 9.59324 17.0099 9.45535ZM34.6803 21.9291C35.1129 21.4811 35.3523 20.8812 35.3469 20.2585C35.3415 19.6357 35.0917 19.04 34.6513 18.5997C34.211 18.1593 33.6153 17.9096 32.9926 17.9041C32.3698 17.8987 31.7699 18.1381 31.3219 18.5708L23.5009 26.3918L20.43 23.3208C19.9821 22.8882 19.3821 22.6488 18.7594 22.6542C18.1367 22.6596 17.541 22.9094 17.1006 23.3498C16.6603 23.7901 16.4105 24.3858 16.4051 25.0085C16.3997 25.6313 16.6391 26.2312 17.0717 26.6792L21.8218 31.4292C22.2672 31.8745 22.8712 32.1246 23.5009 32.1246C24.1307 32.1246 24.7347 31.8745 25.1801 31.4292L34.6803 21.9291Z" fill="#F3A5A5"/>
</svg>
