<svg width="50" height="50" viewBox="0 0 50 50" fill="none" xmlns="http://www.w3.org/2000/svg">
<path d="M22.5 7C21.837 7 21.2011 7.26339 20.7322 7.73223C20.2634 8.20107 20 8.83696 20 9.5C20 10.163 20.2634 10.7989 20.7322 11.2678C21.2011 11.7366 21.837 12 22.5 12H27.5C28.163 12 28.7989 11.7366 29.2678 11.2678C29.7366 10.7989 30 10.163 30 9.5C30 8.83696 29.7366 8.20107 29.2678 7.73223C28.7989 7.26339 28.163 7 27.5 7H22.5Z" fill="#988DD8"/>
<path fill-rule="evenodd" clip-rule="evenodd" d="M11 13.6667C11 12.429 11.4917 11.242 12.3668 10.3668C13.242 9.49167 14.429 9 15.6667 9C15.6667 10.8565 16.4042 12.637 17.7169 13.9497C19.0297 15.2625 20.8102 16 22.6667 16H27.3333C29.1898 16 30.9703 15.2625 32.2831 13.9497C33.5958 12.637 34.3333 10.8565 34.3333 9C35.571 9 36.758 9.49167 37.6332 10.3668C38.5083 11.242 39 12.429 39 13.6667V39.3333C39 40.571 38.5083 41.758 37.6332 42.6332C36.758 43.5083 35.571 44 34.3333 44H15.6667C14.429 44 13.242 43.5083 12.3668 42.6332C11.4917 41.758 11 40.571 11 39.3333V13.6667ZM18 23C17.3812 23 16.7877 23.2458 16.3501 23.6834C15.9125 24.121 15.6667 24.7145 15.6667 25.3333C15.6667 25.9522 15.9125 26.5457 16.3501 26.9832C16.7877 27.4208 17.3812 27.6667 18 27.6667H18.0233C18.6422 27.6667 19.2357 27.4208 19.6732 26.9832C20.1108 26.5457 20.3567 25.9522 20.3567 25.3333C20.3567 24.7145 20.1108 24.121 19.6732 23.6834C19.2357 23.2458 18.6422 23 18.0233 23H18ZM25 23C24.3812 23 23.7877 23.2458 23.3501 23.6834C22.9125 24.121 22.6667 24.7145 22.6667 25.3333C22.6667 25.9522 22.9125 26.5457 23.3501 26.9832C23.7877 27.4208 24.3812 27.6667 25 27.6667H32C32.6188 27.6667 33.2123 27.4208 33.6499 26.9832C34.0875 26.5457 34.3333 25.9522 34.3333 25.3333C34.3333 24.7145 34.0875 24.121 33.6499 23.6834C33.2123 23.2458 32.6188 23 32 23H25ZM18 32.3333C17.3812 32.3333 16.7877 32.5792 16.3501 33.0168C15.9125 33.4543 15.6667 34.0478 15.6667 34.6667C15.6667 35.2855 15.9125 35.879 16.3501 36.3166C16.7877 36.7542 17.3812 37 18 37H18.0233C18.6422 37 19.2357 36.7542 19.6732 36.3166C20.1108 35.879 20.3567 35.2855 20.3567 34.6667C20.3567 34.0478 20.1108 33.4543 19.6732 33.0168C19.2357 32.5792 18.6422 32.3333 18.0233 32.3333H18ZM25 32.3333C24.3812 32.3333 23.7877 32.5792 23.3501 33.0168C22.9125 33.4543 22.6667 34.0478 22.6667 34.6667C22.6667 35.2855 22.9125 35.879 23.3501 36.3166C23.7877 36.7542 24.3812 37 25 37H32C32.6188 37 33.2123 36.7542 33.6499 36.3166C34.0875 35.879 34.3333 35.2855 34.3333 34.6667C34.3333 34.0478 34.0875 33.4543 33.6499 33.0168C33.2123 32.5792 32.6188 32.3333 32 32.3333H25Z" fill="#988DD8"/>
</svg>
