<svg width="51" height="51" viewBox="0 0 51 51" fill="none" xmlns="http://www.w3.org/2000/svg">
<path d="M37.6699 9.32132L38.7491 16.1502L44.9587 19.3169L41.8273 25.5088L44.9764 31.7008L38.7137 34.8675L37.6345 41.6964L30.7526 40.6172L25.8521 45.5L20.9339 40.5464L14.1051 41.6787L13.0082 34.7968L6.83398 31.6477L9.98303 25.4558L6.85168 19.3169L13.0613 16.1148L14.1405 9.33901L20.987 10.4713L25.9052 5.5L30.8057 10.4005L37.6699 9.32132ZM21.4824 16.6632C20.7786 16.6632 20.1036 16.9428 19.6059 17.4405C19.1083 17.9381 18.8287 18.6131 18.8287 19.3169C18.8287 20.0207 19.1083 20.6957 19.6059 21.1933C20.1036 21.691 20.7786 21.9706 21.4824 21.9706C22.1862 21.9706 22.8611 21.691 23.3588 21.1933C23.8565 20.6957 24.1361 20.0207 24.1361 19.3169C24.1361 18.6131 23.8565 17.9381 23.3588 17.4405C22.8611 16.9428 22.1862 16.6632 21.4824 16.6632ZM30.328 29.0471C29.6242 29.0471 28.9492 29.3267 28.4516 29.8244C27.9539 30.322 27.6743 30.997 27.6743 31.7008C27.6743 32.4046 27.9539 33.0796 28.4516 33.5772C28.9492 34.0749 29.6242 34.3545 30.328 34.3545C31.0318 34.3545 31.7068 34.0749 32.2045 33.5772C32.7021 33.0796 32.9817 32.4046 32.9817 31.7008C32.9817 30.997 32.7021 30.322 32.2045 29.8244C31.7068 29.3267 31.0318 29.0471 30.328 29.0471ZM19.554 34.3545L34.7508 19.1577L32.2564 16.6632L17.0595 31.86L19.554 34.3545Z" fill="#D4EB7A"/>
</svg>
