<svg width="51" height="50" viewBox="0 0 51 50" fill="none" xmlns="http://www.w3.org/2000/svg">
<path d="M39.2921 26.2761H36.3748C36.6721 27.0903 36.8346 27.9689 36.8346 28.8846V39.9106C36.8346 40.2924 36.7681 40.6589 36.6472 40.9997H41.4703C43.2719 40.9997 44.7376 39.534 44.7376 37.7324V31.7216C44.7377 28.719 42.2948 26.2761 39.2921 26.2761Z" fill="#F3A5A5"/>
<path d="M14.9175 28.8846C14.9175 27.9688 15.08 27.0903 15.3773 26.2761H12.46C9.45729 26.2761 7.0144 28.719 7.0144 31.7217V37.7325C7.0144 39.534 8.48009 40.9998 10.2817 40.9998H15.1049C14.984 40.6588 14.9175 40.2924 14.9175 39.9106V28.8846Z" fill="#F3A5A5"/>
<path d="M29.2108 23.4391H22.5413C19.5386 23.4391 17.0957 25.882 17.0957 28.8847V39.9106C17.0957 40.5121 17.5833 40.9997 18.1848 40.9997H33.5672C34.1687 40.9997 34.6564 40.5121 34.6564 39.9106V28.8847C34.6564 25.882 32.2135 23.4391 29.2108 23.4391Z" fill="#F3A5A5"/>
<path d="M25.8761 9C22.265 9 19.3271 11.9379 19.3271 15.5491C19.3271 17.9985 20.6791 20.1377 22.6756 21.2609C23.6226 21.7936 24.7144 22.098 25.8761 22.098C27.0379 22.098 28.1296 21.7936 29.0766 21.2609C31.0732 20.1377 32.4251 17.9984 32.4251 15.5491C32.4251 11.9379 29.4872 9 25.8761 9Z" fill="#F3A5A5"/>
<path d="M14.3763 15.1042C11.6756 15.1042 9.47852 17.3013 9.47852 20.002C9.47852 22.7027 11.6756 24.8998 14.3763 24.8998C15.0613 24.8998 15.7137 24.7579 16.3063 24.5028C17.3309 24.0617 18.1757 23.2809 18.6984 22.3028C19.0653 21.6163 19.2741 20.8332 19.2741 20.002C19.2741 17.3014 17.077 15.1042 14.3763 15.1042Z" fill="#F3A5A5"/>
<path d="M37.376 15.1042C34.6754 15.1042 32.4783 17.3013 32.4783 20.002C32.4783 20.8333 32.687 21.6164 33.0539 22.3028C33.5767 23.2809 34.4215 24.0618 35.446 24.5028C36.0386 24.7579 36.691 24.8998 37.376 24.8998C40.0767 24.8998 42.2738 22.7027 42.2738 20.002C42.2738 17.3013 40.0767 15.1042 37.376 15.1042Z" fill="#F3A5A5"/>
</svg>
