<svg width="51" height="50" viewBox="0 0 51 50" fill="none" xmlns="http://www.w3.org/2000/svg">
<path d="M44.876 32.7704L44.876 30.3531C44.876 29.9466 44.5888 29.5974 44.1919 29.5221C42.0553 29.1061 40.5134 27.2207 40.519 25.0304C40.519 22.8209 42.0329 20.9732 44.2004 20.5368C44.5933 20.4578 44.876 20.1105 44.876 19.7074L44.876 17.2293C44.876 16.1062 44.4322 15.0291 43.6427 14.2358C42.8529 13.4424 41.7822 12.9977 40.6664 13L11.0698 13.0545C8.75393 13.0621 6.87926 14.9524 6.87598 17.2838L6.87598 19.1718C6.87598 19.607 7.20423 19.9714 7.63458 20.0137C9.9547 20.2255 11.7316 22.1832 11.7319 24.5282C11.7319 26.8599 9.93632 28.8424 7.64377 29.042C7.20949 29.0796 6.87598 29.4457 6.87598 29.8849L6.87598 32.7707C6.8786 35.1051 8.7582 36.997 11.0777 37L40.6743 37C42.9938 36.997 44.8737 35.1051 44.876 32.7704V32.7704ZM18.255 31.4936C17.7908 31.4936 17.4147 31.115 17.4147 30.6478L17.4147 19.3453C17.4147 18.8781 17.7908 18.4994 18.255 18.4994L33.4973 18.4994C33.9611 18.4994 34.3376 18.8781 34.3376 19.3453L34.3376 30.6478C34.3376 31.115 33.9611 31.4936 33.4973 31.4936L18.255 31.4936Z" fill="#F1C060"/>
<path d="M32.876 20L32.876 30L18.876 30L18.876 20L32.876 20Z" fill="#F1C060"/>
</svg>
