<svg width="51" height="50" viewBox="0 0 51 50" fill="none" xmlns="http://www.w3.org/2000/svg">
<path d="M44.3931 13.8755C44.268 13.4797 43.945 13.1788 43.5412 13.0807C43.1391 12.9825 42.7131 13.1013 42.4202 13.3942L37.4042 18.4086L33.5646 17.3098L32.4658 13.4702L37.4818 8.45417C37.7763 8.16125 37.8935 7.73533 37.7953 7.33317C37.6971 6.92942 37.3963 6.608 37.0005 6.48133C35.9871 6.16308 34.9089 6 33.7926 6C27.681 6 22.7093 10.9717 22.7093 17.0833C22.7093 18.3769 22.9262 19.6262 23.3553 20.8073L8.26931 35.8933C7.36998 36.7911 6.87598 37.9833 6.87598 39.25C6.87598 40.5167 7.36998 41.7089 8.26931 42.6067C9.16706 43.506 10.3593 44 11.626 44C12.8926 44 14.0849 43.506 14.9826 42.6067L30.0686 27.5207C31.2498 27.9498 32.4991 28.1667 33.7926 28.1667C39.9043 28.1667 44.876 23.195 44.876 17.0833C44.876 15.9671 44.7129 14.8888 44.3931 13.8755Z" fill="#F1C060"/>
</svg>
