<svg width="51" height="50" viewBox="0 0 51 50" fill="none" xmlns="http://www.w3.org/2000/svg">
<path d="M44.626 43.75L32.126 31.25L44.626 43.75ZM36.2926 20.8333C36.2926 22.7484 35.9154 24.6448 35.1826 26.4141C34.4497 28.1835 33.3755 29.7911 32.0213 31.1453C30.6671 32.4995 29.0594 33.5737 27.2901 34.3066C25.5208 35.0395 23.6244 35.4167 21.7093 35.4167C19.7942 35.4167 17.8978 35.0395 16.1285 34.3066C14.3592 33.5737 12.7515 32.4995 11.3973 31.1453C10.0431 29.7911 8.96895 28.1835 8.23607 26.4141C7.50319 24.6448 7.12598 22.7484 7.12598 20.8333C7.12598 16.9656 8.66243 13.2563 11.3973 10.5214C14.1322 7.78645 17.8416 6.25 21.7093 6.25C25.577 6.25 29.2864 7.78645 32.0213 10.5214C34.7562 13.2563 36.2926 16.9656 36.2926 20.8333Z" stroke="#988DD8" stroke-width="8" stroke-linecap="round" stroke-linejoin="round"/>
</svg>
