<svg width="245" height="320" viewBox="0 0 245 320" fill="none" xmlns="http://www.w3.org/2000/svg">
<rect x="119.346" y="208.115" width="127.984" height="127.984" rx="20" transform="rotate(-29.1955 119.346 208.115)" fill="#F3A5A5"/>
<path d="M174.112 297.452L191.923 229.473L196.112 236.401L203.112 248.241L221.03 232.937L227.612 236.4L207.612 300.741L199.743 309.576L190.186 311.741L174.112 297.452Z" fill="black" fill-opacity="0.08"/>
<g clip-path="url(#clip0)">
<path d="M226.044 238.168L205.475 250.043C204.748 250.463 203.884 250.577 203.073 250.36C202.261 250.142 201.57 249.612 201.15 248.884L191.65 232.43C190.771 230.908 191.287 228.983 192.809 228.104L201.036 223.354L205.362 224.513L214.96 218.972C215.688 218.552 216.552 218.438 217.363 218.655C218.174 218.873 218.866 219.403 219.286 220.131L195.975 233.589L203.892 247.301L200.493 234.637L223.9 221.123L227.503 234.584C227.876 235.959 227.305 237.44 226.044 238.168Z" fill="white"/>
</g>
<rect opacity="0.5" x="0.5" y="193.863" width="52.8508" height="52.8508" rx="20" transform="rotate(-29.1955 0.5 193.863)" fill="#C5D1E3"/>
<rect opacity="0.5" x="126.051" y="93.3618" width="66.563" height="66.563" rx="20" transform="rotate(-29.1955 126.051 93.3618)" fill="#C5D1E3"/>
<rect opacity="0.5" x="195.858" y="33.8716" width="52.8508" height="52.8508" rx="20" transform="rotate(-29.1955 195.858 33.8716)" fill="#C5D1E3"/>
<rect opacity="0.5" x="79.9141" y="25.8677" width="52.8508" height="52.8508" rx="20" transform="rotate(-29.1955 79.9141 25.8677)" fill="#C5D1E3"/>
<rect x="48.1689" y="141.393" width="66.563" height="66.563" rx="20" transform="rotate(-29.1955 48.1689 141.393)" fill="url(#paint0_linear)"/>
<rect x="48.1689" y="141.393" width="66.563" height="66.563" rx="20" transform="rotate(-29.1955 48.1689 141.393)" fill="url(#paint1_linear)"/>
<rect x="48.1689" y="141.393" width="66.563" height="66.563" rx="20" transform="rotate(-29.1955 48.1689 141.393)" fill="url(#paint2_radial)"/>
<rect x="48.1689" y="141.393" width="66.563" height="66.563" rx="20" transform="rotate(-29.1955 48.1689 141.393)" fill="url(#paint3_linear)"/>
<rect x="48.1689" y="141.393" width="66.563" height="66.563" rx="20" transform="rotate(-29.1955 48.1689 141.393)" fill="white"/>
<path d="M103.467 155.863C103.529 155.394 103.56 154.91 103.56 154.394C103.56 153.894 103.529 153.394 103.451 152.925L106.601 150.457C106.737 150.344 106.829 150.187 106.863 150.014C106.897 149.84 106.87 149.659 106.787 149.503L103.808 144.316C103.72 144.159 103.58 144.038 103.413 143.975C103.245 143.913 103.061 143.911 102.893 143.972L99.1843 145.472C98.4085 144.878 97.5862 144.378 96.6707 144.003L96.1121 140.035C96.0847 139.856 95.9944 139.693 95.8577 139.575C95.7211 139.458 95.5471 139.393 95.3674 139.394L89.4092 139.394C89.0368 139.394 88.742 139.66 88.68 140.035L88.1214 144.003C87.206 144.378 86.3681 144.894 85.6078 145.472L81.8995 143.972C81.5581 143.847 81.1702 143.972 80.984 144.316L78.0205 149.503C77.8343 149.832 77.8964 150.238 78.2067 150.457L81.3564 152.925C81.2788 153.394 81.2168 153.91 81.2168 154.394C81.2168 154.878 81.2478 155.394 81.3254 155.863L78.1756 158.332C78.0399 158.444 77.9472 158.601 77.9132 158.775C77.8793 158.948 77.9062 159.129 77.9895 159.285L80.9685 164.472C81.1547 164.816 81.5426 164.925 81.884 164.816L85.5923 163.316C86.3681 163.91 87.1904 164.41 88.1059 164.785L88.6645 168.753C88.742 169.128 89.0368 169.394 89.4092 169.394L95.3674 169.394C95.7398 169.394 96.0501 169.128 96.0966 168.753L96.6552 164.785C97.5707 164.41 98.4085 163.91 99.1688 163.316L102.877 164.816C103.218 164.941 103.606 164.816 103.793 164.472L106.772 159.285C106.958 158.941 106.88 158.55 106.585 158.332L103.467 155.863ZM92.3883 160.019C89.3161 160.019 86.8025 157.488 86.8025 154.394C86.8025 151.3 89.3161 148.769 92.3883 148.769C95.4605 148.769 97.9741 151.3 97.9741 154.394C97.9741 157.488 95.4605 160.019 92.3883 160.019Z" fill="#988DD8"/>
<defs>
<linearGradient id="paint0_linear" x1="113.628" y1="152.642" x2="54.5822" y2="211.398" gradientUnits="userSpaceOnUse">
<stop stop-color="#DDCD3C"/>
<stop offset="1" stop-color="#CE2EA1"/>
</linearGradient>
<linearGradient id="paint1_linear" x1="113.628" y1="152.642" x2="54.5822" y2="211.398" gradientUnits="userSpaceOnUse">
<stop stop-color="#4784E0"/>
<stop offset="1" stop-color="#355B95"/>
</linearGradient>
<radialGradient id="paint2_radial" cx="0" cy="0" r="1" gradientUnits="userSpaceOnUse" gradientTransform="translate(108.934 154.729) rotate(131.39) scale(67.5237 92.4623)">
<stop stop-color="#11E4A5"/>
<stop offset="1" stop-color="#104087"/>
</radialGradient>
<linearGradient id="paint3_linear" x1="113.628" y1="152.642" x2="54.5822" y2="211.398" gradientUnits="userSpaceOnUse">
<stop stop-color="#6192DD"/>
<stop offset="1" stop-color="#332397"/>
</linearGradient>
<clipPath id="clip0">
<rect width="38" height="38" fill="white" transform="translate(184.157 225.786) rotate(-30)"/>
</clipPath>
</defs>
</svg>
