<svg width="300" height="303" viewBox="0 0 300 303" fill="none" xmlns="http://www.w3.org/2000/svg">
<rect x="-49.2402" y="69.3525" width="127.984" height="127.984" rx="20" transform="rotate(-29.1955 -49.2402 69.3525)" fill="url(#paint0_linear)"/>
<rect x="-49.2402" y="69.3525" width="127.984" height="127.984" rx="20" transform="rotate(-29.1955 -49.2402 69.3525)" fill="#A6BFE3"/>
<mask id="mask0" mask-type="alpha" maskUnits="userSpaceOnUse" x="-43" y="14" width="161" height="160">
<rect x="-49.2402" y="69.3521" width="127.984" height="127.984" rx="20" transform="rotate(-29.1955 -49.2402 69.3521)" fill="url(#paint1_linear)"/>
</mask>
<g mask="url(#mask0)">
<path d="M-5.31787 167.34L15.1821 88.8398L19.6821 86.8398L31.1821 96.8398L48.6821 92.8398L55.6821 100.84L34.6821 170.84L24.1821 181.34L13.1821 183.84L-5.31787 167.34Z" fill="black" fill-opacity="0.08"/>
</g>
<g clip-path="url(#clip0)">
<path d="M48.0677 76.6303C47.5189 76.3134 46.8974 76.1441 46.2637 76.1389C45.63 76.1338 45.0058 76.293 44.4519 76.601L24.1292 88.3343L21.1367 85.2777C20.8436 84.9851 20.4602 84.8002 20.0487 84.7533C19.6372 84.7065 19.222 84.8003 18.8706 85.0195L15.6952 86.8528C15.2741 87.0959 14.9668 87.4964 14.841 87.966C14.7151 88.4357 14.781 88.9361 15.0241 89.3572C15.2673 89.7783 15.6677 90.0856 16.1373 90.2114C16.607 90.3372 17.1074 90.2714 17.5285 90.0282L19.4973 88.8916L33.2844 102.652C33.5774 102.944 33.9609 103.129 34.3723 103.176C34.7838 103.223 35.1991 103.129 35.5504 102.91L49.8398 94.6598C50.1325 94.4896 50.3724 94.2417 50.5328 93.9436C50.6932 93.6454 50.768 93.3087 50.7487 92.9707L49.9431 79.5486C49.8957 78.9452 49.6996 78.3629 49.3723 77.8537C49.0451 77.3445 48.5969 76.9242 48.0677 76.6303Z" fill="white"/>
<path d="M39.3401 111.307C40.6554 110.547 41.106 108.865 40.3466 107.55C39.5872 106.235 37.9054 105.784 36.5901 106.543C35.2748 107.303 34.8241 108.985 35.5835 110.3C36.3429 111.615 38.0248 112.066 39.3401 111.307Z" fill="white"/>
<path d="M55.217 102.14C56.5323 101.381 56.983 99.6988 56.2236 98.3835C55.4642 97.0682 53.7823 96.6176 52.467 97.377C51.1517 98.1363 50.7011 99.8182 51.4604 101.134C52.2198 102.449 53.9017 102.899 55.217 102.14Z" fill="white"/>
</g>
<rect opacity="0.5" x="150.003" y="101.575" width="66.563" height="66.563" rx="20" transform="rotate(-29.1955 150.003 101.575)" fill="#C5D1E3"/>
<rect opacity="0.5" x="102.956" y="26.6479" width="52.8508" height="52.8508" rx="20" transform="rotate(-29.1955 102.956 26.6479)" fill="#C5D1E3"/>
<rect opacity="0.5" x="47.1538" y="206.969" width="66.563" height="66.563" rx="20" transform="rotate(-29.1955 47.1538 206.969)" fill="#C5D1E3"/>
<rect x="125" y="243.429" width="127.984" height="127.984" rx="20" transform="rotate(-29.1955 125 243.429)" fill="#988DD8"/>
<path d="M179.392 351.291L199.892 272.791H214.628L221.628 261.023H225.128L241.128 298.523L219.392 354.791L208.892 365.291L197.892 367.791L179.392 351.291Z" fill="black" fill-opacity="0.08"/>
<path d="M217.744 259.527L214.067 271.812L201.657 269.03L196.438 285.596L200.989 286.616L204.666 274.331L217.076 277.113L222.294 260.547L217.744 259.527Z" fill="white"/>
<path d="M226.638 262.778L211.968 259.474L221.557 253.786L226.638 262.778Z" fill="white"/>
<defs>
<linearGradient id="paint0_linear" x1="76.621" y1="90.9819" x2="-36.9091" y2="203.955" gradientUnits="userSpaceOnUse">
<stop stop-color="#6192DD"/>
<stop offset="1" stop-color="#332397"/>
</linearGradient>
<linearGradient id="paint1_linear" x1="76.621" y1="90.9814" x2="-36.9091" y2="203.954" gradientUnits="userSpaceOnUse">
<stop stop-color="#6192DD"/>
<stop offset="1" stop-color="#332397"/>
</linearGradient>
<clipPath id="clip0">
<rect width="44" height="44" fill="white" transform="translate(8.18213 84.8398) rotate(-30)"/>
</clipPath>
</defs>
</svg>
