<svg width="836" height="483" viewBox="0 0 836 483" fill="none" xmlns="http://www.w3.org/2000/svg">
<rect x="582.322" y="395.466" width="138.73" height="138.73" rx="20" transform="rotate(-30 582.322 395.466)" fill="#C5D1E3" fill-opacity="0.5"/>
<rect x="362" y="168.076" width="72.1519" height="72.1519" rx="20" transform="rotate(-30 362 168.076)" fill="white"/>
<rect x="546" y="288.644" width="57.2883" height="57.2883" rx="20" transform="rotate(-30 546 288.644)" fill="#C5D1E3" fill-opacity="0.5"/>
<rect x="41" y="448.076" width="72.1519" height="72.1519" rx="20" transform="rotate(-30 41 448.076)" fill="#C5D1E3" fill-opacity="0.5"/>
<rect x="497.207" y="516.437" width="72.1519" height="72.1519" rx="20" transform="rotate(-30 497.207 516.437)" fill="black" fill-opacity="0.07"/>
<rect x="723" y="267.076" width="72.1519" height="72.1519" rx="20" transform="rotate(-30 723 267.076)" fill="#C5D1E3" fill-opacity="0.5"/>
<rect x="454.952" y="385.143" width="72.1519" height="72.1519" rx="20" transform="rotate(-30 454.952 385.143)" fill="white"/>
<rect x="319" y="442.947" width="113.895" height="113.895" rx="20" transform="rotate(-30 319 442.947)" fill="#C5D1E3" fill-opacity="0.5"/>
<rect x="145" y="321.644" width="57.2883" height="57.2883" rx="20" transform="rotate(-30 145 321.644)" fill="#C5D1E3" fill-opacity="0.5"/>
<path opacity="0.5" d="M198.236 383.414C200.877 378.841 205.757 376.023 211.038 376.023L240.165 376.023C245.446 376.023 250.326 378.841 252.967 383.414L267.53 408.639C270.171 413.212 270.171 418.848 267.53 423.421L252.967 448.646C250.326 453.219 245.446 456.037 240.165 456.037L211.038 456.037C205.757 456.037 200.877 453.219 198.236 448.646L183.673 423.421C181.032 418.848 181.032 413.212 183.673 408.639L198.236 383.414Z" fill="#F1C060"/>
<path opacity="0.5" fill-rule="evenodd" clip-rule="evenodd" d="M482.567 302.487C495.528 295.003 499.969 278.43 492.486 265.469C485.003 252.507 468.429 248.066 455.468 255.55C442.507 263.033 438.066 279.606 445.549 292.568C453.032 305.529 469.606 309.97 482.567 302.487ZM473.895 287.467C478.561 284.773 480.16 278.806 477.466 274.14C474.772 269.474 468.806 267.876 464.14 270.57C459.474 273.263 457.875 279.23 460.569 283.896C463.263 288.562 469.229 290.161 473.895 287.467Z" fill="#6DAE56"/>
<rect x="243.203" y="295.238" width="138.73" height="138.73" rx="20" transform="rotate(-29.1955 243.203 295.238)" fill="#988DD8"/>
<mask id="mask0" mask-type="alpha" maskUnits="userSpaceOnUse" x="250" y="234" width="175" height="176">
<rect x="243.203" y="295.238" width="138.73" height="138.73" rx="20" transform="rotate(-29.1955 243.203 295.238)" fill="#988DD8"/>
</mask>
<g mask="url(#mask0)">
<path d="M302.162 412.157L324.383 327.066L329.261 325.44L342.81 331.401L347.146 314.6L324.383 412.157L345.52 415.951L334.139 427.332L322.215 430.042L302.162 412.157Z" fill="black" fill-opacity="0.08"/>
</g>
<path d="M343.232 312.614L339.722 326.17L326.093 322.518L321.076 340.786L326.074 342.125L329.584 328.57L343.213 332.222L348.229 313.953L343.232 312.614Z" fill="white"/>
<path d="M353.375 316.552L337.473 312.29L347.556 306.464L353.375 316.552Z" fill="white"/>
<g clip-path="url(#clip0)">
<path d="M386.553 176.547C386.193 175.923 386.096 175.182 386.282 174.487C386.469 173.792 386.924 173.199 387.547 172.839L415.755 156.553C416.378 156.193 417.119 156.096 417.814 156.282C418.51 156.468 419.102 156.923 419.462 157.547L422.177 162.248C422.537 162.872 422.634 163.612 422.448 164.308C422.262 165.003 421.807 165.596 421.183 165.956L392.976 182.242C392.352 182.602 391.611 182.699 390.916 182.513C390.221 182.326 389.628 181.872 389.268 181.248L386.553 176.547ZM394.696 190.651C394.336 190.027 394.239 189.286 394.425 188.591C394.611 187.896 395.066 187.303 395.69 186.943L409.794 178.8C410.417 178.44 411.158 178.343 411.853 178.529C412.549 178.715 413.141 179.17 413.501 179.794L421.644 193.897C422.004 194.521 422.102 195.262 421.915 195.957C421.729 196.652 421.274 197.245 420.651 197.605L406.547 205.748C405.924 206.108 405.183 206.205 404.487 206.019C403.792 205.833 403.199 205.378 402.839 204.754L394.696 190.651ZM419.196 173.371C418.573 173.731 418.118 174.324 417.932 175.02C417.745 175.715 417.843 176.456 418.203 177.079L426.346 191.183C426.705 191.806 427.298 192.261 427.994 192.448C428.689 192.634 429.43 192.536 430.053 192.177L434.755 189.462C435.378 189.102 435.833 188.509 436.019 187.814C436.206 187.119 436.108 186.378 435.748 185.754L427.605 171.651C427.245 171.027 426.652 170.572 425.957 170.386C425.262 170.2 424.521 170.297 423.897 170.657L419.196 173.371Z" fill="#F1C060"/>
</g>
<g clip-path="url(#clip1)">
<path fill-rule="evenodd" clip-rule="evenodd" d="M483.147 387.952C481.882 388.64 480.943 389.803 480.536 391.184C480.128 392.564 480.286 394.051 480.974 395.315L493.952 419.155C494.64 420.419 495.803 421.358 497.184 421.766C498.564 422.173 500.051 422.015 501.315 421.327L525.155 408.35C526.419 407.661 527.358 406.499 527.766 405.118C528.173 403.737 528.015 402.251 527.327 400.986L514.35 377.147C513.661 375.882 512.499 374.943 511.118 374.536C509.737 374.128 508.251 374.286 506.986 374.974L483.147 387.952ZM509.793 385.808C509.449 385.176 508.868 384.706 508.177 384.502C507.487 384.299 506.744 384.377 506.112 384.722C505.479 385.066 505.01 385.647 504.806 386.338C504.602 387.028 504.681 387.771 505.025 388.403L512.812 402.707C513.156 403.339 513.737 403.809 514.428 404.013C515.118 404.216 515.861 404.137 516.494 403.793C517.126 403.449 517.595 402.868 517.799 402.177C518.003 401.487 517.924 400.744 517.58 400.112L509.793 385.808ZM505.237 394.469C504.893 393.837 504.312 393.367 503.621 393.163C502.931 392.96 502.188 393.039 501.555 393.383C500.923 393.727 500.453 394.308 500.25 394.999C500.046 395.689 500.125 396.432 500.469 397.064L505.66 406.6C506.004 407.233 506.585 407.702 507.276 407.906C507.966 408.11 508.709 408.031 509.342 407.686C509.974 407.342 510.444 406.761 510.647 406.071C510.851 405.38 510.772 404.637 510.428 404.005L505.237 394.469ZM501.978 405.514C501.634 404.882 501.053 404.412 500.362 404.208C499.672 404.005 498.929 404.084 498.297 404.428C497.664 404.772 497.195 405.353 496.991 406.044C496.787 406.734 496.866 407.477 497.21 408.11L498.508 410.494C498.852 411.126 499.434 411.595 500.124 411.799C500.815 412.003 501.558 411.924 502.19 411.58C502.822 411.236 503.292 410.654 503.495 409.964C503.699 409.273 503.62 408.53 503.276 407.898L501.978 405.514Z" fill="#988DD8"/>
</g>
<defs>
<clipPath id="clip0">
<rect width="50" height="50" fill="white" transform="translate(377 172) rotate(-30)"/>
</clipPath>
<clipPath id="clip1">
<rect width="50" height="50" fill="white" transform="translate(470.24 388.146) rotate(-28.5624)"/>
</clipPath>
</defs>
</svg>
