<svg width="827" height="335" viewBox="0 0 827 335" fill="none" xmlns="http://www.w3.org/2000/svg">
<rect x="493" y="280.311" width="160.622" height="160.622" rx="20" transform="rotate(-30 493 280.311)" fill="#C5D1E3" fill-opacity="0.5"/>
<rect x="133" y="41.769" width="83.538" height="83.538" rx="20" transform="rotate(-30 133 41.769)" fill="#C5D1E3" fill-opacity="0.5"/>
<rect x="369" y="51.1644" width="66.3289" height="66.3289" rx="20" transform="rotate(-30 369 51.1644)" fill="#C5D1E3" fill-opacity="0.5"/>
<rect x="712" y="262.769" width="83.538" height="83.538" rx="20" transform="rotate(-30 712 262.769)" fill="#C5D1E3" fill-opacity="0.5"/>
<rect x="309" y="263.769" width="83.538" height="83.538" rx="20" transform="rotate(-30 309 263.769)" fill="#C5D1E3" fill-opacity="0.5"/>
<rect x="321" y="162.164" width="66.3289" height="66.3289" rx="20" transform="rotate(-30 321 162.164)" fill="#C5D1E3" fill-opacity="0.5"/>
<rect y="255.769" width="83.538" height="83.538" rx="20" transform="rotate(-30 0 255.769)" fill="#DFE4EE"/>
<rect x="440" y="135.769" width="83.538" height="83.538" rx="20" transform="rotate(-30 440 135.769)" fill="#DFE4EE"/>
<rect opacity="0.5" x="575" y="129.164" width="66.3289" height="66.3289" rx="33.1645" transform="rotate(-30 575 129.164)" fill="#F5DCAC"/>
<path opacity="0.5" fill-rule="evenodd" clip-rule="evenodd" d="M284.738 71.8494C275.494 77.1865 272.327 89.0069 277.664 98.251L292.849 124.554C298.187 133.798 310.007 136.965 319.251 131.628L345.554 116.442C354.798 111.105 357.965 99.2846 352.628 90.0404L337.442 63.7379C332.105 54.4938 320.285 51.3265 311.04 56.6636L284.738 71.8494ZM306.542 84.7661C301.92 87.4347 300.337 93.3449 303.005 97.967L305.766 102.749C308.435 107.371 314.345 108.955 318.967 106.286L323.749 103.525C328.371 100.857 329.955 94.9466 327.286 90.3245L324.525 85.5422C321.857 80.9202 315.947 79.3365 311.325 82.0051L306.542 84.7661Z" fill="#6DAE56"/>
<path opacity="0.5" d="M503.478 228.145C507.639 228.144 510.239 232.648 508.158 236.251L494.11 260.575C492.028 264.178 486.827 264.179 484.747 260.576L470.706 236.257C468.626 232.655 471.228 228.15 475.389 228.15L503.478 228.145Z" fill="#F5DCAC"/>
<rect x="118.069" y="208.215" width="127.984" height="127.984" rx="20" transform="rotate(-30 118.069 208.215)" fill="#C4C4C4"/>
<mask id="mask0" mask-type="alpha" maskUnits="userSpaceOnUse" x="118" y="144" width="176" height="175">
<rect x="118.178" y="207.992" width="127.984" height="127.984" rx="20" transform="rotate(-30 118.178 207.992)" fill="#C4C4C4"/>
</mask>
<g mask="url(#mask0)">
<path d="M162.178 321.057L180.678 258.5L193.678 220L195.678 223.5L207.678 218H208.178L222.178 233V235.5L200.178 324.5L194.155 336.232L182.231 338.942L167.178 333.5L162.178 321.057Z" fill="black" fill-opacity="0.08"/>
</g>
<path d="M217.425 227.098C217.221 226.602 216.977 226.109 216.685 225.603C216.402 225.112 216.088 224.639 215.745 224.224L217.47 219.997C217.541 219.809 217.545 219.602 217.48 219.412C217.415 219.222 217.286 219.06 217.115 218.955L211.221 215.569C211.045 215.465 210.837 215.427 210.636 215.461C210.434 215.496 210.25 215.6 210.118 215.756L207.289 219.352C206.184 219.213 205.085 219.194 203.964 219.35L201.161 215.774C201.032 215.615 200.85 215.506 200.648 215.469C200.446 215.432 200.237 215.469 200.059 215.572L194.149 218.984C193.78 219.197 193.638 219.627 193.789 220.031L195.484 224.246C194.788 225.138 194.25 226.124 193.823 227.127L189.295 227.778C188.885 227.851 188.571 228.196 188.582 228.64L188.582 235.429C188.583 235.857 188.875 236.22 189.306 236.257L193.83 236.877C194.018 237.381 194.249 237.923 194.523 238.398C194.798 238.874 195.121 239.362 195.463 239.778L193.738 244.004C193.667 244.193 193.664 244.399 193.729 244.59C193.794 244.78 193.923 244.941 194.094 245.047L199.988 248.432C200.368 248.663 200.814 248.548 201.091 248.245L203.919 244.649C205.025 244.788 206.124 244.808 207.245 244.651L210.048 248.227C210.337 248.55 210.78 248.642 211.149 248.429L217.059 245.017C217.429 244.804 217.586 244.365 217.42 243.971L215.725 239.755C216.42 238.863 216.968 237.893 217.386 236.874L221.914 236.223C222.323 236.15 222.637 235.805 222.627 235.361L222.642 228.564C222.632 228.12 222.334 227.781 221.918 227.735L217.425 227.098ZM208.792 237.522C205.745 239.281 201.817 238.236 200.064 235.199C198.311 232.163 199.37 228.239 202.417 226.48C205.464 224.72 209.392 225.765 211.145 228.802C212.898 231.838 211.839 235.762 208.792 237.522Z" fill="white"/>
</svg>
