<svg width="654" height="427" viewBox="0 0 654 427" fill="none" xmlns="http://www.w3.org/2000/svg">
<g clip-path="url(#clip0)">
<rect width="654" height="427" fill="#F8F8F8"/>
<rect x="162.234" y="346.374" width="127.984" height="127.984" rx="20" transform="rotate(-29.1955 162.234 346.374)" fill="#F3A5A5"/>
<path d="M217 435.711L234.811 367.732L239 374.66L246 386.5L263.918 371.196L270.5 374.66L250.5 439L242.631 447.835L233.074 450L217 435.711Z" fill="black" fill-opacity="0.08"/>
<rect x="214.578" y="126.512" width="127.984" height="127.984" rx="20" transform="rotate(-29.1955 214.578 126.512)" fill="url(#paint0_linear)"/>
<rect x="214.578" y="126.512" width="127.984" height="127.984" rx="20" transform="rotate(-29.1955 214.578 126.512)" fill="#A6BFE3"/>
<mask id="mask0" mask-type="alpha" maskUnits="userSpaceOnUse" x="214" y="64" width="175" height="175">
<rect x="214.578" y="126.512" width="127.984" height="127.984" rx="20" transform="rotate(-29.1955 214.578 126.512)" fill="url(#paint1_linear)"/>
</mask>
<g mask="url(#mask0)">
<path d="M258.5 224.5L279 146L283.5 144L295 154L312.5 150L319.5 158L298.5 228L288 238.5L277 241L258.5 224.5Z" fill="black" fill-opacity="0.08"/>
</g>
<rect x="557.608" y="334.638" width="127.984" height="127.984" rx="20" transform="rotate(-29.1955 557.608 334.638)" fill="#988DD8"/>
<path d="M612 442.5L632.5 364L637 362.5L649.5 368L653.5 352.5L674 372L652 446L641.5 456.5L630.5 459L612 442.5Z" fill="black" fill-opacity="0.08"/>
<path d="M649.889 350.668L646.651 363.174L634.077 359.804L629.449 376.658L634.06 377.893L637.298 365.387L649.871 368.757L654.499 351.903L649.889 350.668Z" fill="white"/>
<path d="M659.246 354.3L644.576 350.369L653.878 344.995L659.246 354.3Z" fill="white"/>
<rect x="532.112" y="74.557" width="127.984" height="127.984" rx="20" transform="rotate(-29.1955 532.112 74.557)" fill="#E0F395"/>
<mask id="mask1" mask-type="alpha" maskUnits="userSpaceOnUse" x="532" y="12" width="175" height="175">
<rect x="532.112" y="74.5571" width="127.984" height="127.984" rx="20" transform="rotate(-29.1955 532.112 74.5571)" fill="#D4EB7A"/>
</mask>
<g mask="url(#mask1)">
<path d="M576.5 173L598.5 91L603 89L607.5 101L613.5 113.5L624.5 112L632 101L637.5 108L618 173L607.5 183.5L596.5 186L576.5 173Z" fill="black" fill-opacity="0.08"/>
</g>
<rect x="-0.455078" y="391.242" width="127.984" height="127.984" rx="20" transform="rotate(-29.1955 -0.455078 391.242)" fill="#F1C060"/>
<path d="M52 491.5L72.5 413L77 411L88.5 421L91 419L98 427L81.5 489L71 499.5L60 502L52 491.5Z" fill="black" fill-opacity="0.08"/>
<g clip-path="url(#clip1)">
<path d="M88.8639 399.708C86.2808 401.199 85.1653 404.365 84.7053 406.369C82.7399 405.765 79.4458 405.146 76.8638 406.636C72.4136 409.206 71.146 414.185 73.7789 418.746C76.6801 423.771 82.414 424.791 87.9607 425.777C90.5803 426.244 93.29 426.725 95.6709 427.619C96.0707 427.768 96.5108 427.733 96.8731 427.524L96.9446 427.482C97.3082 427.272 97.5563 426.908 97.6268 426.489C98.0459 423.979 98.9822 421.392 99.8893 418.89C101.808 413.595 103.794 408.118 100.892 403.092C98.2592 398.531 93.313 397.139 88.8639 399.708Z" fill="white"/>
</g>
<rect x="239.226" y="484.159" width="127.984" height="127.984" rx="20" transform="rotate(-29.1955 239.226 484.159)" fill="#C4C4C4"/>
<rect x="419.379" y="417.621" width="127.984" height="127.984" rx="20" transform="rotate(-29.1955 419.379 417.621)" fill="#76CB9E"/>
<rect opacity="0.5" x="297.65" y="270.706" width="66.563" height="66.563" rx="20" transform="rotate(-29.1955 297.65 270.706)" fill="#C5D1E3"/>
<rect opacity="0.5" x="359" y="21.7802" width="52.8508" height="52.8508" rx="20" transform="rotate(-29.1955 359 21.7802)" fill="#C5D1E3"/>
<rect opacity="0.5" x="467.032" y="174.205" width="66.563" height="66.563" rx="20" transform="rotate(-29.1955 467.032 174.205)" fill="#C5D1E3"/>
<rect opacity="0.5" x="595.803" y="208.676" width="66.563" height="66.563" rx="20" transform="rotate(-29.1955 595.803 208.676)" fill="#C5D1E3"/>
<rect x="342.173" y="350.385" width="66.563" height="66.563" rx="20" transform="rotate(-29.1955 342.173 350.385)" fill="url(#paint2_linear)"/>
<rect x="342.173" y="350.385" width="66.563" height="66.563" rx="20" transform="rotate(-29.1955 342.173 350.385)" fill="url(#paint3_linear)"/>
<rect x="342.173" y="350.385" width="66.563" height="66.563" rx="20" transform="rotate(-29.1955 342.173 350.385)" fill="url(#paint4_linear)"/>
<rect x="342.173" y="350.385" width="66.563" height="66.563" rx="20" transform="rotate(-29.1955 342.173 350.385)" fill="url(#paint5_linear)"/>
<rect x="342.173" y="350.385" width="66.563" height="66.563" rx="20" transform="rotate(-29.1955 342.173 350.385)" fill="url(#paint6_radial)"/>
<rect x="342.173" y="350.385" width="66.563" height="66.563" rx="20" transform="rotate(-29.1955 342.173 350.385)" fill="url(#paint7_linear)"/>
<rect x="342.173" y="350.385" width="66.563" height="66.563" rx="20" transform="rotate(-29.1955 342.173 350.385)" fill="white"/>
<g clip-path="url(#clip2)">
<path fill-rule="evenodd" clip-rule="evenodd" d="M372.34 358.506C371.873 357.696 371.746 356.734 371.988 355.831C372.23 354.928 372.821 354.159 373.63 353.691L382.786 348.405C383.596 347.938 384.558 347.811 385.461 348.053C386.363 348.295 387.133 348.886 387.6 349.695L398.173 368.007C398.64 368.817 398.767 369.779 398.525 370.682C398.283 371.584 397.693 372.354 396.883 372.821L387.727 378.108C386.918 378.575 385.956 378.702 385.053 378.46C384.15 378.218 383.38 377.627 382.913 376.818L372.34 358.506ZM391.188 370.005C391.422 370.41 391.485 370.891 391.364 371.343C391.243 371.794 390.948 372.179 390.543 372.413C390.138 372.646 389.657 372.71 389.206 372.589C388.754 372.468 388.37 372.172 388.136 371.768C387.902 371.363 387.839 370.882 387.96 370.43C388.081 369.979 388.376 369.594 388.781 369.361C389.186 369.127 389.667 369.064 390.118 369.184C390.569 369.305 390.954 369.601 391.188 370.005Z" fill="#1054B9"/>
<path fill-rule="evenodd" clip-rule="evenodd" d="M372.34 358.506C371.873 357.696 371.746 356.734 371.988 355.831C372.23 354.928 372.821 354.159 373.63 353.691L382.786 348.405C383.596 347.938 384.558 347.811 385.461 348.053C386.363 348.295 387.133 348.886 387.6 349.695L398.173 368.007C398.64 368.817 398.767 369.779 398.525 370.682C398.283 371.584 397.693 372.354 396.883 372.821L387.727 378.108C386.918 378.575 385.956 378.702 385.053 378.46C384.15 378.218 383.38 377.627 382.913 376.818L372.34 358.506ZM391.188 370.005C391.422 370.41 391.485 370.891 391.364 371.343C391.243 371.794 390.948 372.179 390.543 372.413C390.138 372.646 389.657 372.71 389.206 372.589C388.754 372.468 388.37 372.172 388.136 371.768C387.902 371.363 387.839 370.882 387.96 370.43C388.081 369.979 388.376 369.594 388.781 369.361C389.186 369.127 389.667 369.064 390.118 369.184C390.569 369.305 390.954 369.601 391.188 370.005Z" fill="#AEE3C4"/>
</g>
<rect opacity="0.5" x="388.328" y="116.333" width="52.8508" height="52.8508" rx="20" transform="rotate(-29.1955 388.328 116.333)" fill="#C5D1E3"/>
<rect x="512.32" y="255.469" width="66.563" height="66.563" rx="20" transform="rotate(-29.1955 512.32 255.469)" fill="url(#paint8_linear)"/>
<rect x="512.32" y="255.469" width="66.563" height="66.563" rx="20" transform="rotate(-29.1955 512.32 255.469)" fill="url(#paint9_linear)"/>
<rect x="512.32" y="255.469" width="66.563" height="66.563" rx="20" transform="rotate(-29.1955 512.32 255.469)" fill="url(#paint10_linear)"/>
<rect x="512.32" y="255.469" width="66.563" height="66.563" rx="20" transform="rotate(-29.1955 512.32 255.469)" fill="url(#paint11_linear)"/>
<rect x="512.32" y="255.469" width="66.563" height="66.563" rx="20" transform="rotate(-29.1955 512.32 255.469)" fill="url(#paint12_radial)"/>
<rect x="512.32" y="255.469" width="66.563" height="66.563" rx="20" transform="rotate(-29.1955 512.32 255.469)" fill="url(#paint13_linear)"/>
<rect x="512.32" y="255.469" width="66.563" height="66.563" rx="20" transform="rotate(-29.1955 512.32 255.469)" fill="white"/>
<g clip-path="url(#clip3)">
<path d="M565.702 255.169C567.186 255.566 568.069 257.095 567.603 258.461L566.212 263.654L551.745 259.778L553.136 254.585C553.534 253.101 555.063 252.218 556.429 252.684L559.767 253.578L561.258 248.014L563.855 248.71L562.364 254.274L565.702 255.169ZM562.82 265.926L560.223 265.23L558.832 270.423L554.937 269.38L556.328 264.187L553.732 263.491L552.34 268.684L549.626 268.056L548.235 273.249C547.837 274.733 548.72 276.262 550.136 276.542L553.474 277.436L551.486 284.855L554.083 285.551L556.071 278.132L559.409 279.027C560.893 279.424 562.421 278.542 562.701 277.126L564.093 271.933L561.496 271.237L562.82 265.926Z" fill="#F1C060"/>
</g>
<rect x="379.449" y="224.999" width="66.563" height="66.563" rx="20" transform="rotate(-29.1955 379.449 224.999)" fill="url(#paint14_linear)"/>
<rect x="379.449" y="224.999" width="66.563" height="66.563" rx="20" transform="rotate(-29.1955 379.449 224.999)" fill="url(#paint15_linear)"/>
<rect x="379.449" y="224.999" width="66.563" height="66.563" rx="20" transform="rotate(-29.1955 379.449 224.999)" fill="url(#paint16_radial)"/>
<rect x="379.449" y="224.999" width="66.563" height="66.563" rx="20" transform="rotate(-29.1955 379.449 224.999)" fill="url(#paint17_linear)"/>
<rect x="379.449" y="224.999" width="66.563" height="66.563" rx="20" transform="rotate(-29.1955 379.449 224.999)" fill="white"/>
<path d="M434.747 239.469C434.809 239 434.84 238.516 434.84 238C434.84 237.5 434.809 237 434.731 236.531L437.881 234.063C438.016 233.95 438.109 233.793 438.143 233.619C438.177 233.446 438.15 233.265 438.067 233.109L435.088 227.922C435 227.765 434.86 227.644 434.693 227.581C434.525 227.519 434.341 227.517 434.172 227.578L430.464 229.078C429.688 228.484 428.866 227.984 427.951 227.609L427.392 223.641C427.364 223.462 427.274 223.299 427.138 223.181C427.001 223.064 426.827 222.999 426.647 223L420.689 223C420.317 223 420.022 223.266 419.96 223.641L419.401 227.609C418.486 227.984 417.648 228.5 416.888 229.078L413.179 227.578C412.838 227.453 412.45 227.578 412.264 227.922L409.3 233.109C409.114 233.438 409.176 233.844 409.486 234.063L412.636 236.531C412.559 237 412.497 237.516 412.497 238C412.497 238.484 412.528 239 412.605 239.469L409.455 241.938C409.32 242.05 409.227 242.207 409.193 242.381C409.159 242.554 409.186 242.735 409.269 242.891L412.248 248.078C412.435 248.422 412.822 248.531 413.164 248.422L416.872 246.922C417.648 247.516 418.47 248.016 419.386 248.391L419.944 252.359C420.022 252.734 420.317 253 420.689 253L426.647 253C427.02 253 427.33 252.734 427.376 252.359L427.935 248.391C428.85 248.016 429.688 247.516 430.449 246.922L434.157 248.422C434.498 248.547 434.886 248.422 435.072 248.078L438.051 242.891C438.238 242.547 438.16 242.156 437.865 241.938L434.747 239.469ZM423.668 243.625C420.596 243.625 418.082 241.094 418.082 238C418.082 234.906 420.596 232.375 423.668 232.375C426.74 232.375 429.254 234.906 429.254 238C429.254 241.094 426.74 243.625 423.668 243.625Z" fill="#988DD8"/>
<rect opacity="0.5" x="423.971" y="304.677" width="66.563" height="66.563" rx="20" transform="rotate(-29.1955 423.971 304.677)" fill="#C5D1E3"/>
<rect opacity="0.5" x="453.276" y="80.0415" width="52.8508" height="52.8508" rx="20" transform="rotate(-29.1955 453.276 80.0415)" fill="#C5D1E3"/>
<g clip-path="url(#clip4)">
<path d="M268.932 376.428L248.364 388.303C247.636 388.723 246.772 388.837 245.961 388.619C245.15 388.402 244.458 387.871 244.038 387.144L234.538 370.689C233.659 369.167 234.175 367.242 235.697 366.364L243.924 361.614L248.25 362.773L257.848 357.231C258.576 356.811 259.44 356.697 260.251 356.915C261.063 357.132 261.754 357.663 262.174 358.39L238.864 371.849L246.78 385.561L243.381 372.897L266.788 359.383L270.391 372.843C270.764 374.218 270.193 375.7 268.932 376.428Z" fill="white"/>
</g>
<g clip-path="url(#clip5)">
<path d="M311.886 133.791C311.337 133.474 310.715 133.304 310.082 133.299C309.448 133.294 308.824 133.453 308.27 133.761L287.947 145.495L284.955 142.438C284.662 142.145 284.278 141.961 283.867 141.914C283.455 141.867 283.04 141.961 282.688 142.18L279.513 144.013C279.092 144.256 278.785 144.657 278.659 145.126C278.533 145.596 278.599 146.096 278.842 146.517C279.085 146.939 279.486 147.246 279.955 147.372C280.425 147.498 280.925 147.432 281.346 147.189L283.315 146.052L297.102 159.812C297.395 160.104 297.779 160.289 298.19 160.336C298.602 160.383 299.017 160.289 299.368 160.07L313.658 151.82C313.95 151.65 314.19 151.402 314.351 151.104C314.511 150.806 314.586 150.469 314.567 150.131L313.761 136.709C313.714 136.105 313.517 135.523 313.19 135.014C312.863 134.505 312.415 134.084 311.886 133.791Z" fill="white"/>
<path d="M303.158 168.467C304.473 167.707 304.924 166.026 304.165 164.71C303.405 163.395 301.723 162.944 300.408 163.704C299.093 164.463 298.642 166.145 299.401 167.46C300.161 168.776 301.843 169.226 303.158 168.467Z" fill="white"/>
<path d="M319.035 159.3C320.35 158.541 320.801 156.859 320.041 155.544C319.282 154.228 317.6 153.778 316.285 154.537C314.97 155.297 314.519 156.978 315.278 158.294C316.038 159.609 317.72 160.06 319.035 159.3Z" fill="white"/>
</g>
<g clip-path="url(#clip6)">
<path d="M620.458 77.6437L625.17 83.4662L632.712 83.0737L633.128 90.5795L639.437 94.6833L635.276 101.047L637.963 108.039L630.921 110.754L628.968 117.99L621.67 116.006L615.877 120.768L611.12 114.905L603.621 115.295L603.221 107.78L596.958 103.716L601.049 97.348L598.391 90.4061L605.429 87.7597L607.35 80.4313L614.603 82.3745L620.458 77.6437ZM609.247 93.3009C608.587 93.6822 608.105 94.3101 607.908 95.0467C607.711 95.7832 607.814 96.5679 608.195 97.2283C608.576 97.8886 609.204 98.3705 609.941 98.5678C610.677 98.7652 611.462 98.6618 612.122 98.2806C612.783 97.8993 613.265 97.2714 613.462 96.5349C613.659 95.7984 613.556 95.0136 613.175 94.3533C612.794 93.6929 612.166 93.2111 611.429 93.0137C610.693 92.8164 609.908 92.9197 609.247 93.3009ZM624.255 100.128C623.595 100.51 623.113 101.138 622.916 101.874C622.718 102.611 622.822 103.395 623.203 104.056C623.584 104.716 624.212 105.198 624.949 105.395C625.685 105.593 626.47 105.489 627.13 105.108C627.791 104.727 628.272 104.099 628.47 103.362C628.667 102.626 628.564 101.841 628.183 101.181C627.801 100.52 627.173 100.039 626.437 99.8412C625.7 99.6439 624.916 99.7472 624.255 100.128ZM617.022 110.944L623.048 88.4539L619.356 87.4647L613.33 109.955L617.022 110.944Z" fill="white"/>
</g>
</g>
<defs>
<linearGradient id="paint0_linear" x1="340.439" y1="148.142" x2="226.909" y2="261.115" gradientUnits="userSpaceOnUse">
<stop stop-color="#6192DD"/>
<stop offset="1" stop-color="#332397"/>
</linearGradient>
<linearGradient id="paint1_linear" x1="340.439" y1="148.142" x2="226.909" y2="261.115" gradientUnits="userSpaceOnUse">
<stop stop-color="#6192DD"/>
<stop offset="1" stop-color="#332397"/>
</linearGradient>
<linearGradient id="paint2_linear" x1="407.632" y1="361.634" x2="348.586" y2="420.39" gradientUnits="userSpaceOnUse">
<stop stop-color="#DDCD3C"/>
<stop offset="1" stop-color="#CE2EA1"/>
</linearGradient>
<linearGradient id="paint3_linear" x1="407.632" y1="361.634" x2="348.586" y2="420.39" gradientUnits="userSpaceOnUse">
<stop stop-color="#4784E0"/>
<stop offset="1" stop-color="#355B95"/>
</linearGradient>
<linearGradient id="paint4_linear" x1="407.632" y1="361.634" x2="348.586" y2="420.39" gradientUnits="userSpaceOnUse">
<stop stop-color="#6192DD"/>
<stop offset="1" stop-color="#332397"/>
</linearGradient>
<linearGradient id="paint5_linear" x1="407.632" y1="361.634" x2="348.586" y2="420.39" gradientUnits="userSpaceOnUse">
<stop stop-color="#11E4A5"/>
<stop offset="1" stop-color="#104087"/>
</linearGradient>
<radialGradient id="paint6_radial" cx="0" cy="0" r="1" gradientUnits="userSpaceOnUse" gradientTransform="translate(402.938 363.721) rotate(131.39) scale(67.5237 92.4623)">
<stop stop-color="#11E4A5"/>
<stop offset="1" stop-color="#104087"/>
</radialGradient>
<linearGradient id="paint7_linear" x1="407.632" y1="361.634" x2="348.586" y2="420.39" gradientUnits="userSpaceOnUse">
<stop stop-color="#6192DD"/>
<stop offset="1" stop-color="#332397"/>
</linearGradient>
<linearGradient id="paint8_linear" x1="577.779" y1="266.718" x2="518.734" y2="325.474" gradientUnits="userSpaceOnUse">
<stop stop-color="#DDCD3C"/>
<stop offset="1" stop-color="#CE2EA1"/>
</linearGradient>
<linearGradient id="paint9_linear" x1="577.779" y1="266.718" x2="518.734" y2="325.474" gradientUnits="userSpaceOnUse">
<stop stop-color="#4784E0"/>
<stop offset="1" stop-color="#355B95"/>
</linearGradient>
<linearGradient id="paint10_linear" x1="577.779" y1="266.718" x2="518.734" y2="325.474" gradientUnits="userSpaceOnUse">
<stop stop-color="#6192DD"/>
<stop offset="1" stop-color="#332397"/>
</linearGradient>
<linearGradient id="paint11_linear" x1="577.779" y1="266.718" x2="518.734" y2="325.474" gradientUnits="userSpaceOnUse">
<stop stop-color="#11E4A5"/>
<stop offset="1" stop-color="#104087"/>
</linearGradient>
<radialGradient id="paint12_radial" cx="0" cy="0" r="1" gradientUnits="userSpaceOnUse" gradientTransform="translate(573.086 268.805) rotate(131.39) scale(67.5237 92.4623)">
<stop stop-color="#11E4A5"/>
<stop offset="1" stop-color="#104087"/>
</radialGradient>
<linearGradient id="paint13_linear" x1="577.779" y1="266.718" x2="518.734" y2="325.474" gradientUnits="userSpaceOnUse">
<stop stop-color="#6192DD"/>
<stop offset="1" stop-color="#332397"/>
</linearGradient>
<linearGradient id="paint14_linear" x1="444.908" y1="236.248" x2="385.862" y2="295.004" gradientUnits="userSpaceOnUse">
<stop stop-color="#DDCD3C"/>
<stop offset="1" stop-color="#CE2EA1"/>
</linearGradient>
<linearGradient id="paint15_linear" x1="444.908" y1="236.248" x2="385.862" y2="295.004" gradientUnits="userSpaceOnUse">
<stop stop-color="#4784E0"/>
<stop offset="1" stop-color="#355B95"/>
</linearGradient>
<radialGradient id="paint16_radial" cx="0" cy="0" r="1" gradientUnits="userSpaceOnUse" gradientTransform="translate(440.214 238.335) rotate(131.39) scale(67.5237 92.4623)">
<stop stop-color="#11E4A5"/>
<stop offset="1" stop-color="#104087"/>
</radialGradient>
<linearGradient id="paint17_linear" x1="444.908" y1="236.248" x2="385.862" y2="295.004" gradientUnits="userSpaceOnUse">
<stop stop-color="#6192DD"/>
<stop offset="1" stop-color="#332397"/>
</linearGradient>
<clipPath id="clip0">
<rect width="654" height="427" fill="white"/>
</clipPath>
<clipPath id="clip1">
<rect width="37" height="38" fill="white" transform="translate(64 407.5) rotate(-30)"/>
</clipPath>
<clipPath id="clip2">
<rect width="28.1936" height="28.1936" fill="white" transform="translate(366 358.097) rotate(-30)"/>
</clipPath>
<clipPath id="clip3">
<rect width="32.5859" height="32.5859" fill="white" transform="translate(535.448 260.878) rotate(-30)"/>
</clipPath>
<clipPath id="clip4">
<rect width="38" height="38" fill="white" transform="translate(227.045 364.046) rotate(-30)"/>
</clipPath>
<clipPath id="clip5">
<rect width="44" height="44" fill="white" transform="translate(272 142) rotate(-30)"/>
</clipPath>
<clipPath id="clip6">
<rect width="46" height="46" fill="white" transform="translate(586.771 90.786) rotate(-30)"/>
</clipPath>
</defs>
</svg>
