<svg width="936" height="509" viewBox="0 0 936 509" fill="none" xmlns="http://www.w3.org/2000/svg">
<rect x="293.82" y="336.033" width="148.78" height="148.78" rx="20" transform="rotate(-30 293.82 336.033)" fill="#F5DF68"/>
<mask id="mask0" mask-type="alpha" maskUnits="userSpaceOnUse" x="293" y="261" width="205" height="205">
<rect x="293.62" y="335.609" width="149.218" height="149.508" rx="20" transform="rotate(-30 293.62 335.609)" fill="#F5DF68"/>
</mask>
<g mask="url(#mask0)">
<path d="M359 461.557L380.5 374L386.5 351L390.976 342L410.5 349.5L383 459.5L402.358 465.351L390.976 476.732L379.053 479.442L359 461.557Z" fill="black" fill-opacity="0.08"/>
</g>
<g clip-path="url(#clip0)">
<path d="M407.144 345.963C409.421 346.573 410.774 348.918 410.06 351.014L407.926 358.98L385.734 353.034L387.868 345.067C388.478 342.791 390.823 341.437 392.919 342.151L398.04 343.524L400.327 334.988L404.31 336.055L402.023 344.591L407.144 345.963ZM402.723 362.465L398.74 361.398L396.605 369.364L390.63 367.763L392.765 359.797L388.782 358.729L386.647 366.696L382.483 365.733L380.349 373.699C379.739 375.975 381.093 378.32 383.265 378.75L388.386 380.122L385.337 391.502L389.32 392.57L392.369 381.189L397.49 382.561C399.767 383.171 402.111 381.817 402.541 379.645L404.676 371.679L400.692 370.612L402.723 362.465Z" fill="white"/>
</g>
<rect x="521.732" y="408.082" width="148.78" height="148.78" rx="20" transform="rotate(-30 521.732 408.082)" fill="#C5D1E3" fill-opacity="0.5"/>
<rect x="867" y="469.689" width="77.3786" height="77.3786" rx="20" transform="rotate(-30 867 469.689)" fill="#C5D1E3" fill-opacity="0.5"/>
<rect x="88" y="423.719" width="61.4384" height="61.4384" rx="20" transform="rotate(-30 88 423.719)" fill="#C5D1E3" fill-opacity="0.5"/>
<rect x="660.711" y="313.219" width="77.3786" height="77.3786" rx="20" transform="rotate(-30 660.711 313.219)" fill="#C5D1E3" fill-opacity="0.5"/>
<rect x="393" y="496.512" width="111.023" height="111.023" rx="20" transform="rotate(-30 393 496.512)" fill="#C5D1E3" fill-opacity="0.5"/>
<rect x="784" y="307.719" width="61.4384" height="61.4384" rx="20" transform="rotate(-30 784 307.719)" fill="#C5D1E3" fill-opacity="0.5"/>
<rect x="474.831" y="313.973" width="77.3786" height="77.3786" rx="20" transform="rotate(-30 474.831 313.973)" fill="#C5D1E3" fill-opacity="0.5"/>
<rect x="196.088" y="405.482" width="77.3786" height="77.3786" rx="20" transform="rotate(-30 196.088 405.482)" fill="#C5D1E3" fill-opacity="0.5"/>
<rect x="232" y="261.719" width="61.4384" height="61.4384" rx="20" transform="rotate(-30 232 261.719)" fill="#C5D1E3" fill-opacity="0.5"/>
<path opacity="0.5" d="M386.905 213.432C380.085 217.37 377.748 226.091 381.686 232.912L387.033 242.174C390.971 248.994 399.692 251.331 406.512 247.393L429.667 234.024L443.036 257.18C446.974 264 455.695 266.337 462.515 262.399L471.777 257.052C478.598 253.114 480.935 244.393 476.997 237.572L451.151 192.806C447.213 185.985 438.492 183.648 431.672 187.586L386.905 213.432Z" fill="#988DD8"/>
<path opacity="0.5" d="M613.007 270.686C614.438 268.246 617.061 266.731 619.889 266.713L635.488 266.611C638.316 266.593 640.92 268.073 642.318 270.495L650.029 283.851C651.428 286.273 651.408 289.268 649.978 291.708L642.09 305.166C640.66 307.606 638.037 309.121 635.209 309.14L619.61 309.241C616.782 309.26 614.178 307.779 612.78 305.357L605.069 292.001C603.67 289.579 603.69 286.584 605.12 284.144L613.007 270.686Z" fill="#F28556"/>
<circle opacity="0.5" cx="783.846" cy="429.846" r="34.2934" transform="rotate(-30 783.846 429.846)" fill="#F1C060"/>
<defs>
<clipPath id="clip0">
<rect width="49.987" height="49.987" fill="white" transform="translate(360.734 354.721) rotate(-30)"/>
</clipPath>
</defs>
</svg>
