<svg width="949" height="524" viewBox="0 0 949 524" fill="none" xmlns="http://www.w3.org/2000/svg">
<rect width="156.276" height="156.284" rx="20" transform="matrix(0.872941 -0.487826 0.487757 0.87298 344 350.236)" fill="#E0F395"/>
<mask id="mask0" mask-type="alpha" maskUnits="userSpaceOnUse" x="351" y="281" width="199" height="199">
<rect width="156.276" height="156.284" rx="20" transform="matrix(0.872941 -0.487826 0.487757 0.87298 344 350.236)" fill="#D4EB7A"/>
</mask>
<g mask="url(#mask0)">
<path d="M398.199 470.449L425.062 370.315L430.557 367.873L436.051 382.526L443.378 397.791L456.809 395.959L465.967 382.526L472.682 391.075L448.872 470.449L436.051 483.271L422.62 486.324L398.199 470.449Z" fill="black" fill-opacity="0.08"/>
</g>
<g clip-path="url(#clip0)">
<path d="M451.874 354.005L457.627 361.115L466.836 360.636L467.344 369.802L475.047 374.813L469.967 382.584L473.247 391.122L464.649 394.438L462.265 403.274L453.354 400.852L446.279 406.666L440.471 399.507L431.315 399.983L430.827 390.806L423.179 385.844L428.175 378.067L424.929 369.59L433.522 366.358L435.868 357.409L444.724 359.782L451.874 354.005ZM438.185 373.125C437.379 373.591 436.79 374.357 436.549 375.257C436.308 376.156 436.435 377.115 436.9 377.921C437.366 378.727 438.132 379.316 439.032 379.557C439.931 379.798 440.889 379.672 441.696 379.206C442.502 378.74 443.09 377.974 443.331 377.074C443.572 376.175 443.446 375.217 442.98 374.41C442.515 373.604 441.748 373.015 440.849 372.774C439.95 372.533 438.991 372.66 438.185 373.125ZM456.51 381.463C455.704 381.928 455.115 382.695 454.874 383.594C454.633 384.494 454.76 385.452 455.225 386.258C455.691 387.065 456.457 387.653 457.357 387.894C458.256 388.135 459.214 388.009 460.02 387.543C460.827 387.078 461.415 386.311 461.656 385.412C461.897 384.512 461.771 383.554 461.305 382.748C460.84 381.941 460.073 381.353 459.174 381.112C458.275 380.871 457.316 380.997 456.51 381.463ZM447.677 394.67L455.036 367.206L450.528 365.998L443.17 393.462L447.677 394.67Z" fill="white"/>
</g>
<rect opacity="0.5" x="602.859" y="440.519" width="174.383" height="174.383" rx="20" transform="rotate(-27.8652 602.859 440.519)" fill="#C5D1E3"/>
<rect opacity="0.5" x="215.898" y="557.252" width="90.6947" height="90.6947" rx="20" transform="rotate(-27.8652 215.898 557.252)" fill="#C5D1E3"/>
<rect opacity="0.5" x="307.161" y="254.696" width="72.0113" height="72.0113" rx="20" transform="rotate(-27.8652 307.161 254.696)" fill="#C5D1E3"/>
<rect opacity="0.5" x="769.782" y="335.478" width="90.6947" height="90.6947" rx="20" transform="rotate(-27.8652 769.782 335.478)" fill="#C5D1E3"/>
<rect opacity="0.5" x="837" y="436.51" width="165.835" height="165.835" rx="20" transform="rotate(-27.8652 837 436.51)" fill="#C5D1E3"/>
<rect opacity="0.5" x="324.507" y="520.965" width="72.0113" height="72.0113" rx="20" transform="rotate(-27.8652 324.507 520.965)" fill="#C5D1E3"/>
<rect opacity="0.5" x="552.032" y="328.245" width="90.6947" height="90.6947" rx="20" transform="rotate(-27.8652 552.032 328.245)" fill="white"/>
<rect opacity="0.5" x="221.553" y="423.256" width="90.6947" height="90.6947" rx="20" transform="rotate(-27.8652 221.553 423.256)" fill="white"/>
<rect opacity="0.5" x="539" y="198.657" width="72.0113" height="72.0113" rx="20" transform="rotate(-27.8652 539 198.657)" fill="#C5D1E3"/>
<rect opacity="0.5" x="486" y="492.344" width="94.8746" height="94.8746" rx="20" transform="rotate(-27.8652 486 492.344)" fill="#C5D1E3"/>
<path opacity="0.5" fill-rule="evenodd" clip-rule="evenodd" d="M703.842 262.178C695.645 266.512 692.513 276.67 696.847 284.867L709.178 308.191C713.512 316.388 723.67 319.52 731.867 315.186L755.191 302.855C763.388 298.521 766.52 288.363 762.186 280.166L749.855 256.842C745.521 248.645 735.363 245.513 727.166 249.847L703.842 262.178ZM722.352 274.096C718.253 276.263 716.687 281.342 718.854 285.441L721.096 289.681C723.263 293.78 728.342 295.346 732.441 293.179L736.681 290.937C740.78 288.77 742.346 283.691 740.179 279.592L737.937 275.352C735.77 271.253 730.691 269.687 726.592 271.854L722.352 274.096Z" fill="#F1C060"/>
<path opacity="0.5" d="M128.08 404.934C128.352 397.655 136.402 393.399 142.57 397.274L184.21 423.429C190.378 427.304 190.039 436.404 183.599 439.808L140.128 462.791C133.688 466.196 125.977 461.352 126.248 454.073L128.08 404.934Z" fill="#6DAE56"/>
<g clip-path="url(#clip1)">
<path d="M597.445 358.201C597.135 357.636 597.058 356.974 597.229 356.36C597.401 355.747 597.808 355.232 598.36 354.93L602.525 352.647C603.078 352.344 603.731 352.278 604.34 352.463C604.95 352.648 605.466 353.07 605.775 353.635L611.612 364.283C611.921 364.848 611.999 365.51 611.827 366.123C611.655 366.737 611.249 367.251 610.696 367.554L606.531 369.837C605.979 370.14 605.326 370.206 604.716 370.021C604.107 369.835 603.591 369.414 603.281 368.849L597.445 358.201ZM605.272 342.833C604.962 342.268 604.885 341.606 605.056 340.993C605.228 340.379 605.635 339.865 606.187 339.562L610.353 337.279C610.905 336.976 611.558 336.91 612.167 337.095C612.777 337.281 613.293 337.702 613.602 338.267L624.108 357.434C624.417 357.999 624.495 358.661 624.323 359.274C624.152 359.888 623.745 360.402 623.192 360.705L619.027 362.988C618.475 363.291 617.822 363.357 617.212 363.171C616.603 362.986 616.087 362.565 615.777 362L605.272 342.833ZM614.266 329.595C613.956 329.03 613.879 328.368 614.051 327.755C614.222 327.141 614.629 326.626 615.181 326.324L619.347 324.041C619.899 323.738 620.552 323.672 621.161 323.857C621.771 324.043 622.287 324.464 622.597 325.029L636.604 350.585C636.914 351.15 636.991 351.812 636.819 352.425C636.648 353.038 636.241 353.553 635.689 353.856L631.523 356.139C630.971 356.442 630.318 356.508 629.709 356.322C629.099 356.137 628.583 355.716 628.273 355.151L614.266 329.595Z" fill="#F28556"/>
</g>
<g clip-path="url(#clip2)">
<path d="M302.99 449.82L300.936 450.948L286.48 424.623C286.154 424.03 285.424 423.805 284.849 424.121L277.038 428.41L275.563 425.724C275.237 425.131 274.507 424.906 273.932 425.222L266.707 429.189C266.131 429.505 265.929 430.242 266.255 430.835L267.73 433.522L266.884 433.986C266.309 434.302 266.107 435.039 266.433 435.633L280.889 461.957L278.835 463.084C278.274 463.392 278.036 464.102 278.328 464.695C278.639 465.327 279.394 465.574 279.986 465.249L287.406 461.175C287.694 461.017 287.795 460.648 287.632 460.351L284.239 454.173L283.813 454.407C283.252 454.715 282.526 454.536 282.182 453.972C281.815 453.371 282.012 452.6 282.604 452.275C282.918 452.102 292.077 447.072 291.817 447.215C292.378 446.907 293.104 447.087 293.448 447.65C293.815 448.252 293.618 449.023 293.026 449.348L292.571 449.598L295.963 455.776C296.126 456.073 296.492 456.185 296.779 456.027L304.199 451.953C304.791 451.628 304.988 450.857 304.621 450.255C304.278 449.692 303.551 449.512 302.99 449.82ZM283.469 448.915L282.298 449.558C281.723 449.874 280.992 449.649 280.666 449.056C280.341 448.462 280.543 447.725 281.118 447.409L282.289 446.766C282.865 446.45 283.595 446.675 283.921 447.268C284.247 447.862 284.045 448.599 283.469 448.915ZM281.257 444.886L280.085 445.529C279.51 445.845 278.78 445.62 278.454 445.026C278.128 444.433 278.33 443.696 278.905 443.38L280.077 442.737C280.652 442.421 281.382 442.646 281.708 443.239C282.034 443.833 281.832 444.57 281.257 444.886ZM279.044 440.856L277.873 441.5C277.297 441.816 276.567 441.591 276.241 440.997C275.915 440.404 276.117 439.667 276.692 439.351L277.864 438.707C278.439 438.392 279.17 438.617 279.495 439.21C279.821 439.803 279.619 440.541 279.044 440.856ZM276.831 436.827L275.66 437.471C275.085 437.786 274.354 437.561 274.028 436.968C273.703 436.375 273.905 435.637 274.48 435.322L275.651 434.678C276.226 434.362 276.957 434.587 277.283 435.181C277.609 435.774 277.407 436.511 276.831 436.827ZM289.653 445.519L288.481 446.162C287.906 446.478 287.176 446.253 286.85 445.66C286.524 445.067 286.726 444.329 287.301 444.014L288.473 443.37C289.048 443.054 289.778 443.279 290.104 443.873C290.43 444.466 290.228 445.203 289.653 445.519ZM287.44 441.49L286.269 442.133C285.693 442.449 284.963 442.224 284.637 441.631C284.311 441.037 284.513 440.3 285.089 439.984L286.26 439.341C286.835 439.025 287.566 439.25 287.892 439.843C288.217 440.437 288.015 441.174 287.44 441.49ZM285.228 437.461L284.056 438.104C283.481 438.42 282.75 438.195 282.424 437.602C282.099 437.008 282.301 436.271 282.876 435.955L284.047 435.312C284.623 434.996 285.353 435.221 285.679 435.814C286.005 436.408 285.803 437.145 285.228 437.461ZM283.015 433.431L281.843 434.075C281.268 434.391 280.538 434.166 280.212 433.572C279.886 432.979 280.088 432.242 280.663 431.926L281.835 431.283C282.41 430.967 283.14 431.192 283.466 431.785C283.792 432.378 283.59 433.116 283.015 433.431ZM289.715 459.208L286.617 453.567C286.454 453.27 286.555 452.901 286.843 452.744L289.967 451.028C290.255 450.87 290.62 450.982 290.783 451.279L293.881 456.92C294.044 457.217 293.942 457.585 293.655 457.743L290.531 459.459C290.243 459.617 289.878 459.504 289.715 459.208Z" fill="#F1C060"/>
</g>
<defs>
<clipPath id="clip0">
<rect width="56.1689" height="56.1716" fill="white" transform="matrix(0.866005 -0.500035 0.499965 0.866046 410.74 370.054)"/>
</clipPath>
<clipPath id="clip1">
<rect width="50" height="50" fill="white" transform="translate(579 337.032) rotate(-28.7271)"/>
</clipPath>
<clipPath id="clip2">
<rect width="50" height="50" fill="white" transform="translate(249 432.068) rotate(-28.7739)"/>
</clipPath>
</defs>
</svg>
