<svg width="674" height="330" viewBox="0 0 674 330" fill="none" xmlns="http://www.w3.org/2000/svg">
<rect x="454" y="255.311" width="160.622" height="160.622" rx="20" transform="rotate(-30 454 255.311)" fill="#C5D1E3" fill-opacity="0.5"/>
<rect x="101" y="41.769" width="83.538" height="83.538" rx="20" transform="rotate(-30 101 41.769)" fill="#C5D1E3" fill-opacity="0.5"/>
<rect x="454" y="120.164" width="66.3289" height="66.3289" rx="20" transform="rotate(-30 454 120.164)" fill="#C5D1E3" fill-opacity="0.5"/>
<rect x="280" y="282.769" width="83.538" height="83.538" rx="20" transform="rotate(-30 280 282.769)" fill="#C5D1E3" fill-opacity="0.5"/>
<rect y="272.769" width="83.538" height="83.538" rx="20" transform="rotate(-30 0 272.769)" fill="#C5D1E3" fill-opacity="0.5"/>
<rect x="315" y="159.164" width="66.3289" height="66.3289" rx="20" transform="rotate(-30 315 159.164)" fill="#C5D1E3" fill-opacity="0.5"/>
<rect x="71.0869" y="174.636" width="127.984" height="127.984" rx="20" transform="rotate(-30 71.0869 174.636)" fill="#F1C060"/>
<mask id="mask0" mask-type="alpha" maskUnits="userSpaceOnUse" x="71" y="110" width="176" height="176">
<rect x="71.0938" y="174.432" width="128.864" height="128.158" rx="20" transform="rotate(-30 71.0938 174.432)" fill="#F1C060"/>
</mask>
<g mask="url(#mask0)">
<path d="M111.357 288.87L129.857 226.37L142.857 187.87L144.857 191.37L156.857 185.87H157.357L171.357 200.87L174.357 207.37L149.357 292.37L143.334 304.102L131.411 306.812L116.357 301.37L111.357 288.87Z" fill="black" fill-opacity="0.08"/>
</g>
<g clip-path="url(#clip0)">
<path fill-rule="evenodd" clip-rule="evenodd" d="M141.983 192.683C141.403 191.678 141.246 190.484 141.546 189.363C141.847 188.243 142.58 187.287 143.585 186.707L154.951 180.144C155.956 179.564 157.15 179.407 158.271 179.707C159.392 180.008 160.348 180.741 160.928 181.746L174.053 204.479C174.633 205.484 174.79 206.678 174.49 207.799C174.189 208.919 173.456 209.875 172.451 210.455L161.085 217.018C160.08 217.598 158.886 217.755 157.765 217.455C156.644 217.154 155.689 216.421 155.108 215.416L141.983 192.683ZM165.381 206.959C165.671 207.462 165.75 208.059 165.6 208.619C165.45 209.18 165.083 209.657 164.581 209.948C164.078 210.238 163.481 210.316 162.921 210.166C162.36 210.016 161.882 209.649 161.592 209.147C161.302 208.644 161.224 208.047 161.374 207.487C161.524 206.927 161.891 206.449 162.393 206.159C162.895 205.869 163.493 205.79 164.053 205.94C164.613 206.09 165.091 206.457 165.381 206.959Z" fill="white"/>
</g>
<rect x="139" y="329.769" width="83.538" height="83.538" rx="20" transform="rotate(-30 139 329.769)" fill="#DFE4EE"/>
<rect x="218" y="86.769" width="83.538" height="83.538" rx="20" transform="rotate(-30 218 86.769)" fill="#DFE4EE"/>
<rect opacity="0.5" x="348" y="44.1644" width="66.3289" height="66.3289" rx="33.1645" transform="rotate(-30 348 44.1644)" fill="#F5DCAC"/>
<path opacity="0.5" d="M81.478 131.145C85.6393 131.144 88.2394 135.648 86.1582 139.251L72.1097 163.575C70.0284 167.178 64.8267 167.179 62.7467 163.576L48.7061 139.257C46.626 135.655 49.2276 131.15 53.3889 131.15L81.478 131.145Z" fill="#F5DCAC"/>
<defs>
<clipPath id="clip0">
<rect width="35" height="35" fill="white" transform="translate(134.112 192.176) rotate(-30)"/>
</clipPath>
</defs>
</svg>
