<svg width="778" height="524" viewBox="0 0 778 524" fill="none" xmlns="http://www.w3.org/2000/svg">
<rect width="151.522" height="151.53" rx="20" transform="matrix(0.872941 -0.487826 0.487757 0.87298 206.116 386.292)" fill="#F3A5A5"/>
<rect x="570.587" y="462.668" width="187.403" height="187.403" rx="20" transform="rotate(-30 570.587 462.668)" fill="#C5D1E3" fill-opacity="0.5"/>
<rect x="238.31" y="255.155" width="78.1686" height="78.1686" rx="20" transform="rotate(-30 238.31 255.155)" fill="white"/>
<rect x="127" y="446.033" width="62.0656" height="62.0656" rx="20" transform="rotate(-30 127 446.033)" fill="#C5D1E3" fill-opacity="0.5"/>
<rect x="556.257" y="349.522" width="78.1686" height="78.1686" rx="20" transform="rotate(-30 556.257 349.522)" fill="white"/>
<rect x="439" y="457.084" width="78.1686" height="78.1686" rx="20" transform="rotate(-30 439 457.084)" fill="#C5D1E3" fill-opacity="0.5"/>
<rect x="339.023" y="530.591" width="62.0656" height="62.0656" rx="20" transform="rotate(-30 339.023 530.591)" fill="#C5D1E3" fill-opacity="0.5"/>
<rect x="414.94" y="340.309" width="78.1686" height="78.1686" rx="20" transform="rotate(-30 414.94 340.309)" fill="#C5D1E3" fill-opacity="0.5"/>
<g clip-path="url(#clip0)">
<path d="M620.557 345.221C620.249 344.941 619.819 344.844 619.421 344.962C619.024 345.08 618.715 345.397 618.61 345.797L616.797 352.654L612.926 353.636L610.045 350.871L611.856 344.012C611.963 343.611 611.85 343.184 611.563 342.886C611.275 342.586 610.854 342.46 610.448 342.55C609.412 342.784 608.398 343.186 607.433 343.747C602.151 346.822 600.356 353.62 603.431 358.902C604.082 360.02 604.898 360.99 605.863 361.795L600.415 382.423C600.089 383.651 600.262 384.93 600.899 386.025C601.536 387.119 602.563 387.901 603.792 388.225C605.02 388.55 606.299 388.377 607.394 387.74C608.489 387.103 609.27 386.076 609.594 384.847L615.042 364.22C616.279 363.996 617.467 363.555 618.585 362.904C623.867 359.83 625.663 353.032 622.588 347.75C622.026 346.785 621.343 345.935 620.557 345.221Z" fill="#F1C060"/>
</g>
<rect x="514" y="262.033" width="62.0656" height="62.0656" rx="20" transform="rotate(-30 514 262.033)" fill="#C5D1E3" fill-opacity="0.5"/>
<path opacity="0.5" d="M78.6381 328.777C76.9315 318.786 88.5747 312.064 96.3735 318.537L109.037 329.048C111.489 331.084 114.708 331.946 117.849 331.409L134.072 328.638C144.062 326.932 150.784 338.575 144.311 346.374L133.8 359.037C131.765 361.489 130.902 364.708 131.439 367.849L134.21 384.072C135.917 394.062 124.273 400.784 116.475 394.311L103.811 383.8C101.359 381.765 98.1403 380.902 94.9992 381.439L78.7765 384.21C68.7859 385.917 62.0637 374.273 68.537 366.475L79.0483 353.811C81.0835 351.359 81.9459 348.14 81.4094 344.999L78.6381 328.777Z" fill="#988DD8"/>
<path opacity="0.5" d="M409.674 208.429C409.674 202.151 416.471 198.226 421.909 201.366L458.612 222.556C464.049 225.696 464.049 233.544 458.612 236.683L421.909 257.874C416.471 261.013 409.674 257.089 409.674 250.81L409.674 208.429Z" fill="#D4EB7A"/>
<mask id="mask0" mask-type="alpha" maskUnits="userSpaceOnUse" x="213" y="319" width="192" height="192">
<rect width="150.965" height="150.972" rx="20" transform="matrix(0.872941 -0.487826 0.487757 0.87298 206.495 386.4)" fill="#F3A5A5"/>
</mask>
<g mask="url(#mask0)">
<path d="M267.725 496.759L293.107 411.823L297.758 419.515L305.529 432.662L325.422 415.669L332.73 419.515L310.525 490.954L305.261 505.608L278 523L267.725 496.759Z" fill="black" fill-opacity="0.08"/>
</g>
<g clip-path="url(#clip1)">
<path d="M332.434 421.877L308.084 435.937C307.223 436.434 306.199 436.569 305.239 436.311C304.279 436.054 303.46 435.425 302.963 434.564L291.716 415.082C290.675 413.28 291.286 411.001 293.088 409.96L302.828 404.336L307.949 405.709L319.313 399.147C320.174 398.65 321.197 398.515 322.157 398.773C323.118 399.03 323.937 399.659 324.434 400.52L296.837 416.454L306.209 432.69L302.185 417.696L329.896 401.695L334.161 417.632C334.603 419.26 333.928 421.014 332.434 421.877Z" fill="white"/>
</g>
<g clip-path="url(#clip2)">
<path d="M290.171 265.873C293.851 263.803 295.162 259.125 293.092 255.444C291.022 251.763 286.344 250.453 282.663 252.522C278.982 254.592 277.672 259.271 279.742 262.951C281.811 266.632 286.49 267.943 290.171 265.873Z" fill="#F28556"/>
<path d="M300.947 264.071C300.944 264.071 300.937 264.072 300.934 264.073C299.945 264.35 297.074 265.474 297.074 265.474C296.722 265.551 296.49 265.89 296.549 266.248L298.724 279.492C298.85 280.256 297.953 280.761 297.365 280.257L287.178 271.518C286.956 271.327 286.645 271.304 286.403 271.44C286.346 271.473 283.825 273.395 283.041 274.134C280.9 276.153 280.706 279.484 282.141 282.036L287.284 291.182C288.055 292.552 289.791 293.038 291.162 292.268L312.208 280.433C313.578 279.662 314.065 277.926 313.294 276.555L308.133 267.379C306.705 264.839 303.805 263.502 300.947 264.071Z" fill="#F28556"/>
<path d="M293.052 267.46C292.794 267.376 292.511 267.42 292.274 267.553L290.511 268.545C290.274 268.678 290.09 268.897 290.028 269.161C289.932 269.57 290.115 269.979 290.462 270.185L292.204 271.076L293.857 275.048L296.026 276.871C296.242 277.056 296.57 276.871 296.524 276.591L296.093 273.79L293.558 270.315L293.702 268.363C293.706 267.96 293.451 267.591 293.052 267.46Z" fill="#F28556"/>
</g>
<defs>
<clipPath id="clip0">
<rect width="50" height="50" fill="white" transform="translate(575.967 355.122) rotate(-30.2051)"/>
</clipPath>
<clipPath id="clip1">
<rect width="44.9889" height="44.991" fill="white" transform="matrix(0.866005 -0.500035 0.499965 0.866045 282.845 407.216)"/>
</clipPath>
<clipPath id="clip2">
<rect width="50" height="50" fill="white" transform="translate(258 259.508) rotate(-29.3512)"/>
</clipPath>
</defs>
</svg>
