<svg width="805" height="327" viewBox="0 0 805 327" fill="none" xmlns="http://www.w3.org/2000/svg">
<rect opacity="0.5" x="536.295" y="302.062" width="171.08" height="171.08" rx="20" transform="rotate(-30 536.295 302.062)" fill="#C5D1E3"/>
<rect opacity="0.5" x="404" y="65.3236" width="70.6472" height="70.6472" rx="20" transform="rotate(-30 404 65.3236)" fill="#C5D1E3"/>
<rect x="146" y="168.461" width="171.851" height="171.851" rx="26.8551" transform="rotate(-29.1955 146 168.461)" fill="url(#paint0_linear)"/>
<rect x="146" y="168.461" width="171.851" height="171.851" rx="26.8551" transform="rotate(-29.1955 146 168.461)" fill="#A6BFE3"/>
<mask id="mask0" mask-type="alpha" maskUnits="userSpaceOnUse" x="146" y="84" width="234" height="235">
<rect x="146" y="168.461" width="171.851" height="171.851" rx="26.8551" transform="rotate(-29.1955 146 168.461)" fill="url(#paint1_linear)"/>
</mask>
<g mask="url(#mask0)">
<path d="M204.977 300.034L232.504 194.628L238.546 191.943L253.988 205.37L277.486 199.999L286.885 210.741L258.687 304.734L244.588 318.833L229.818 322.19L204.977 300.034Z" fill="black" fill-opacity="0.08"/>
</g>
<g clip-path="url(#clip0)">
<path d="M276.661 178.234C275.924 177.809 275.089 177.581 274.238 177.574C273.387 177.567 272.549 177.781 271.806 178.195L244.517 193.95L240.499 189.845C240.106 189.453 239.591 189.204 239.038 189.141C238.486 189.078 237.928 189.204 237.456 189.499L233.192 191.96C232.627 192.287 232.214 192.825 232.045 193.455C231.876 194.086 231.965 194.758 232.291 195.323C232.618 195.889 233.156 196.301 233.786 196.47C234.417 196.639 235.089 196.551 235.654 196.224L238.298 194.698L256.81 213.174C257.204 213.567 257.719 213.815 258.271 213.878C258.824 213.941 259.381 213.815 259.853 213.521L279.04 202.443C279.433 202.215 279.755 201.882 279.971 201.482C280.186 201.081 280.287 200.629 280.261 200.175L279.179 182.153C279.115 181.342 278.852 180.561 278.413 179.877C277.973 179.193 277.371 178.629 276.661 178.234Z" fill="white"/>
<path d="M264.941 224.796C266.708 223.776 267.313 221.518 266.293 219.752C265.273 217.985 263.015 217.38 261.249 218.4C259.483 219.42 258.878 221.678 259.897 223.444C260.917 225.21 263.175 225.815 264.941 224.796Z" fill="white"/>
<path d="M286.26 212.487C288.027 211.468 288.632 209.209 287.612 207.443C286.592 205.677 284.334 205.072 282.568 206.092C280.802 207.111 280.197 209.37 281.216 211.136C282.236 212.902 284.494 213.507 286.26 212.487Z" fill="white"/>
</g>
<rect opacity="0.5" x="486" y="189.488" width="88.9767" height="88.9767" rx="20" transform="rotate(-30 486 189.488)" fill="#C5D1E3"/>
<rect opacity="0.5" x="54" y="144.112" width="54.2232" height="54.2232" rx="20" transform="rotate(-30 54 144.112)" fill="#C5D1E3"/>
<rect opacity="0.5" x="369.613" y="179.116" width="70.6472" height="70.6472" rx="20" transform="rotate(-30 369.613 179.116)" fill="white"/>
<rect opacity="0.5" x="345.984" y="305.137" width="126.307" height="126.307" rx="20" transform="rotate(-30 345.984 305.137)" fill="#C5D1E3"/>
<rect x="683.456" y="99.791" width="88.9767" height="88.9767" rx="20" transform="rotate(-30 683.456 99.791)" fill="white" fill-opacity="0.16"/>
<rect opacity="0.5" x="171" y="35.3236" width="70.6472" height="70.6472" rx="20" transform="rotate(-30 171 35.3236)" fill="#C5D1E3"/>
<rect opacity="0.5" x="79" y="244.958" width="70.6472" height="70.6472" rx="20" transform="rotate(-30 79 244.958)" fill="#FCFCFC"/>
<path opacity="0.5" fill-rule="evenodd" clip-rule="evenodd" d="M14.1108 285.949C6.31763 290.448 3.64748 300.414 8.14688 308.207L20.9491 330.381C25.4485 338.174 35.4136 340.844 43.2068 336.345L65.381 323.543C73.1742 319.043 75.8443 309.078 71.3449 301.285L58.5427 279.111C54.0433 271.318 44.0781 268.647 36.285 273.147L14.1108 285.949ZM32.4928 296.838C28.5962 299.088 27.2611 304.071 29.5108 307.967L31.8385 311.999C34.0882 315.896 39.0707 317.231 42.9673 314.981L46.999 312.653C50.8956 310.404 52.2307 305.421 49.981 301.524L47.6533 297.493C45.4036 293.596 40.421 292.261 36.5244 294.511L32.4928 296.838Z" fill="#29278C"/>
<path opacity="0.5" d="M627.299 109.749C627.299 102.602 635.036 98.1357 641.225 101.709L683.003 125.83C689.192 129.403 689.192 138.336 683.003 141.91L641.225 166.03C635.036 169.604 627.299 165.137 627.299 157.99L627.299 109.749Z" fill="#F1C060"/>
<g clip-path="url(#clip1)">
<path d="M423.328 205.936C423.896 205.702 424.462 205.422 425.042 205.087C425.605 204.762 426.148 204.402 426.625 204.009L431.469 205.982C431.685 206.062 431.922 206.066 432.14 205.992C432.358 205.917 432.543 205.769 432.664 205.573L436.551 198.818C436.67 198.617 436.714 198.379 436.675 198.148C436.636 197.917 436.517 197.707 436.338 197.555L432.218 194.319C432.378 193.052 432.402 191.793 432.223 190.51L436.325 187.296C436.509 187.148 436.633 186.94 436.676 186.708C436.719 186.477 436.677 186.237 436.558 186.034L432.652 179.268C432.408 178.845 431.915 178.683 431.452 178.856L426.618 180.801C425.596 180.005 424.466 179.389 423.316 178.901L422.574 173.715C422.491 173.246 422.096 172.887 421.587 172.899L413.803 172.905C413.312 172.907 412.895 173.242 412.852 173.736L412.138 178.918C411.559 179.134 410.938 179.399 410.393 179.714C409.848 180.029 409.287 180.399 408.811 180.792L403.966 178.82C403.75 178.739 403.513 178.735 403.295 178.81C403.077 178.884 402.892 179.032 402.771 179.228L398.884 185.983C398.619 186.418 398.75 186.929 399.097 187.246L403.217 190.482C403.057 191.749 403.034 193.008 403.212 194.291L399.11 197.505C398.738 197.837 398.633 198.345 398.877 198.768L402.783 205.534C403.028 205.957 403.53 206.136 403.983 205.946L408.817 204C409.84 204.796 410.952 205.422 412.119 205.9L412.861 211.086C412.944 211.555 413.339 211.914 413.849 211.902L421.642 211.914C422.151 211.902 422.54 211.56 422.593 211.083L423.328 205.936ZM411.385 196.057C409.371 192.568 410.572 188.068 414.055 186.057C417.538 184.046 422.036 185.256 424.05 188.744C426.065 192.233 424.863 196.733 421.38 198.744C417.897 200.755 413.399 199.546 411.385 196.057Z" fill="#F3A5A5"/>
</g>
<g clip-path="url(#clip2)">
<path d="M115.986 243.812C115.411 244.144 114.992 244.69 114.821 245.33C114.649 245.971 114.739 246.653 115.071 247.227C115.402 247.801 115.948 248.22 116.589 248.392C117.229 248.564 117.911 248.474 118.486 248.142L122.816 245.642C123.39 245.311 123.809 244.765 123.981 244.124C124.152 243.484 124.062 242.801 123.731 242.227C123.399 241.653 122.853 241.234 122.213 241.062C121.572 240.891 120.89 240.981 120.316 241.312L115.986 243.812Z" fill="#988DD8"/>
<path fill-rule="evenodd" clip-rule="evenodd" d="M109.36 255.336C108.741 254.264 108.573 252.99 108.893 251.794C109.214 250.599 109.996 249.58 111.068 248.961C111.996 250.569 113.525 251.742 115.318 252.222C117.111 252.703 119.022 252.451 120.63 251.523L124.671 249.19C126.279 248.261 127.452 246.733 127.933 244.939C128.413 243.146 128.162 241.235 127.234 239.628C128.305 239.009 129.579 238.841 130.775 239.161C131.97 239.482 132.989 240.264 133.608 241.336L146.442 263.564C147.06 264.635 147.228 265.909 146.908 267.105C146.587 268.3 145.805 269.32 144.734 269.938L128.568 279.272C127.496 279.891 126.222 280.058 125.027 279.738C123.831 279.418 122.812 278.635 122.193 277.564L109.36 255.336ZM120.088 259.919C119.552 260.228 119.161 260.738 119.001 261.335C118.841 261.933 118.925 262.57 119.234 263.106C119.544 263.642 120.053 264.033 120.651 264.193C121.249 264.353 121.886 264.269 122.422 263.96L122.442 263.948C122.978 263.639 123.369 263.129 123.529 262.532C123.689 261.934 123.605 261.297 123.296 260.761C122.987 260.225 122.477 259.834 121.879 259.674C121.281 259.514 120.645 259.597 120.109 259.907L120.088 259.919ZM126.151 256.419C125.615 256.728 125.224 257.238 125.063 257.835C124.903 258.433 124.987 259.07 125.297 259.606C125.606 260.142 126.116 260.533 126.713 260.693C127.311 260.853 127.948 260.769 128.484 260.46L134.546 256.96C135.082 256.651 135.473 256.141 135.633 255.543C135.793 254.945 135.71 254.309 135.4 253.773C135.091 253.237 134.581 252.846 133.983 252.685C133.386 252.525 132.749 252.609 132.213 252.919L126.151 256.419ZM124.755 268.001C124.219 268.311 123.828 268.821 123.668 269.418C123.508 270.016 123.592 270.653 123.901 271.189C124.21 271.725 124.72 272.116 125.318 272.276C125.916 272.436 126.552 272.352 127.088 272.043L127.109 272.031C127.645 271.722 128.036 271.212 128.196 270.614C128.356 270.017 128.272 269.38 127.963 268.844C127.653 268.308 127.144 267.917 126.546 267.757C125.948 267.597 125.311 267.68 124.775 267.99L124.755 268.001ZM130.817 264.501C130.281 264.811 129.89 265.321 129.73 265.918C129.57 266.516 129.654 267.153 129.963 267.689C130.273 268.225 130.782 268.616 131.38 268.776C131.978 268.936 132.615 268.852 133.151 268.543L139.213 265.043C139.749 264.733 140.14 264.224 140.3 263.626C140.46 263.028 140.376 262.391 140.067 261.856C139.757 261.32 139.248 260.929 138.65 260.768C138.052 260.608 137.415 260.692 136.879 261.001L130.817 264.501Z" fill="#988DD8"/>
</g>
<defs>
<linearGradient id="paint0_linear" x1="315.001" y1="197.504" x2="162.558" y2="349.199" gradientUnits="userSpaceOnUse">
<stop stop-color="#6192DD"/>
<stop offset="1" stop-color="#332397"/>
</linearGradient>
<linearGradient id="paint1_linear" x1="315.001" y1="197.504" x2="162.558" y2="349.199" gradientUnits="userSpaceOnUse">
<stop stop-color="#6192DD"/>
<stop offset="1" stop-color="#332397"/>
</linearGradient>
<clipPath id="clip0">
<rect width="59.0811" height="59.0811" fill="white" transform="translate(223.104 189.257) rotate(-30)"/>
</clipPath>
<clipPath id="clip1">
<rect width="50" height="50" fill="white" transform="translate(384 183) rotate(-30)"/>
</clipPath>
<clipPath id="clip2">
<rect width="50" height="50" fill="white" transform="translate(93 249) rotate(-30)"/>
</clipPath>
</defs>
</svg>
