<svg width="1107" height="524" viewBox="0 0 1107 524" fill="none" xmlns="http://www.w3.org/2000/svg">
<rect x="715.159" y="436.387" width="194.05" height="194.05" rx="20" transform="rotate(-30 715.159 436.387)" fill="#C5D1E3" fill-opacity="0.5"/>
<rect x="378.637" y="242.007" width="80.1328" height="80.1328" rx="20" transform="rotate(-30 378.637 242.007)" fill="white"/>
<rect x="896.426" y="312.66" width="100.923" height="100.923" rx="20" transform="rotate(-30 896.426 312.66)" fill="#C5D1E3" fill-opacity="0.5"/>
<rect x="408.964" y="537.382" width="80.1328" height="80.1328" rx="20" transform="rotate(-30 408.964 537.382)" fill="#C5D1E3" fill-opacity="0.5"/>
<rect x="653.985" y="313.644" width="100.923" height="100.923" rx="20" transform="rotate(-30 653.985 313.644)" fill="#C5D1E3" fill-opacity="0.5"/>
<rect x="584" y="511.462" width="100.923" height="100.923" rx="20" transform="rotate(-30 584 511.462)" fill="#C5D1E3" fill-opacity="0.5"/>
<rect x="290.428" y="432.996" width="100.923" height="100.923" rx="20" transform="rotate(-30 290.428 432.996)" fill="#C5D1E3" fill-opacity="0.5"/>
<rect x="577" y="209.421" width="60.8414" height="60.8414" rx="20" transform="rotate(-30 577 209.421)" fill="#C5D1E3" fill-opacity="0.5"/>
<rect x="992" y="471.421" width="60.8414" height="60.8414" rx="20" transform="rotate(-30 992 471.421)" fill="white"/>
<path opacity="0.5" d="M810.492 248.738C812.04 245.26 815.651 243.175 819.437 243.573L857.075 247.529C860.86 247.927 863.959 250.717 864.751 254.44L872.619 291.459C873.41 295.182 871.714 298.991 868.418 300.895L835.643 319.817C832.346 321.72 828.199 321.285 825.37 318.737L797.246 293.414C794.417 290.867 793.55 286.788 795.099 283.311L810.492 248.738Z" fill="#F3A5A5"/>
<rect x="465.479" y="364.786" width="121.585" height="121.585" rx="20" transform="rotate(-29.1955 465.479 364.786)" fill="#F1C060"/>
<mask id="mask0" mask-type="alpha" maskUnits="userSpaceOnUse" x="472" y="312" width="152" height="152">
<rect x="465.479" y="364.786" width="121.585" height="121.585" rx="20" transform="rotate(-29.1955 465.479 364.786)" fill="#F1C060"/>
</mask>
<g mask="url(#mask0)">
<path d="M515.311 460.031L534.786 385.456L539.061 383.556L549.986 393.056L552.361 391.156L559.011 398.756L543.336 457.656L533.361 467.631L522.911 470.006L515.311 460.031Z" fill="black" fill-opacity="0.08"/>
</g>
<g clip-path="url(#clip0)">
<path d="M550.332 372.829C547.878 374.245 546.818 377.252 546.381 379.156C544.514 378.583 541.385 377.994 538.932 379.41C534.704 381.851 533.5 386.582 536.001 390.914C538.757 395.688 544.204 396.657 549.474 397.594C551.962 398.038 554.537 398.495 556.799 399.344C557.178 399.485 557.596 399.452 557.941 399.253L558.009 399.214C558.354 399.015 558.59 398.669 558.657 398.271C559.055 395.886 559.944 393.428 560.806 391.051C562.629 386.021 564.516 380.818 561.759 376.043C559.257 371.711 554.558 370.388 550.332 372.829Z" fill="white"/>
</g>
<g clip-path="url(#clip1)">
<path d="M459.764 264.014L442.688 259.438L459.764 264.014ZM441.088 248.334C442.046 249.992 442.667 251.823 442.917 253.722C443.167 255.621 443.041 257.55 442.545 259.4C442.05 261.25 441.194 262.984 440.029 264.503C438.863 266.023 437.409 267.297 435.75 268.255C434.092 269.213 432.261 269.834 430.362 270.084C428.464 270.334 426.534 270.208 424.684 269.712C422.835 269.216 421.1 268.361 419.581 267.195C418.062 266.029 416.787 264.576 415.829 262.917C413.895 259.568 413.371 255.587 414.372 251.851C415.373 248.115 417.818 244.93 421.167 242.996C424.517 241.062 428.497 240.538 432.233 241.539C435.969 242.54 439.154 244.984 441.088 248.334Z" stroke="#988DD8" stroke-width="8" stroke-linecap="round" stroke-linejoin="round"/>
</g>
<g clip-path="url(#clip2)">
<path d="M1017.7 492.651C1015.18 488.287 1014.49 483.1 1015.8 478.233C1017.1 473.366 1020.29 469.216 1024.65 466.696L1034.15 483.151L1050.61 473.651C1053.12 478.015 1053.81 483.201 1052.5 488.068C1051.2 492.936 1048.01 497.086 1043.65 499.605C1039.29 502.125 1034.1 502.807 1029.23 501.503C1024.37 500.199 1020.22 497.015 1017.7 492.651Z" fill="#F5DF68"/>
<path d="M1028.8 463.876C1032.24 462.922 1035.88 462.907 1039.33 463.832C1042.78 464.757 1045.92 466.588 1048.43 469.135L1035.98 476.32L1028.8 463.876Z" fill="#F5DF68"/>
</g>
<defs>
<clipPath id="clip0">
<rect width="35.15" height="36.1" fill="white" transform="translate(526.711 380.231) rotate(-30)"/>
</clipPath>
<clipPath id="clip1">
<rect width="50" height="50" fill="white" transform="translate(400 248) rotate(-30)"/>
</clipPath>
<clipPath id="clip2">
<rect width="50" height="50" fill="white" transform="translate(1000 474) rotate(-30)"/>
</clipPath>
</defs>
</svg>
