<svg width="962" height="524" viewBox="0 0 962 524" fill="none" xmlns="http://www.w3.org/2000/svg">
<rect x="179.585" y="398.619" width="160.622" height="160.622" rx="20" transform="rotate(-30 179.585 398.619)" fill="#76CB9E"/>
<mask id="mask0" mask-type="alpha" maskUnits="userSpaceOnUse" x="180" y="318" width="220" height="220">
<rect x="180" y="398.311" width="160.622" height="160.622" rx="20" transform="rotate(-30 180 398.311)" fill="#76CB9E"/>
</mask>
<g mask="url(#mask0)">
<path d="M245 516.057L263.5 453.5L276.5 415L278.5 418.5L290.5 413L285.5 422L293.5 435L312.5 440L288.359 519.851L276.977 531.232L265.053 533.942L250 528.5L245 516.057Z" fill="black" fill-opacity="0.08"/>
</g>
<rect x="600" y="440.311" width="160.622" height="160.622" rx="20" transform="rotate(-30 600 440.311)" fill="#C5D1E3" fill-opacity="0.5"/>
<rect x="241.288" y="236.917" width="83.538" height="83.538" rx="20" transform="rotate(-30 241.288 236.917)" fill="#C5D1E3" fill-opacity="0.5"/>
<rect x="491" y="218.164" width="66.3289" height="66.3289" rx="20" transform="rotate(-30 491 218.164)" fill="#C5D1E3" fill-opacity="0.5"/>
<rect x="604" y="308.769" width="83.538" height="83.538" rx="20" transform="rotate(-30 604 308.769)" fill="#C5D1E3" fill-opacity="0.5"/>
<rect x="456" y="464.769" width="83.538" height="83.538" rx="20" transform="rotate(-30 456 464.769)" fill="#C5D1E3" fill-opacity="0.5"/>
<rect x="348.919" y="531.273" width="66.3289" height="66.3289" rx="20" transform="rotate(-30 348.919 531.273)" fill="#C5D1E3" fill-opacity="0.5"/>
<rect x="841" y="469.769" width="83.538" height="83.538" rx="20" transform="rotate(-30 841 469.769)" fill="white"/>
<rect x="407" y="329.769" width="83.538" height="83.538" rx="20" transform="rotate(-30 407 329.769)" fill="white"/>
<rect opacity="0.5" x="774" y="363.164" width="66.3289" height="66.3289" rx="20" transform="rotate(-30 774 363.164)" fill="#F5DF68"/>
<g clip-path="url(#clip0)">
<path d="M287.296 454.813L312.43 440.301L308.802 434.018C307.453 431.687 305.234 429.987 302.633 429.29C300.031 428.593 297.26 428.956 294.926 430.3L287.386 434.653C285.055 436.002 283.355 438.221 282.658 440.822C281.961 443.424 282.324 446.195 283.668 448.529L287.296 454.813Z" fill="white"/>
<path d="M275.829 426.245C276.833 427.985 278.331 429.388 280.133 430.276C281.935 431.165 283.96 431.499 285.952 431.237C287.944 430.975 289.813 430.128 291.323 428.803C292.834 427.479 293.918 425.736 294.438 423.795C294.958 421.855 294.89 419.803 294.245 417.901C293.599 415.999 292.403 414.33 290.81 413.107C289.216 411.884 287.295 411.161 285.29 411.03C283.285 410.899 281.287 411.365 279.547 412.369C277.214 413.716 275.511 415.935 274.814 418.537C274.117 421.139 274.482 423.912 275.829 426.245Z" fill="white"/>
</g>
<path opacity="0.5" fill-rule="evenodd" clip-rule="evenodd" d="M380.738 219.849C371.494 225.186 368.327 237.007 373.664 246.251L388.849 272.554C394.187 281.798 406.007 284.965 415.251 279.628L441.554 264.442C450.798 259.105 453.965 247.285 448.628 238.04L433.442 211.738C428.105 202.494 416.285 199.327 407.04 204.664L380.738 219.849ZM402.542 232.766C397.92 235.435 396.337 241.345 399.005 245.967L401.766 250.749C404.435 255.371 410.345 256.955 414.967 254.286L419.749 251.525C424.371 248.857 425.955 242.947 423.286 238.325L420.525 233.542C417.857 228.92 411.947 227.337 407.325 230.005L402.542 232.766Z" fill="#F1C060"/>
<path opacity="0.5" d="M790.3 281.604C787.181 276.201 789.032 269.294 794.435 266.175L809.806 257.3C815.208 254.181 822.116 256.032 825.235 261.434L834.11 276.805C837.229 282.208 835.378 289.116 829.975 292.235L814.604 301.109C809.202 304.228 802.294 302.377 799.175 296.975L790.3 281.604Z" fill="#707070"/>
<path opacity="0.5" d="M572.478 378.145C576.639 378.144 579.239 382.648 577.158 386.251L563.11 410.575C561.028 414.178 555.827 414.179 553.747 410.576L539.706 386.257C537.626 382.655 540.228 378.15 544.389 378.15L572.478 378.145Z" fill="#F3A5A5"/>
<g clip-path="url(#clip1)">
<path fill-rule="evenodd" clip-rule="evenodd" d="M446.424 333.446C445.878 333.761 445.48 334.28 445.317 334.888C445.154 335.497 445.239 336.145 445.554 336.69L446.742 338.747L444.685 339.935C443.594 340.565 442.798 341.602 442.472 342.819C442.146 344.036 442.316 345.332 442.946 346.423L454.821 366.992C455.451 368.083 456.489 368.879 457.706 369.205C458.922 369.531 460.219 369.36 461.31 368.73L485.992 354.48C487.083 353.85 487.879 352.813 488.205 351.596C488.531 350.379 488.36 349.083 487.73 347.992L475.855 327.423C475.225 326.332 474.188 325.536 472.971 325.21C471.754 324.884 470.458 325.055 469.367 325.685L467.31 326.872L466.122 324.815C465.807 324.27 465.289 323.872 464.68 323.709C464.072 323.546 463.424 323.631 462.878 323.946C462.333 324.261 461.934 324.78 461.771 325.388C461.608 325.997 461.694 326.645 462.009 327.19L463.196 329.247L450.855 336.372L449.668 334.315C449.353 333.77 448.834 333.372 448.226 333.209C447.617 333.046 446.969 333.131 446.424 333.446ZM452.361 343.73C451.816 344.045 451.417 344.564 451.254 345.172C451.091 345.781 451.177 346.429 451.492 346.975C451.807 347.52 452.325 347.918 452.934 348.081C453.542 348.244 454.191 348.159 454.736 347.844L471.191 338.344C471.736 338.029 472.134 337.51 472.297 336.902C472.46 336.293 472.375 335.645 472.06 335.1C471.745 334.554 471.226 334.156 470.618 333.993C470.009 333.83 469.361 333.915 468.816 334.23L452.361 343.73Z" fill="#F1C060"/>
</g>
<g clip-path="url(#clip2)">
<path fill-rule="evenodd" clip-rule="evenodd" d="M907.651 501.605C912.015 499.086 915.199 494.936 916.503 490.068C917.808 485.201 917.125 480.015 914.605 475.651C912.086 471.287 907.936 468.102 903.068 466.798C898.201 465.494 893.015 466.177 888.651 468.696C884.287 471.216 881.102 475.366 879.798 480.233C878.494 485.1 879.177 490.287 881.696 494.651C884.216 499.015 888.366 502.199 893.233 503.503C898.101 504.807 903.287 504.125 907.651 501.605ZM895.458 475.736C895.143 475.19 894.624 474.792 894.015 474.629C893.407 474.466 892.759 474.552 892.213 474.867C891.668 475.182 891.27 475.7 891.107 476.309C890.944 476.917 891.029 477.565 891.344 478.111L896.094 486.338C896.409 486.884 896.928 487.281 897.536 487.444L906.712 489.905C907.014 489.986 907.328 490.006 907.637 489.965C907.947 489.925 908.245 489.823 908.515 489.667C908.786 489.511 909.023 489.304 909.213 489.056C909.403 488.809 909.542 488.526 909.623 488.225C909.703 487.923 909.724 487.609 909.683 487.299C909.643 486.99 909.541 486.692 909.385 486.421C909.229 486.151 909.021 485.914 908.774 485.724C908.526 485.534 908.244 485.395 907.942 485.314L899.716 483.112L895.458 475.736Z" fill="#F28556"/>
</g>
<defs>
<clipPath id="clip0">
<rect width="46.4358" height="46.4358" fill="white" transform="translate(257.988 421.465) rotate(-30)"/>
</clipPath>
<clipPath id="clip1">
<rect width="50" height="50" fill="white" transform="translate(430 336) rotate(-30)"/>
</clipPath>
<clipPath id="clip2">
<rect width="50" height="50" fill="white" transform="translate(864 476) rotate(-30)"/>
</clipPath>
</defs>
</svg>
