<svg width="245" height="320" fill="none" xmlns="http://www.w3.org/2000/svg"><rect x="119.346" y="208.115" width="127.984" height="127.984" rx="20" transform="rotate(-29.195 119.346 208.115)" fill="#F3A5A5"/><path d="M174.112 297.452l17.811-67.979 4.189 6.928 7 11.84 17.918-15.304 6.582 3.463-20 64.341-7.869 8.835-9.557 2.165-16.074-14.289z" fill="#000" fill-opacity=".08"/><g clip-path="url(#clip0)"><path d="M226.044 238.168l-20.569 11.875a3.166 3.166 0 01-4.325-1.159l-9.5-16.454a3.156 3.156 0 011.159-4.326l8.227-4.75 4.326 1.159 9.598-5.541a3.169 3.169 0 014.326 1.159l-23.311 13.458 7.917 13.712-3.399-12.664 23.407-13.514 3.603 13.461c.373 1.375-.198 2.856-1.459 3.584z" fill="#fff"/></g><rect opacity=".5" x=".5" y="193.863" width="52.851" height="52.851" rx="20" transform="rotate(-29.195 .5 193.863)" fill="#C5D1E3"/><rect opacity=".5" x="126.051" y="93.362" width="66.563" height="66.563" rx="20" transform="rotate(-29.195 126.051 93.362)" fill="#C5D1E3"/><rect opacity=".5" x="195.858" y="33.872" width="52.851" height="52.851" rx="20" transform="rotate(-29.195 195.858 33.872)" fill="#C5D1E3"/><rect opacity=".5" x="79.914" y="25.868" width="52.851" height="52.851" rx="20" transform="rotate(-29.195 79.914 25.868)" fill="#C5D1E3"/><rect x="48.169" y="141.393" width="66.563" height="66.563" rx="20" transform="rotate(-29.195 48.169 141.393)" fill="url(#paint0_linear)"/><rect x="48.169" y="141.393" width="66.563" height="66.563" rx="20" transform="rotate(-29.195 48.169 141.393)" fill="url(#paint1_linear)"/><rect x="48.169" y="141.393" width="66.563" height="66.563" rx="20" transform="rotate(-29.195 48.169 141.393)" fill="url(#paint2_radial)"/><rect x="48.169" y="141.393" width="66.563" height="66.563" rx="20" transform="rotate(-29.195 48.169 141.393)" fill="url(#paint3_linear)"/><rect x="48.169" y="141.393" width="66.563" height="66.563" rx="20" transform="rotate(-29.195 48.169 141.393)" fill="#fff"/><path d="M103.467 155.863c.062-.469.093-.953.093-1.469 0-.5-.031-1-.109-1.469l3.15-2.468a.768.768 0 00.186-.954l-2.979-5.187a.756.756 0 00-.915-.344l-3.709 1.5a10.934 10.934 0 00-2.513-1.469l-.559-3.968a.748.748 0 00-.745-.641H89.41c-.372 0-.667.266-.729.641l-.559 3.968c-.915.375-1.753.891-2.513 1.469l-3.709-1.5a.738.738 0 00-.915.344l-2.963 5.187c-.187.329-.125.735.186.954l3.15 2.468a9.24 9.24 0 00-.14 1.469c0 .484.03 1 .108 1.469l-3.15 2.469a.764.764 0 00-.185.953l2.979 5.187c.186.344.574.453.915.344l3.708-1.5a10.934 10.934 0 002.514 1.469l.559 3.968c.077.375.372.641.744.641h5.958a.726.726 0 00.73-.641l.558-3.968a10.616 10.616 0 002.514-1.469l3.708 1.5a.74.74 0 00.916-.344l2.979-5.187c.186-.344.108-.735-.187-.953l-3.118-2.469zm-11.079 4.156c-3.072 0-5.586-2.531-5.586-5.625s2.514-5.625 5.586-5.625c3.072 0 5.586 2.531 5.586 5.625s-2.514 5.625-5.586 5.625z" fill="#988DD8"/><defs><linearGradient id="paint0_linear" x1="113.628" y1="152.642" x2="54.582" y2="211.398" gradientUnits="userSpaceOnUse"><stop stop-color="#DDCD3C"/><stop offset="1" stop-color="#CE2EA1"/></linearGradient><linearGradient id="paint1_linear" x1="113.628" y1="152.642" x2="54.582" y2="211.398" gradientUnits="userSpaceOnUse"><stop stop-color="#4784E0"/><stop offset="1" stop-color="#355B95"/></linearGradient><linearGradient id="paint3_linear" x1="113.628" y1="152.642" x2="54.582" y2="211.398" gradientUnits="userSpaceOnUse"><stop stop-color="#6192DD"/><stop offset="1" stop-color="#332397"/></linearGradient><radialGradient id="paint2_radial" cx="0" cy="0" r="1" gradientUnits="userSpaceOnUse" gradientTransform="rotate(131.39 19.527 101.963) scale(67.5237 92.4623)"><stop stop-color="#11E4A5"/><stop offset="1" stop-color="#104087"/></radialGradient><clipPath id="clip0"><path fill="#fff" transform="rotate(-30 513.4 -230.749)" d="M0 0h38v38H0z"/></clipPath></defs></svg>