<svg width="300" height="303" fill="none" xmlns="http://www.w3.org/2000/svg"><rect x="-49.24" y="69.353" width="127.984" height="127.984" rx="20" transform="rotate(-29.195 -49.24 69.353)" fill="url(#paint0_linear)"/><rect x="-49.24" y="69.353" width="127.984" height="127.984" rx="20" transform="rotate(-29.195 -49.24 69.353)" fill="#A6BFE3"/><mask id="a" maskUnits="userSpaceOnUse" x="-43" y="14" width="161" height="160"><rect x="-49.24" y="69.352" width="127.984" height="127.984" rx="20" transform="rotate(-29.195 -49.24 69.352)" fill="url(#paint1_linear)"/></mask><g mask="url(#a)"><path d="M-5.318 167.34l20.5-78.5 4.5-2 11.5 10 17.5-4 7 8-21 70-10.5 10.5-11 2.5-18.5-16.5z" fill="#000" fill-opacity=".08"/></g><g clip-path="url(#clip0)" fill="#fff"><path d="M48.068 76.63a3.668 3.668 0 00-3.616-.029L24.129 88.334l-2.992-3.056a1.834 1.834 0 00-2.266-.259l-3.176 1.834a1.833 1.833 0 101.834 3.175l1.968-1.136 13.787 13.76a1.837 1.837 0 002.266.258l14.29-8.25a1.834 1.834 0 00.909-1.69l-.806-13.421a3.666 3.666 0 00-1.875-2.919zm-8.728 34.677a2.75 2.75 0 10-2.752-4.764 2.75 2.75 0 002.752 4.764zm15.877-9.167a2.75 2.75 0 10-2.75-4.763 2.75 2.75 0 002.75 4.763z"/></g><rect opacity=".5" x="150.003" y="101.575" width="66.563" height="66.563" rx="20" transform="rotate(-29.195 150.003 101.575)" fill="#C5D1E3"/><rect opacity=".5" x="102.956" y="26.648" width="52.851" height="52.851" rx="20" transform="rotate(-29.195 102.956 26.648)" fill="#C5D1E3"/><rect opacity=".5" x="47.154" y="206.969" width="66.563" height="66.563" rx="20" transform="rotate(-29.195 47.154 206.969)" fill="#C5D1E3"/><rect x="125" y="243.429" width="127.984" height="127.984" rx="20" transform="rotate(-29.195 125 243.429)" fill="#988DD8"/><path d="M179.392 351.291l20.5-78.5h14.736l7-11.768h3.5l16 37.5-21.736 56.268-10.5 10.5-11 2.5-18.5-16.5z" fill="#000" fill-opacity=".08"/><path d="M217.744 259.527l-3.677 12.285-12.41-2.782-5.219 16.566 4.551 1.02 3.677-12.285 12.41 2.782 5.218-16.566-4.55-1.02z" fill="#fff"/><path d="M226.638 262.778l-14.67-3.304 9.589-5.688 5.081 8.992z" fill="#fff"/><defs><linearGradient id="paint0_linear" x1="76.621" y1="90.982" x2="-36.909" y2="203.955" gradientUnits="userSpaceOnUse"><stop stop-color="#6192DD"/><stop offset="1" stop-color="#332397"/></linearGradient><linearGradient id="paint1_linear" x1="76.621" y1="90.981" x2="-36.909" y2="203.954" gradientUnits="userSpaceOnUse"><stop stop-color="#6192DD"/><stop offset="1" stop-color="#332397"/></linearGradient><clipPath id="clip0"><path fill="#fff" transform="rotate(-30 162.404 27.152)" d="M0 0h44v44H0z"/></clipPath></defs></svg>