<svg width="187" height="16" fill="none" xmlns="http://www.w3.org/2000/svg"><path d="M2 12.653c54.217-8.687 109.089-7 163.833-7 5.919 0 23.658-.114 17.75-.472-7.881-.478-15.915-.028-23.805-.028-26.13 0-52.26-.051-78.39 0-11.732.023-24.273-1.005-35.832 1.472-.705.151-7.861 1.254-5.084.222 7.621-2.83 15.823-3.34 23.861-3.805 10.067-.582 20.14-.843 30.223-.89 2.666-.012 5.333-.017 8 0 .538.004 1.741-.41 1.611.112-.354 1.413-19.355 1.544-20.806 1.639-19.102 1.254-38.896 2.65-57.444 7.639-.836.224-6.39 1.92-6.195 1.777 5.163-3.754 13.898-3.41 19.89-3.888 26.097-2.086 52.372-1.278 78.527-1.278h38.167c3.483 0 6.934-.445 10.416-.5 3.017-.048 6.473.122 9.278-1" stroke="#8BA6CD" stroke-width="4" stroke-linecap="round" stroke-linejoin="round"/></svg>