<svg width="51" height="50" fill="none" xmlns="http://www.w3.org/2000/svg"><path d="M6.876 27.429c0-.644.25-1.262.696-1.718A2.349 2.349 0 019.25 25H14c.63 0 1.234.256 1.68.711a2.46 2.46 0 01.695 1.718V39.57c0 .645-.25 1.262-.696 1.718a2.349 2.349 0 01-1.679.711H9.25c-.63 0-1.234-.256-1.68-.711a2.457 2.457 0 01-.695-1.718V27.43zm14.25-9.715c0-.644.25-1.261.696-1.717a2.349 2.349 0 011.679-.711h4.75c.63 0 1.234.256 1.68.711.445.456.695 1.073.695 1.717v21.857c0 .645-.25 1.262-.696 1.718a2.349 2.349 0 01-1.679.711h-4.75c-.63 0-1.234-.256-1.68-.711a2.457 2.457 0 01-.695-1.718V17.714zm14.25-7.285c0-.645.25-1.262.696-1.718A2.349 2.349 0 0137.75 8h4.75c.63 0 1.234.256 1.68.711.445.456.695 1.073.695 1.718V39.57c0 .645-.25 1.262-.696 1.718a2.349 2.349 0 01-1.679.711h-4.75c-.63 0-1.234-.256-1.68-.711a2.457 2.457 0 01-.695-1.718V10.43z" fill="#F28556"/></svg>