<svg width="50" height="50" fill="none" xmlns="http://www.w3.org/2000/svg"><path d="M22.59 39.527c.61.082 1.24.122 1.91.122.65 0 1.3-.04 1.91-.142l3.209 4.13a.996.996 0 001.239.244l6.744-3.906a.992.992 0 00.446-1.2l-1.95-4.863c.772-1.018 1.422-2.096 1.91-3.296l5.16-.733a.982.982 0 00.832-.976v-7.814c0-.488-.345-.874-.833-.956l-5.16-.732c-.487-1.2-1.157-2.3-1.909-3.296l1.95-4.863a.972.972 0 00-.446-1.2l-6.744-3.887c-.427-.244-.955-.162-1.24.245l-3.209 4.13a11.87 11.87 0 00-1.909-.183c-.63 0-1.3.04-1.91.142l-3.209-4.13a.995.995 0 00-1.239-.244l-6.744 3.906c-.446.244-.589.753-.446 1.2l1.95 4.863c-.772 1.018-1.422 2.096-1.91 3.296l-5.16.733c-.487.102-.832.488-.832.976v7.814c0 .488.345.895.833.956l5.16.732c.487 1.2 1.137 2.3 1.909 3.296l-1.95 4.863a.972.972 0 00.446 1.2l6.744 3.907c.447.244.955.142 1.24-.244l3.209-4.09zM17.189 25c0-4.029 3.29-7.325 7.312-7.325s7.313 3.296 7.313 7.325-3.291 7.325-7.313 7.325-7.313-3.297-7.313-7.325z" fill="#F3A5A5"/></svg>