<svg width="51" height="51" fill="none" xmlns="http://www.w3.org/2000/svg"><path fill-rule="evenodd" clip-rule="evenodd" d="M43.858 15.5a3.955 3.955 0 00-1.403-1.448 3.839 3.839 0 00-1.918-.551H15.532L14.4 8.98a2.002 2.002 0 00-.724-1.09 1.922 1.922 0 00-1.23-.39H8.54a1.93 1.93 0 00-1.381.585A2.024 2.024 0 006.586 9.5c0 .53.206 1.039.573 1.414a1.93 1.93 0 001.38.586h2.423l5.392 20.52c.114.436.37.82.724 1.088.355.27.788.407 1.23.392h17.58a1.92 1.92 0 001.022-.3c.307-.193.555-.47.717-.8l6.408-13.12a4.083 4.083 0 00-.176-3.78zm-26.528 28c1.618 0 2.93-1.343 2.93-3 0-1.656-1.312-3-2.93-3-1.619 0-2.93 1.344-2.93 3 0 1.657 1.311 3 2.93 3zm22.465-3c0 1.657-1.312 3-2.93 3-1.619 0-2.93-1.343-2.93-3 0-1.656 1.311-3 2.93-3 1.618 0 2.93 1.344 2.93 3z" fill="#8BA6CD"/></svg>