<svg width="51" height="50" fill="none" xmlns="http://www.w3.org/2000/svg"><path d="M39.654 41.548h-2.342V11.516c0-.677-.532-1.226-1.188-1.226h-8.911V7.226c0-.677-.532-1.226-1.189-1.226h-8.242c-.656 0-1.188.549-1.188 1.226v3.064h-.966c-.656 0-1.188.55-1.188 1.226v30.032h-2.343c-.64 0-1.19.508-1.22 1.167-.032.704.512 1.285 1.187 1.285h8.465a.604.604 0 00.595-.613V36.34h-.487c-.64 0-1.19-.508-1.22-1.167-.032-.704.511-1.285 1.187-1.285h10.51c.64 0 1.19.507 1.221 1.167.032.703-.511 1.285-1.187 1.285h-.52v7.048c0 .339.266.613.595.613h8.465c.675 0 1.218-.58 1.187-1.285a1.226 1.226 0 00-1.22-1.167zM22.98 31.358h-1.337c-.656 0-1.188-.548-1.188-1.225s.532-1.226 1.188-1.226h1.337c.656 0 1.188.55 1.188 1.226 0 .677-.532 1.226-1.188 1.226zm0-4.596h-1.337c-.656 0-1.188-.549-1.188-1.226 0-.677.532-1.226 1.188-1.226h1.337c.656 0 1.188.55 1.188 1.226 0 .677-.532 1.226-1.188 1.226zm0-4.597h-1.337c-.656 0-1.188-.549-1.188-1.226 0-.676.532-1.225 1.188-1.225h1.337c.656 0 1.188.549 1.188 1.226 0 .676-.532 1.225-1.188 1.225zm0-4.596h-1.337c-.656 0-1.188-.55-1.188-1.226 0-.677.532-1.226 1.188-1.226h1.337c.656 0 1.188.549 1.188 1.226 0 .677-.532 1.226-1.188 1.226zm7.054 13.79h-1.336c-.657 0-1.188-.549-1.188-1.226 0-.677.531-1.226 1.188-1.226h1.336c.657 0 1.189.55 1.189 1.226 0 .677-.532 1.226-1.189 1.226zm0-4.597h-1.336c-.657 0-1.188-.549-1.188-1.226 0-.677.531-1.226 1.188-1.226h1.336c.657 0 1.189.55 1.189 1.226 0 .677-.532 1.226-1.189 1.226zm0-4.597h-1.336c-.657 0-1.188-.549-1.188-1.226 0-.676.531-1.225 1.188-1.225h1.336c.657 0 1.189.549 1.189 1.226 0 .676-.532 1.225-1.189 1.225zm0-4.596h-1.336c-.657 0-1.188-.55-1.188-1.226 0-.677.531-1.226 1.188-1.226h1.336c.657 0 1.189.549 1.189 1.226 0 .677-.532 1.226-1.189 1.226zM23.5 43.386v-6.435c0-.339.266-.613.594-.613h3.564c.328 0 .594.274.594.613v6.435a.604.604 0 01-.594.613h-3.564a.604.604 0 01-.594-.613z" fill="#F1C060"/></svg>