<svg width="50" height="50" fill="none" xmlns="http://www.w3.org/2000/svg"><path d="M42.229 12.004l-4.912-4.906A3.727 3.727 0 0034.675 6c-1 0-1.942.392-2.647 1.098l-5.285 5.285a3.727 3.727 0 00-1.098 2.642c0 1 .392 1.941 1.098 2.647l3.864 3.865a18.165 18.165 0 01-3.712 5.354 18.233 18.233 0 01-5.354 3.726l-3.864-3.865a3.727 3.727 0 00-2.643-1.097c-1 0-1.941.392-2.647 1.097l-5.29 5.28A3.73 3.73 0 006 34.68c0 1 .392 1.941 1.098 2.647L12 42.229A6.06 6.06 0 0016.275 44c.336 0 .66-.028.977-.083 6.217-1.024 12.382-4.33 17.358-9.302 4.971-4.967 8.273-11.128 9.311-17.363a6.07 6.07 0 00-1.692-5.248z" fill="#F28556"/></svg>