<svg width="51" height="50" fill="none" xmlns="http://www.w3.org/2000/svg"><path d="M6.876 8.714A2.714 2.714 0 019.59 6h32.572a2.714 2.714 0 012.714 2.714v5.429a2.714 2.714 0 01-2.714 2.714H9.59a2.714 2.714 0 01-2.714-2.714V8.714zm0 16.286a2.714 2.714 0 012.714-2.714h16.286A2.715 2.715 0 0128.59 25v16.286A2.714 2.714 0 0125.876 44H9.59a2.714 2.714 0 01-2.714-2.714V25zm29.857-2.714A2.715 2.715 0 0034.02 25v16.286A2.714 2.714 0 0036.733 44h5.429a2.714 2.714 0 002.714-2.714V25a2.714 2.714 0 00-2.714-2.714h-5.429z" fill="#F1C060"/></svg>