<svg width="50" height="50" fill="none" xmlns="http://www.w3.org/2000/svg"><path d="M43.49 33.949c4.614-8.92-1.912-19.477-11.849-19.477-7.351 0-13.34 5.946-13.34 13.34 0 10.079 10.666 16.365 19.433 11.87l5.244.995a1.201 1.201 0 001.408-1.378l-.897-5.35zm-10.608-.278v.62a1.2 1.2 0 01-2.4 0v-.58a3.663 3.663 0 01-1.982-1.579 1.2 1.2 0 112.057-1.24c.648 1.076 2.306.615 2.306-.638 0-.684-.557-1.241-1.242-1.241-1.913 0-3.602-1.595-3.602-3.642a3.65 3.65 0 012.381-3.418v-.62a1.2 1.2 0 012.401 0v.581a3.664 3.664 0 011.98 1.578 1.2 1.2 0 01-2.056 1.24c-.648-1.075-2.305-.615-2.305.639 0 .617.454 1.215 1.28 1.243a3.646 3.646 0 013.564 3.64 3.648 3.648 0 01-2.382 3.417z" fill="#F1C060"/><path d="M30.018 12.154C24.8 6.661 16.15 6.655 10.906 11.901c-4.26 4.259-4.989 10.596-2.415 15.57l-.897 5.35a1.201 1.201 0 001.408 1.378l5.243-.995c.968.496 1.996.87 3.055 1.116-4.381-9.644 1.927-21.067 12.718-22.166z" fill="#F1C060"/></svg>