<svg width="104" height="29" fill="none" xmlns="http://www.w3.org/2000/svg"><g clip-path="url(#clip0)"><path d="M36.368 9.99C34.17 4.153 28.57 0 22.01 0 15.45 0 9.849 4.147 7.65 9.986 3.539 11.073.5 14.843.5 19.333.5 24.674 4.795 29 10.093 29h23.814c5.298 0 9.593-4.326 9.593-9.667 0-4.48-3.028-8.25-7.132-9.342z" fill="#4856B7"/></g><path d="M62.08 21h-5.26V7.66h5.26c2.093 0 3.793.613 5.1 1.84 1.32 1.227 1.98 2.84 1.98 4.84s-.653 3.613-1.96 4.84C65.893 20.393 64.187 21 62.08 21zm0-2.5c1.28 0 2.293-.4 3.04-1.2.76-.8 1.14-1.787 1.14-2.96 0-1.227-.367-2.227-1.1-3-.733-.787-1.76-1.18-3.08-1.18h-2.42v8.34h2.42zM73.656 21h-2.54v-9.66h2.54v1.32c.36-.453.82-.827 1.38-1.12a3.63 3.63 0 011.7-.44v2.48a3.244 3.244 0 00-.7-.06c-.427 0-.88.107-1.36.32-.48.213-.82.473-1.02.78V21zm5.926-10.7c-.413 0-.773-.147-1.08-.44a1.512 1.512 0 01-.44-1.08c0-.413.147-.767.44-1.06.307-.293.667-.44 1.08-.44.427 0 .787.147 1.08.44.294.293.44.647.44 1.06 0 .413-.146.773-.44 1.08-.293.293-.653.44-1.08.44zm1.28 10.7h-2.54v-9.66h2.54V21zm7.76 0h-2.74l-3.88-9.66h2.72l2.52 6.72 2.52-6.72h2.74L88.621 21zm9.553.24c-1.493 0-2.727-.467-3.7-1.4-.973-.933-1.46-2.16-1.46-3.68 0-1.427.467-2.627 1.4-3.6.947-.973 2.147-1.46 3.6-1.46 1.44 0 2.607.493 3.5 1.48.893.973 1.34 2.253 1.34 3.84v.56h-7.18c.08.64.367 1.173.86 1.6.493.427 1.133.64 1.92.64a4.18 4.18 0 001.38-.26c.507-.173.907-.407 1.2-.7l1.12 1.64c-.973.893-2.3 1.34-3.98 1.34zm2.22-5.98c-.04-.547-.26-1.04-.66-1.48-.387-.44-.96-.66-1.72-.66-.72 0-1.28.22-1.68.66-.4.427-.633.92-.7 1.48h4.76z" fill="#4856B7"/><path d="M21.86 22c-.293 0-.517-.04-.67-.12-.146-.08-.27-.247-.37-.5l-.22-.57c-.26.22-.51.413-.75.58-.24.167-.49.31-.75.43a3.564 3.564 0 01-.82.25 4.7 4.7 0 01-.96.09 4.34 4.34 0 01-1.29-.18 2.8 2.8 0 01-.99-.55 2.433 2.433 0 01-.62-.89 3.266 3.266 0 01-.22-1.24 2.6 2.6 0 01.28-1.13c.187-.387.51-.737.97-1.05.46-.32 1.08-.587 1.86-.8.78-.213 1.764-.333 2.95-.36v-.44c0-.607-.127-1.043-.38-1.31-.246-.273-.6-.41-1.06-.41-.367 0-.666.04-.9.12a4.29 4.29 0 00-.63.27c-.18.1-.357.19-.53.27-.173.08-.38.12-.62.12a.984.984 0 01-.55-.15 1.222 1.222 0 01-.35-.39l-.56-.97a6.243 6.243 0 012.08-1.23 7.27 7.27 0 012.46-.41c.627 0 1.19.103 1.69.31.507.2.933.483 1.28.85.354.36.623.79.81 1.29.187.5.28 1.047.28 1.64V22h-1.42zm-3.56-1.89c.4 0 .75-.07 1.05-.21.3-.14.603-.367.91-.68v-1.44c-.62.027-1.13.08-1.53.16-.4.08-.716.18-.95.3-.233.12-.396.257-.49.41a.999.999 0 00-.13.5c0 .353.097.603.29.75.194.14.477.21.85.21zm10.381-8.48V22h-3.1V11.63h3.1zm.36-2.84c0 .247-.05.48-.15.7a1.91 1.91 0 01-.41.57 2.11 2.11 0 01-.61.39c-.226.093-.47.14-.73.14a1.8 1.8 0 01-.71-.14c-.22-.1-.416-.23-.59-.39a2.003 2.003 0 01-.4-.57 1.774 1.774 0 01-.14-.7c0-.253.047-.49.14-.71.1-.22.234-.413.4-.58a1.93 1.93 0 01.59-.39 1.8 1.8 0 01.71-.14c.26 0 .504.047.73.14a1.873 1.873 0 011.02.97c.1.22.15.457.15.71z" fill="#fff"/><defs><clipPath id="clip0"><path fill="#fff" transform="translate(.5)" d="M0 0h43v29H0z"/></clipPath></defs></svg>