<svg width="51" height="50" fill="none" xmlns="http://www.w3.org/2000/svg"><path d="M25.797 21.317c4.223 0 7.659-3.436 7.659-7.659S30.02 6 25.797 6s-7.658 3.435-7.658 7.658c0 4.223 3.435 7.659 7.658 7.659zm10.277 3.711l-.013-.004c-.997-.244-4.05-.67-4.05-.67a.679.679 0 00-.838.416l-4.596 12.61c-.265.728-1.294.728-1.56 0l-4.595-12.61a.679.679 0 00-.638-.447c-.066 0-3.205.44-4.25.7-2.857.71-4.658 3.519-4.658 6.446v10.493a2.847 2.847 0 002.847 2.847H37.87a2.847 2.847 0 002.847-2.847V31.434c0-2.915-1.872-5.5-4.642-6.406z" fill="#F28556"/><path d="M27.53 24.113a.976.976 0 00-.722-.3h-2.024c-.271 0-.54.1-.723.3a.939.939 0 00-.123 1.105l1.082 1.63-.507 4.273.997 2.652a.304.304 0 00.572 0l.997-2.653-.506-4.271 1.081-1.63a.939.939 0 00-.123-1.107z" fill="#F28556"/></svg>