<svg width="51" height="50" fill="none" xmlns="http://www.w3.org/2000/svg"><path fill-rule="evenodd" clip-rule="evenodd" d="M12.305 6a5.429 5.429 0 00-5.429 5.429V38.57A5.428 5.428 0 0012.305 44h27.142a5.429 5.429 0 005.429-5.429V11.43A5.429 5.429 0 0039.447 6H12.304zm24.428 10.857a2.714 2.714 0 00-5.428 0v16.286a2.714 2.714 0 005.428 0V16.857zm-8.143 5.429a2.715 2.715 0 00-5.428 0v10.857a2.714 2.714 0 005.428 0V22.286zm-8.143 8.143a2.714 2.714 0 00-5.428 0v2.714a2.714 2.714 0 005.428 0v-2.714z" fill="#988DD8"/></svg>