<svg width="51" height="50" fill="none" xmlns="http://www.w3.org/2000/svg"><path d="M32.94 26.113h-2.18a5.023 5.023 0 000-2.226h2.18a7.158 7.158 0 000 2.226zm-9.73 3.127l-1.67 1.67a9.552 9.552 0 00-1.574-1.575l1.668-1.668c.4.636.94 1.174 1.575 1.575zm-1.575-6.906l-1.668-1.668a9.548 9.548 0 001.574-1.575l1.669 1.668c-.636.4-1.174.94-1.575 1.575zm18.342-2.232a4.898 4.898 0 110 9.796 4.898 4.898 0 010-9.796zm-25.865 9.425a7.236 7.236 0 110 14.473 7.236 7.236 0 010-14.473zm0-23.527a7.236 7.236 0 110 14.473 7.236 7.236 0 010-14.473zm11.764 16.217a2.783 2.783 0 110 5.566 2.783 2.783 0 010-5.566z" fill="#988DD8"/></svg>