<svg width="148" height="147" fill="none" xmlns="http://www.w3.org/2000/svg"><path d="M70.847.948a6 6 0 016.306 0l7.444 4.599a6 6 0 004.25.794l8.602-1.599a6 6 0 015.881 2.278l5.28 6.977c.899 1.19 2.21 2 3.676 2.276l8.598 1.617a6 6 0 014.661 4.248l2.403 8.413a5.995 5.995 0 002.606 3.45l7.434 4.614a6.001 6.001 0 012.811 5.646L140 52.974a5.999 5.999 0 001.184 4.158l5.265 6.988a6 6 0 01.582 6.28l-3.892 7.836a6.005 6.005 0 00-.399 4.305l2.386 8.418a5.998 5.998 0 01-1.726 6.066l-6.46 5.9a6.001 6.001 0 00-1.927 3.871l-.816 8.711a6 6 0 01-3.801 5.033l-8.155 3.169a5.997 5.997 0 00-3.195 2.913l-3.908 7.828a6 6 0 01-5.362 3.32l-8.75.009a5.995 5.995 0 00-4.031 1.562l-6.472 5.888a6 6 0 01-6.2 1.158l-8.161-3.152a6.003 6.003 0 00-4.324 0l-8.161 3.152a6 6 0 01-6.2-1.158l-6.472-5.888a5.996 5.996 0 00-4.031-1.562l-8.75-.009a6 6 0 01-5.362-3.32l-3.908-7.828a5.997 5.997 0 00-3.195-2.913l-8.155-3.169a6 6 0 01-3.801-5.033l-.816-8.711a6.002 6.002 0 00-1.927-3.871l-6.46-5.9a6 6 0 01-1.726-6.067l2.386-8.417a6 6 0 00-.4-4.305L.97 70.4a6 6 0 01.582-6.28l5.265-6.988A6 6 0 008 52.974l-.8-8.714a6 6 0 012.811-5.646l7.434-4.613a6 6 0 002.606-3.45l2.403-8.413a6 6 0 014.66-4.25l8.6-1.616a6 6 0 003.675-2.276l5.28-6.977a6 6 0 015.881-2.278l8.602 1.6a6 6 0 004.25-.795L70.847.948z" fill="#F5DF68"/></svg>