<svg width="51" height="50" fill="none" xmlns="http://www.w3.org/2000/svg"><path fill-rule="evenodd" clip-rule="evenodd" d="M17.01 9.455a7.282 7.282 0 004.144-1.717 7.282 7.282 0 019.444 0 7.282 7.282 0 004.144 1.717 7.282 7.282 0 016.679 6.679 7.271 7.271 0 001.717 4.144 7.282 7.282 0 010 9.444 7.282 7.282 0 00-1.717 4.144 7.282 7.282 0 01-6.679 6.679 7.281 7.281 0 00-4.144 1.717 7.282 7.282 0 01-9.444 0 7.282 7.282 0 00-4.144-1.717 7.282 7.282 0 01-6.679-6.679 7.282 7.282 0 00-1.717-4.144 7.282 7.282 0 010-9.444 7.282 7.282 0 001.717-4.144 7.282 7.282 0 016.679-6.679zM34.68 21.93a2.375 2.375 0 00-3.358-3.358L23.5 26.39l-3.071-3.07a2.375 2.375 0 00-3.358 3.358l4.75 4.75a2.375 2.375 0 003.358 0l9.5-9.5z" fill="#F3A5A5"/></svg>