<svg width="50" height="50" fill="none" xmlns="http://www.w3.org/2000/svg"><path d="M22.5 7a2.5 2.5 0 000 5h5a2.5 2.5 0 000-5h-5z" fill="#988DD8"/><path fill-rule="evenodd" clip-rule="evenodd" d="M11 13.667A4.667 4.667 0 0115.667 9a7 7 0 007 7h4.666a7 7 0 007-7A4.667 4.667 0 0139 13.667v25.666A4.667 4.667 0 0134.333 44H15.667A4.667 4.667 0 0111 39.333V13.667zM18 23a2.333 2.333 0 100 4.667h.023a2.333 2.333 0 100-4.667H18zm7 0a2.333 2.333 0 100 4.667h7A2.333 2.333 0 0032 23h-7zm-7 9.333A2.333 2.333 0 0018 37h.023a2.333 2.333 0 100-4.667H18zm7 0A2.333 2.333 0 0025 37h7a2.333 2.333 0 100-4.667h-7z" fill="#988DD8"/></svg>