<svg width="51" height="51" fill="none" xmlns="http://www.w3.org/2000/svg"><path d="M37.67 9.321l1.08 6.83 6.209 3.166-3.132 6.192 3.15 6.192-6.263 3.166-1.08 6.83-6.881-1.08-4.9 4.883-4.92-4.954-6.828 1.133-1.097-6.882-6.174-3.15 3.149-6.191-3.131-6.14 6.21-3.201 1.079-6.776 6.846 1.132L25.905 5.5l4.9 4.9 6.865-1.079zm-16.188 7.342a2.654 2.654 0 100 5.308 2.654 2.654 0 000-5.308zm8.846 12.384a2.653 2.653 0 100 5.307 2.653 2.653 0 000-5.307zm-10.774 5.308l15.197-15.197-2.495-2.495L17.06 31.86l2.495 2.495z" fill="#D4EB7A"/></svg>