<svg width="51" height="50" fill="none" xmlns="http://www.w3.org/2000/svg"><path d="M39.292 26.276h-2.917a7.59 7.59 0 01.46 2.609V39.91c0 .381-.067.748-.188 1.089h4.823a3.271 3.271 0 003.268-3.268v-6.01a5.452 5.452 0 00-5.446-5.446zm-24.374 2.609c0-.916.162-1.795.46-2.609H12.46a5.452 5.452 0 00-5.446 5.446v6.01A3.271 3.271 0 0010.282 41h4.823a3.253 3.253 0 01-.188-1.09V28.886zM29.21 23.44h-6.669a5.452 5.452 0 00-5.445 5.445V39.91c0 .601.487 1.089 1.089 1.089h15.382a1.09 1.09 0 001.09-1.09V28.886a5.452 5.452 0 00-5.446-5.446zM25.876 9a6.556 6.556 0 00-6.549 6.55 6.554 6.554 0 006.55 6.548 6.554 6.554 0 006.549-6.549A6.556 6.556 0 0025.875 9zm-11.5 6.104a4.903 4.903 0 00-4.897 4.898c0 2.7 2.197 4.898 4.897 4.898a4.87 4.87 0 001.93-.397 4.928 4.928 0 002.392-2.2c.367-.687.576-1.47.576-2.301 0-2.7-2.197-4.898-4.898-4.898zm23 0a4.903 4.903 0 00-4.898 4.898c0 .831.209 1.614.576 2.3a4.928 4.928 0 002.392 2.2 4.87 4.87 0 001.93.398c2.7 0 4.898-2.197 4.898-4.898 0-2.7-2.197-4.898-4.898-4.898z" fill="#F3A5A5"/></svg>