<svg width="51" height="50" fill="none" xmlns="http://www.w3.org/2000/svg"><path d="M44.876 32.77v-2.417a.844.844 0 00-.684-.83 4.556 4.556 0 01-3.673-4.493 4.542 4.542 0 013.681-4.493.844.844 0 00.676-.83V17.23c0-1.123-.444-2.2-1.233-2.993A4.187 4.187 0 0040.666 13l-29.596.055c-2.316.007-4.19 1.897-4.194 4.229v1.888c0 .435.328.8.759.842 2.32.212 4.097 2.17 4.097 4.514 0 2.332-1.796 4.314-4.088 4.514a.844.844 0 00-.768.843v2.886c.003 2.334 1.882 4.226 4.202 4.229h29.596c2.32-.003 4.2-1.895 4.202-4.23zm-26.621-1.276a.843.843 0 01-.84-.846V19.345c0-.467.376-.846.84-.846h15.242c.464 0 .84.38.84.846v11.303a.843.843 0 01-.84.846H18.255z" fill="#F1C060"/><path d="M32.876 20v10h-14V20h14z" fill="#F1C060"/></svg>