<svg width="51" height="50" fill="none" xmlns="http://www.w3.org/2000/svg"><path d="M44.393 13.876a1.188 1.188 0 00-1.973-.481l-5.016 5.014-3.84-1.1-1.098-3.839 5.016-5.016A1.189 1.189 0 0037 6.481 10.689 10.689 0 0033.793 6c-6.112 0-11.084 4.972-11.084 11.083 0 1.294.217 2.543.646 3.724L8.27 35.893a4.712 4.712 0 00-1.393 3.357c0 1.267.494 2.459 1.393 3.357A4.713 4.713 0 0011.627 44a4.712 4.712 0 003.357-1.393L30.069 27.52c1.18.429 2.43.646 3.724.646 6.111 0 11.083-4.972 11.083-11.084a10.64 10.64 0 00-.483-3.207z" fill="#F1C060"/></svg>