<svg width="836" height="483" fill="none" xmlns="http://www.w3.org/2000/svg"><rect x="582.322" y="395.466" width="138.73" height="138.73" rx="20" transform="rotate(-30 582.322 395.466)" fill="#C5D1E3" fill-opacity=".5"/><rect x="362" y="168.076" width="72.152" height="72.152" rx="20" transform="rotate(-30 362 168.076)" fill="#fff"/><rect x="546" y="288.644" width="57.288" height="57.288" rx="20" transform="rotate(-30 546 288.644)" fill="#C5D1E3" fill-opacity=".5"/><rect x="41" y="448.076" width="72.152" height="72.152" rx="20" transform="rotate(-30 41 448.076)" fill="#C5D1E3" fill-opacity=".5"/><rect x="497.207" y="516.437" width="72.152" height="72.152" rx="20" transform="rotate(-30 497.207 516.437)" fill="#000" fill-opacity=".07"/><rect x="723" y="267.076" width="72.152" height="72.152" rx="20" transform="rotate(-30 723 267.076)" fill="#C5D1E3" fill-opacity=".5"/><rect x="454.952" y="385.143" width="72.152" height="72.152" rx="20" transform="rotate(-30 454.952 385.143)" fill="#fff"/><rect x="319" y="442.947" width="113.895" height="113.895" rx="20" transform="rotate(-30 319 442.947)" fill="#C5D1E3" fill-opacity=".5"/><rect x="145" y="321.644" width="57.288" height="57.288" rx="20" transform="rotate(-30 145 321.644)" fill="#C5D1E3" fill-opacity=".5"/><path opacity=".5" d="M198.236 383.414a14.785 14.785 0 0112.802-7.391h29.127a14.785 14.785 0 0112.802 7.391l14.563 25.225a14.78 14.78 0 010 14.782l-14.563 25.225a14.785 14.785 0 01-12.802 7.391h-29.127a14.785 14.785 0 01-12.802-7.391l-14.563-25.225a14.78 14.78 0 010-14.782l14.563-25.225z" fill="#F1C060"/><path opacity=".5" fill-rule="evenodd" clip-rule="evenodd" d="M482.567 302.487c12.961-7.484 17.402-24.057 9.919-37.018-7.483-12.962-24.057-17.403-37.018-9.919-12.961 7.483-17.402 24.056-9.919 37.018 7.483 12.961 24.057 17.402 37.018 9.919zm-8.672-15.02c4.666-2.694 6.265-8.661 3.571-13.327-2.694-4.666-8.66-6.264-13.326-3.57-4.666 2.693-6.265 8.66-3.571 13.326 2.694 4.666 8.66 6.265 13.326 3.571z" fill="#6DAE56"/><rect x="243.203" y="295.238" width="138.73" height="138.73" rx="20" transform="rotate(-29.195 243.203 295.238)" fill="#988DD8"/><mask id="a" maskUnits="userSpaceOnUse" x="250" y="234" width="175" height="176"><rect x="243.203" y="295.238" width="138.73" height="138.73" rx="20" transform="rotate(-29.195 243.203 295.238)" fill="#988DD8"/></mask><g mask="url(#a)"><path d="M302.162 412.157l22.221-85.091 4.878-1.626 13.549 5.961 4.336-16.801-22.763 97.557 21.137 3.794-11.381 11.381-11.924 2.71-20.053-17.885z" fill="#000" fill-opacity=".08"/></g><path d="M343.232 312.614l-3.51 13.556-13.629-3.652-5.017 18.268 4.998 1.339 3.51-13.555 13.629 3.652 5.016-18.269-4.997-1.339z" fill="#fff"/><path d="M353.375 316.552l-15.902-4.262 10.083-5.826 5.819 10.088z" fill="#fff"/><g clip-path="url(#clip0)"><path d="M386.553 176.547a2.717 2.717 0 01.994-3.708l28.208-16.286a2.714 2.714 0 013.707.994l2.715 4.701a2.716 2.716 0 01-.994 3.708l-28.207 16.286a2.717 2.717 0 01-3.708-.994l-2.715-4.701zm8.143 14.104a2.717 2.717 0 01.994-3.708l14.104-8.143a2.714 2.714 0 013.707.994l8.143 14.103a2.712 2.712 0 01-.993 3.708l-14.104 8.143a2.716 2.716 0 01-3.708-.994l-8.143-14.103zm24.5-17.28a2.714 2.714 0 00-.993 3.708l8.143 14.104a2.714 2.714 0 003.707.994l4.702-2.715a2.715 2.715 0 00.993-3.708l-8.143-14.103a2.712 2.712 0 00-3.708-.994l-4.701 2.714z" fill="#F1C060"/></g><g clip-path="url(#clip1)"><path fill-rule="evenodd" clip-rule="evenodd" d="M483.147 387.952a5.426 5.426 0 00-2.173 7.363l12.978 23.84a5.431 5.431 0 007.363 2.172l23.84-12.977a5.433 5.433 0 002.172-7.364l-12.977-23.839a5.427 5.427 0 00-7.364-2.173l-23.839 12.978zm26.646-2.144a2.715 2.715 0 00-4.768 2.595l7.787 14.304a2.715 2.715 0 004.768-2.595l-7.787-14.304zm-4.556 8.661a2.715 2.715 0 00-4.768 2.595l5.191 9.536a2.711 2.711 0 003.682 1.086 2.71 2.71 0 001.086-3.681l-5.191-9.536zm-3.259 11.045a2.715 2.715 0 10-4.768 2.596l1.298 2.384a2.716 2.716 0 003.682 1.086 2.713 2.713 0 001.086-3.682l-1.298-2.384z" fill="#988DD8"/></g><defs><clipPath id="clip0"><path fill="#fff" transform="rotate(-30 509.456 -617.492)" d="M0 0h50v50H0z"/></clipPath><clipPath id="clip1"><path fill="#fff" transform="rotate(-28.562 997.544 -729.606)" d="M0 0h50v50H0z"/></clipPath></defs></svg>