<svg width="827" height="335" fill="none" xmlns="http://www.w3.org/2000/svg"><rect x="493" y="280.311" width="160.622" height="160.622" rx="20" transform="rotate(-30 493 280.311)" fill="#C5D1E3" fill-opacity=".5"/><rect x="133" y="41.769" width="83.538" height="83.538" rx="20" transform="rotate(-30 133 41.769)" fill="#C5D1E3" fill-opacity=".5"/><rect x="369" y="51.164" width="66.329" height="66.329" rx="20" transform="rotate(-30 369 51.164)" fill="#C5D1E3" fill-opacity=".5"/><rect x="712" y="262.769" width="83.538" height="83.538" rx="20" transform="rotate(-30 712 262.769)" fill="#C5D1E3" fill-opacity=".5"/><rect x="309" y="263.769" width="83.538" height="83.538" rx="20" transform="rotate(-30 309 263.769)" fill="#C5D1E3" fill-opacity=".5"/><rect x="321" y="162.164" width="66.329" height="66.329" rx="20" transform="rotate(-30 321 162.164)" fill="#C5D1E3" fill-opacity=".5"/><rect y="255.769" width="83.538" height="83.538" rx="20" transform="rotate(-30 0 255.769)" fill="#DFE4EE"/><rect x="440" y="135.769" width="83.538" height="83.538" rx="20" transform="rotate(-30 440 135.769)" fill="#DFE4EE"/><rect opacity=".5" x="575" y="129.164" width="66.329" height="66.329" rx="33.164" transform="rotate(-30 575 129.164)" fill="#F5DCAC"/><path opacity=".5" fill-rule="evenodd" clip-rule="evenodd" d="M284.738 71.85c-9.244 5.337-12.411 17.157-7.074 26.401l15.185 26.303c5.338 9.244 17.158 12.411 26.402 7.074l26.303-15.186c9.244-5.337 12.411-17.157 7.074-26.402l-15.186-26.302c-5.337-9.244-17.157-12.411-26.402-7.074l-26.302 15.185zm21.804 12.916c-4.622 2.669-6.205 8.579-3.537 13.201l2.761 4.782c2.669 4.622 8.579 6.206 13.201 3.537l4.782-2.761c4.622-2.668 6.206-8.578 3.537-13.2l-2.761-4.783c-2.668-4.622-8.578-6.206-13.2-3.537l-4.783 2.761z" fill="#6DAE56"/><path opacity=".5" d="M503.478 228.145c4.161-.001 6.761 4.503 4.68 8.106l-14.048 24.324c-2.082 3.603-7.283 3.604-9.363.001l-14.041-24.319c-2.08-3.602.522-8.107 4.683-8.107l28.089-.005z" fill="#F5DCAC"/><rect x="118.069" y="208.215" width="127.984" height="127.984" rx="20" transform="rotate(-30 118.069 208.215)" fill="#C4C4C4"/><mask id="a" maskUnits="userSpaceOnUse" x="118" y="144" width="176" height="175"><rect x="118.178" y="207.992" width="127.984" height="127.984" rx="20" transform="rotate(-30 118.178 207.992)" fill="#C4C4C4"/></mask><g mask="url(#a)"><path d="M162.178 321.057l18.5-62.557 13-38.5 2 3.5 12-5.5h.5l14 15v2.5l-22 89-6.023 11.732-11.924 2.71-15.053-5.442-5-12.443z" fill="#000" fill-opacity=".08"/></g><path d="M217.425 227.098a12.47 12.47 0 00-.74-1.495 10.065 10.065 0 00-.94-1.379l1.725-4.227a.864.864 0 00-.355-1.042l-5.894-3.386a.867.867 0 00-1.103.187l-2.829 3.596a12.547 12.547 0 00-3.325-.002l-2.803-3.576a.862.862 0 00-1.102-.202l-5.91 3.412c-.369.213-.511.643-.36 1.047l1.695 4.215c-.696.892-1.234 1.878-1.661 2.881l-4.528.651a.849.849 0 00-.713.862v6.789c.001.428.293.791.724.828l4.524.62c.188.504.419 1.046.693 1.521.275.476.598.964.94 1.38l-1.725 4.226a.867.867 0 00.356 1.043l5.894 3.385c.38.231.826.116 1.103-.187l2.828-3.596c1.106.139 2.205.159 3.326.002l2.803 3.576c.289.323.732.415 1.101.202l5.91-3.412a.828.828 0 00.361-1.046l-1.695-4.216a12.206 12.206 0 001.661-2.881l4.528-.651a.85.85 0 00.713-.862l.015-6.797c-.01-.444-.308-.783-.724-.829l-4.493-.637zm-8.633 10.424c-3.047 1.759-6.975.714-8.728-2.323-1.753-3.036-.694-6.96 2.353-8.719 3.047-1.76 6.975-.715 8.728 2.322 1.753 3.036.694 6.96-2.353 8.72z" fill="#fff"/></svg>