<svg width="654" height="427" fill="none" xmlns="http://www.w3.org/2000/svg"><g clip-path="url(#clip0)"><path fill="#F8F8F8" d="M0 0h654v427H0z"/><rect x="162.234" y="346.374" width="127.984" height="127.984" rx="20" transform="rotate(-29.195 162.234 346.374)" fill="#F3A5A5"/><path d="M217 435.711l17.811-67.979L239 374.66l7 11.84 17.918-15.304 6.582 3.464-20 64.34-7.869 8.835-9.557 2.165L217 435.711z" fill="#000" fill-opacity=".08"/><rect x="214.578" y="126.512" width="127.984" height="127.984" rx="20" transform="rotate(-29.195 214.578 126.512)" fill="url(#paint0_linear)"/><rect x="214.578" y="126.512" width="127.984" height="127.984" rx="20" transform="rotate(-29.195 214.578 126.512)" fill="#A6BFE3"/><mask id="a" maskUnits="userSpaceOnUse" x="214" y="64" width="175" height="175"><rect x="214.578" y="126.512" width="127.984" height="127.984" rx="20" transform="rotate(-29.195 214.578 126.512)" fill="url(#paint1_linear)"/></mask><g mask="url(#a)"><path d="M258.5 224.5L279 146l4.5-2 11.5 10 17.5-4 7 8-21 70-10.5 10.5-11 2.5-18.5-16.5z" fill="#000" fill-opacity=".08"/></g><rect x="557.608" y="334.638" width="127.984" height="127.984" rx="20" transform="rotate(-29.195 557.608 334.638)" fill="#988DD8"/><path d="M612 442.5l20.5-78.5 4.5-1.5 12.5 5.5 4-15.5L674 372l-22 74-10.5 10.5-11 2.5-18.5-16.5z" fill="#000" fill-opacity=".08"/><path d="M649.889 350.668l-3.238 12.506-12.574-3.37-4.628 16.854 4.611 1.235 3.238-12.506 12.573 3.37 4.628-16.854-4.61-1.235z" fill="#fff"/><path d="M659.246 354.3l-14.67-3.931 9.302-5.374 5.368 9.305z" fill="#fff"/><rect x="532.112" y="74.557" width="127.984" height="127.984" rx="20" transform="rotate(-29.195 532.112 74.557)" fill="#E0F395"/><mask id="b" maskUnits="userSpaceOnUse" x="532" y="12" width="175" height="175"><rect x="532.112" y="74.557" width="127.984" height="127.984" rx="20" transform="rotate(-29.195 532.112 74.557)" fill="#D4EB7A"/></mask><g mask="url(#b)"><path d="M576.5 173l22-82 4.5-2 4.5 12 6 12.5 11-1.5 7.5-11 5.5 7-19.5 65-10.5 10.5-11 2.5-20-13z" fill="#000" fill-opacity=".08"/></g><rect x="-.455" y="391.242" width="127.984" height="127.984" rx="20" transform="rotate(-29.195 -.455 391.242)" fill="#F1C060"/><path d="M52 491.5L72.5 413l4.5-2 11.5 10 2.5-2 7 8-16.5 62L71 499.5 60 502l-8-10.5z" fill="#000" fill-opacity=".08"/><g clip-path="url(#clip1)"><path d="M88.864 399.708c-2.583 1.491-3.699 4.657-4.159 6.661-1.965-.604-5.26-1.223-7.841.267-4.45 2.57-5.718 7.549-3.085 12.11 2.901 5.025 8.635 6.045 14.182 7.031 2.62.467 5.329.948 7.71 1.842.4.149.84.114 1.202-.095l.072-.042c.363-.21.611-.574.682-.993.419-2.51 1.355-5.097 2.262-7.599 1.919-5.295 3.905-10.772 1.003-15.798-2.633-4.561-7.579-5.953-12.028-3.384z" fill="#fff"/></g><rect x="239.226" y="484.159" width="127.984" height="127.984" rx="20" transform="rotate(-29.195 239.226 484.159)" fill="#C4C4C4"/><rect x="419.379" y="417.621" width="127.984" height="127.984" rx="20" transform="rotate(-29.195 419.379 417.621)" fill="#76CB9E"/><rect opacity=".5" x="297.65" y="270.706" width="66.563" height="66.563" rx="20" transform="rotate(-29.195 297.65 270.706)" fill="#C5D1E3"/><rect opacity=".5" x="359" y="21.78" width="52.851" height="52.851" rx="20" transform="rotate(-29.195 359 21.78)" fill="#C5D1E3"/><rect opacity=".5" x="467.032" y="174.205" width="66.563" height="66.563" rx="20" transform="rotate(-29.195 467.032 174.205)" fill="#C5D1E3"/><rect opacity=".5" x="595.803" y="208.676" width="66.563" height="66.563" rx="20" transform="rotate(-29.195 595.803 208.676)" fill="#C5D1E3"/><rect x="342.173" y="350.385" width="66.563" height="66.563" rx="20" transform="rotate(-29.195 342.173 350.385)" fill="url(#paint2_linear)"/><rect x="342.173" y="350.385" width="66.563" height="66.563" rx="20" transform="rotate(-29.195 342.173 350.385)" fill="url(#paint3_linear)"/><rect x="342.173" y="350.385" width="66.563" height="66.563" rx="20" transform="rotate(-29.195 342.173 350.385)" fill="url(#paint4_linear)"/><rect x="342.173" y="350.385" width="66.563" height="66.563" rx="20" transform="rotate(-29.195 342.173 350.385)" fill="url(#paint5_linear)"/><rect x="342.173" y="350.385" width="66.563" height="66.563" rx="20" transform="rotate(-29.195 342.173 350.385)" fill="url(#paint6_radial)"/><rect x="342.173" y="350.385" width="66.563" height="66.563" rx="20" transform="rotate(-29.195 342.173 350.385)" fill="url(#paint7_linear)"/><rect x="342.173" y="350.385" width="66.563" height="66.563" rx="20" transform="rotate(-29.195 342.173 350.385)" fill="#fff"/><g clip-path="url(#clip2)" fill-rule="evenodd" clip-rule="evenodd"><path d="M372.34 358.506a3.527 3.527 0 011.29-4.815l9.156-5.286a3.527 3.527 0 014.814 1.29l10.573 18.312a3.527 3.527 0 01-1.29 4.814l-9.156 5.287a3.524 3.524 0 01-4.814-1.29l-10.573-18.312zm18.848 11.499a1.762 1.762 0 11-3.052 1.763 1.762 1.762 0 013.052-1.763z" fill="#1054B9"/><path d="M372.34 358.506a3.527 3.527 0 011.29-4.815l9.156-5.286a3.527 3.527 0 014.814 1.29l10.573 18.312a3.527 3.527 0 01-1.29 4.814l-9.156 5.287a3.524 3.524 0 01-4.814-1.29l-10.573-18.312zm18.848 11.499a1.762 1.762 0 11-3.052 1.763 1.762 1.762 0 013.052-1.763z" fill="#AEE3C4"/></g><rect opacity=".5" x="388.328" y="116.333" width="52.851" height="52.851" rx="20" transform="rotate(-29.195 388.328 116.333)" fill="#C5D1E3"/><rect x="512.32" y="255.469" width="66.563" height="66.563" rx="20" transform="rotate(-29.195 512.32 255.469)" fill="url(#paint8_linear)"/><rect x="512.32" y="255.469" width="66.563" height="66.563" rx="20" transform="rotate(-29.195 512.32 255.469)" fill="url(#paint9_linear)"/><rect x="512.32" y="255.469" width="66.563" height="66.563" rx="20" transform="rotate(-29.195 512.32 255.469)" fill="url(#paint10_linear)"/><rect x="512.32" y="255.469" width="66.563" height="66.563" rx="20" transform="rotate(-29.195 512.32 255.469)" fill="url(#paint11_linear)"/><rect x="512.32" y="255.469" width="66.563" height="66.563" rx="20" transform="rotate(-29.195 512.32 255.469)" fill="url(#paint12_radial)"/><rect x="512.32" y="255.469" width="66.563" height="66.563" rx="20" transform="rotate(-29.195 512.32 255.469)" fill="url(#paint13_linear)"/><rect x="512.32" y="255.469" width="66.563" height="66.563" rx="20" transform="rotate(-29.195 512.32 255.469)" fill="#fff"/><g clip-path="url(#clip3)"><path d="M565.702 255.169c1.484.397 2.367 1.926 1.901 3.292l-1.391 5.193-14.467-3.876 1.391-5.193c.398-1.484 1.927-2.367 3.293-1.901l3.338.894 1.491-5.564 2.597.696-1.491 5.564 3.338.895zm-2.882 10.757l-2.597-.696-1.391 5.193-3.895-1.043 1.391-5.193-2.596-.696-1.392 5.193-2.714-.628-1.391 5.193c-.398 1.484.485 3.013 1.901 3.293l3.338.894-1.988 7.419 2.597.696 1.988-7.419 3.338.895c1.484.397 3.012-.485 3.292-1.901l1.392-5.193-2.597-.696 1.324-5.311z" fill="#F1C060"/></g><rect x="379.449" y="224.999" width="66.563" height="66.563" rx="20" transform="rotate(-29.195 379.449 224.999)" fill="url(#paint14_linear)"/><rect x="379.449" y="224.999" width="66.563" height="66.563" rx="20" transform="rotate(-29.195 379.449 224.999)" fill="url(#paint15_linear)"/><rect x="379.449" y="224.999" width="66.563" height="66.563" rx="20" transform="rotate(-29.195 379.449 224.999)" fill="url(#paint16_radial)"/><rect x="379.449" y="224.999" width="66.563" height="66.563" rx="20" transform="rotate(-29.195 379.449 224.999)" fill="url(#paint17_linear)"/><rect x="379.449" y="224.999" width="66.563" height="66.563" rx="20" transform="rotate(-29.195 379.449 224.999)" fill="#fff"/><path d="M434.747 239.469c.062-.469.093-.953.093-1.469 0-.5-.031-1-.109-1.469l3.15-2.468a.773.773 0 00.186-.954l-2.979-5.187a.759.759 0 00-.916-.344l-3.708 1.5a10.944 10.944 0 00-2.513-1.469l-.559-3.968a.75.75 0 00-.745-.641h-5.958c-.372 0-.667.266-.729.641l-.559 3.968c-.915.375-1.753.891-2.513 1.469l-3.709-1.5a.738.738 0 00-.915.344l-2.964 5.187c-.186.329-.124.735.186.954l3.15 2.468a9.31 9.31 0 00-.139 1.469c0 .484.031 1 .108 1.469l-3.15 2.469a.767.767 0 00-.186.953l2.979 5.187c.187.344.574.453.916.344l3.708-1.5a10.93 10.93 0 002.514 1.469l.558 3.968c.078.375.373.641.745.641h5.958a.725.725 0 00.729-.641l.559-3.968a10.643 10.643 0 002.514-1.469l3.708 1.5c.341.125.729 0 .915-.344l2.979-5.187c.187-.344.109-.735-.186-.953l-3.118-2.469zm-11.079 4.156c-3.072 0-5.586-2.531-5.586-5.625s2.514-5.625 5.586-5.625c3.072 0 5.586 2.531 5.586 5.625s-2.514 5.625-5.586 5.625z" fill="#988DD8"/><rect opacity=".5" x="423.971" y="304.677" width="66.563" height="66.563" rx="20" transform="rotate(-29.195 423.971 304.677)" fill="#C5D1E3"/><rect opacity=".5" x="453.276" y="80.041" width="52.851" height="52.851" rx="20" transform="rotate(-29.195 453.276 80.041)" fill="#C5D1E3"/><g clip-path="url(#clip4)"><path d="M268.932 376.428l-20.568 11.875a3.164 3.164 0 01-4.326-1.159l-9.5-16.455a3.154 3.154 0 011.159-4.325l8.227-4.75 4.326 1.159 9.598-5.542a3.164 3.164 0 014.326 1.159l-23.31 13.459 7.916 13.712-3.399-12.664 23.407-13.514 3.603 13.46c.373 1.375-.198 2.857-1.459 3.585z" fill="#fff"/></g><g clip-path="url(#clip5)" fill="#fff"><path d="M311.886 133.791a3.668 3.668 0 00-3.616-.03l-20.323 11.734-2.992-3.057a1.833 1.833 0 00-2.267-.258l-3.175 1.833a1.835 1.835 0 00.442 3.359c.47.126.97.06 1.391-.183l1.969-1.137 13.787 13.76a1.839 1.839 0 002.266.258l14.29-8.25a1.841 1.841 0 00.909-1.689l-.806-13.422a3.662 3.662 0 00-1.875-2.918zm-8.728 34.676a2.75 2.75 0 10-2.75-4.763 2.75 2.75 0 002.75 4.763zm15.877-9.167a2.749 2.749 0 10-2.75-4.763 2.75 2.75 0 102.75 4.763z"/></g><g clip-path="url(#clip6)"><path d="M620.458 77.644l4.712 5.822 7.542-.392.416 7.505 6.309 4.104-4.161 6.364 2.687 6.992-7.042 2.715-1.953 7.236-7.298-1.984-5.793 4.762-4.757-5.863-7.499.39-.4-7.515-6.263-4.064 4.091-6.368-2.658-6.942 7.038-2.646 1.921-7.329 7.253 1.944 5.855-4.731zM609.247 93.3a2.874 2.874 0 102.875 4.978 2.874 2.874 0 00-2.875-4.978zm15.008 6.827a2.878 2.878 0 00-1.052 3.928 2.873 2.873 0 003.927 1.052 2.874 2.874 0 10-2.875-4.98zm-7.233 10.816l6.026-22.49-3.692-.99-6.026 22.491 3.692.989z" fill="#fff"/></g></g><defs><linearGradient id="paint0_linear" x1="340.439" y1="148.142" x2="226.909" y2="261.115" gradientUnits="userSpaceOnUse"><stop stop-color="#6192DD"/><stop offset="1" stop-color="#332397"/></linearGradient><linearGradient id="paint1_linear" x1="340.439" y1="148.142" x2="226.909" y2="261.115" gradientUnits="userSpaceOnUse"><stop stop-color="#6192DD"/><stop offset="1" stop-color="#332397"/></linearGradient><linearGradient id="paint2_linear" x1="407.632" y1="361.634" x2="348.586" y2="420.39" gradientUnits="userSpaceOnUse"><stop stop-color="#DDCD3C"/><stop offset="1" stop-color="#CE2EA1"/></linearGradient><linearGradient id="paint3_linear" x1="407.632" y1="361.634" x2="348.586" y2="420.39" gradientUnits="userSpaceOnUse"><stop stop-color="#4784E0"/><stop offset="1" stop-color="#355B95"/></linearGradient><linearGradient id="paint4_linear" x1="407.632" y1="361.634" x2="348.586" y2="420.39" gradientUnits="userSpaceOnUse"><stop stop-color="#6192DD"/><stop offset="1" stop-color="#332397"/></linearGradient><linearGradient id="paint5_linear" x1="407.632" y1="361.634" x2="348.586" y2="420.39" gradientUnits="userSpaceOnUse"><stop stop-color="#11E4A5"/><stop offset="1" stop-color="#104087"/></linearGradient><linearGradient id="paint7_linear" x1="407.632" y1="361.634" x2="348.586" y2="420.39" gradientUnits="userSpaceOnUse"><stop stop-color="#6192DD"/><stop offset="1" stop-color="#332397"/></linearGradient><linearGradient id="paint8_linear" x1="577.779" y1="266.718" x2="518.734" y2="325.474" gradientUnits="userSpaceOnUse"><stop stop-color="#DDCD3C"/><stop offset="1" stop-color="#CE2EA1"/></linearGradient><linearGradient id="paint9_linear" x1="577.779" y1="266.718" x2="518.734" y2="325.474" gradientUnits="userSpaceOnUse"><stop stop-color="#4784E0"/><stop offset="1" stop-color="#355B95"/></linearGradient><linearGradient id="paint10_linear" x1="577.779" y1="266.718" x2="518.734" y2="325.474" gradientUnits="userSpaceOnUse"><stop stop-color="#6192DD"/><stop offset="1" stop-color="#332397"/></linearGradient><linearGradient id="paint11_linear" x1="577.779" y1="266.718" x2="518.734" y2="325.474" gradientUnits="userSpaceOnUse"><stop stop-color="#11E4A5"/><stop offset="1" stop-color="#104087"/></linearGradient><linearGradient id="paint13_linear" x1="577.779" y1="266.718" x2="518.734" y2="325.474" gradientUnits="userSpaceOnUse"><stop stop-color="#6192DD"/><stop offset="1" stop-color="#332397"/></linearGradient><linearGradient id="paint14_linear" x1="444.908" y1="236.248" x2="385.862" y2="295.004" gradientUnits="userSpaceOnUse"><stop stop-color="#DDCD3C"/><stop offset="1" stop-color="#CE2EA1"/></linearGradient><linearGradient id="paint15_linear" x1="444.908" y1="236.248" x2="385.862" y2="295.004" gradientUnits="userSpaceOnUse"><stop stop-color="#4784E0"/><stop offset="1" stop-color="#355B95"/></linearGradient><linearGradient id="paint17_linear" x1="444.908" y1="236.248" x2="385.862" y2="295.004" gradientUnits="userSpaceOnUse"><stop stop-color="#6192DD"/><stop offset="1" stop-color="#332397"/></linearGradient><clipPath id="clip0"><path fill="#fff" d="M0 0h654v427H0z"/></clipPath><clipPath id="clip1"><path fill="#fff" transform="rotate(-30 792.405 84.324)" d="M0 0h37v38H0z"/></clipPath><clipPath id="clip2"><path fill="#fff" transform="rotate(-30 851.218 -503.917)" d="M0 0h28.194v28.194H0z"/></clipPath><clipPath id="clip3"><path fill="#fff" transform="rotate(-30 754.529 -868.72)" d="M0 0h32.586v32.586H0z"/></clipPath><clipPath id="clip4"><path fill="#fff" transform="rotate(-30 792.842 -241.649)" d="M0 0h38v38H0z"/></clipPath><clipPath id="clip5"><path fill="#fff" transform="rotate(-30 400.976 -436.559)" d="M0 0h44v44H0z"/></clipPath><clipPath id="clip6"><path fill="#fff" transform="rotate(-30 462.794 -1049.537)" d="M0 0h46v46H0z"/></clipPath><radialGradient id="paint6_radial" cx="0" cy="0" r="1" gradientUnits="userSpaceOnUse" gradientTransform="rotate(131.39 119.337 272.848) scale(67.5237 92.4623)"><stop stop-color="#11E4A5"/><stop offset="1" stop-color="#104087"/></radialGradient><radialGradient id="paint12_radial" cx="0" cy="0" r="1" gradientUnits="userSpaceOnUse" gradientTransform="rotate(131.39 225.844 263.812) scale(67.5237 92.4623)"><stop stop-color="#11E4A5"/><stop offset="1" stop-color="#104087"/></radialGradient><radialGradient id="paint16_radial" cx="0" cy="0" r="1" gradientUnits="userSpaceOnUse" gradientTransform="rotate(131.39 166.288 218.573) scale(67.5237 92.4623)"><stop stop-color="#11E4A5"/><stop offset="1" stop-color="#104087"/></radialGradient></defs></svg>