<svg width="936" height="509" fill="none" xmlns="http://www.w3.org/2000/svg"><rect x="293.82" y="336.033" width="148.78" height="148.78" rx="20" transform="rotate(-30 293.82 336.033)" fill="#F5DF68"/><mask id="a" maskUnits="userSpaceOnUse" x="293" y="261" width="205" height="205"><rect x="293.62" y="335.609" width="149.218" height="149.508" rx="20" transform="rotate(-30 293.62 335.609)" fill="#F5DF68"/></mask><g mask="url(#a)"><path d="M359 461.557L380.5 374l6-23 4.476-9 19.524 7.5-27.5 110 19.358 5.851-11.382 11.381-11.923 2.71L359 461.557z" fill="#000" fill-opacity=".08"/></g><g clip-path="url(#clip0)"><path d="M407.144 345.963c2.277.61 3.63 2.955 2.916 5.051l-2.134 7.966-22.192-5.946 2.134-7.967c.61-2.276 2.955-3.63 5.051-2.916l5.121 1.373 2.287-8.536 3.983 1.067-2.287 8.536 5.121 1.372zm-4.421 16.502l-3.983-1.067-2.135 7.966-5.975-1.601 2.135-7.966-3.983-1.068-2.135 7.967-4.164-.963-2.134 7.966c-.61 2.276.744 4.621 2.916 5.051l5.121 1.372-3.049 11.38 3.983 1.068 3.049-11.381 5.121 1.372c2.277.61 4.621-.744 5.051-2.916l2.135-7.966-3.984-1.067 2.031-8.147z" fill="#fff"/></g><rect x="521.732" y="408.082" width="148.78" height="148.78" rx="20" transform="rotate(-30 521.732 408.082)" fill="#C5D1E3" fill-opacity=".5"/><rect x="867" y="469.689" width="77.379" height="77.379" rx="20" transform="rotate(-30 867 469.689)" fill="#C5D1E3" fill-opacity=".5"/><rect x="88" y="423.719" width="61.438" height="61.438" rx="20" transform="rotate(-30 88 423.719)" fill="#C5D1E3" fill-opacity=".5"/><rect x="660.711" y="313.219" width="77.379" height="77.379" rx="20" transform="rotate(-30 660.711 313.219)" fill="#C5D1E3" fill-opacity=".5"/><rect x="393" y="496.512" width="111.023" height="111.023" rx="20" transform="rotate(-30 393 496.512)" fill="#C5D1E3" fill-opacity=".5"/><rect x="784" y="307.719" width="61.438" height="61.438" rx="20" transform="rotate(-30 784 307.719)" fill="#C5D1E3" fill-opacity=".5"/><rect x="474.831" y="313.973" width="77.379" height="77.379" rx="20" transform="rotate(-30 474.831 313.973)" fill="#C5D1E3" fill-opacity=".5"/><rect x="196.088" y="405.482" width="77.379" height="77.379" rx="20" transform="rotate(-30 196.088 405.482)" fill="#C5D1E3" fill-opacity=".5"/><rect x="232" y="261.719" width="61.438" height="61.438" rx="20" transform="rotate(-30 232 261.719)" fill="#C5D1E3" fill-opacity=".5"/><path opacity=".5" d="M386.905 213.432c-6.82 3.938-9.157 12.659-5.219 19.48l5.347 9.262c3.938 6.82 12.659 9.157 19.479 5.219l23.155-13.369 13.369 23.156c3.938 6.82 12.659 9.157 19.479 5.219l9.262-5.347c6.821-3.938 9.158-12.659 5.22-19.48l-25.846-44.766c-3.938-6.821-12.659-9.158-19.479-5.22l-44.767 25.846z" fill="#988DD8"/><path opacity=".5" d="M613.007 270.686a8.052 8.052 0 016.882-3.973l15.599-.102c2.828-.018 5.432 1.462 6.83 3.884l7.711 13.356c1.399 2.422 1.379 5.417-.051 7.857l-7.888 13.458a8.053 8.053 0 01-6.881 3.974l-15.599.101c-2.828.019-5.432-1.462-6.83-3.884l-7.711-13.356c-1.399-2.422-1.379-5.417.051-7.857l7.887-13.458z" fill="#F28556"/><circle opacity=".5" cx="783.846" cy="429.846" r="34.293" transform="rotate(-30 783.846 429.846)" fill="#F1C060"/><defs><clipPath id="clip0"><path fill="#fff" transform="rotate(-30 842.285 -495.778)" d="M0 0h49.987v49.987H0z"/></clipPath></defs></svg>