<svg width="949" height="524" fill="none" xmlns="http://www.w3.org/2000/svg"><rect width="156.276" height="156.284" rx="20" transform="rotate(-29.198 844.341 -485.253) skewX(-.005)" fill="#E0F395"/><mask id="a" maskUnits="userSpaceOnUse" x="351" y="281" width="199" height="199"><rect width="156.276" height="156.284" rx="20" transform="rotate(-29.198 844.341 -485.253) skewX(-.005)" fill="#D4EB7A"/></mask><g mask="url(#a)"><path d="M398.199 470.449l26.863-100.134 5.495-2.442 5.494 14.653 7.327 15.265 13.431-1.832 9.158-13.433 6.715 8.549-23.81 79.374-12.821 12.822-13.431 3.053-24.421-15.875z" fill="#000" fill-opacity=".08"/></g><g clip-path="url(#clip0)"><path d="M451.874 354.005l5.753 7.11 9.209-.479.508 9.166 7.703 5.011-5.08 7.771 3.28 8.538-8.598 3.316-2.384 8.836-8.911-2.422-7.075 5.814-5.808-7.159-9.156.476-.488-9.177-7.648-4.962 4.996-7.777-3.246-8.477 8.593-3.232 2.346-8.949 8.856 2.373 7.15-5.777zm-13.689 19.12a3.513 3.513 0 00.847 6.432 3.51 3.51 0 003.948-5.147 3.51 3.51 0 00-4.795-1.285zm18.325 8.338a3.51 3.51 0 103.51 6.081 3.51 3.51 0 00-3.51-6.081zm-8.833 13.207l7.359-27.464-4.508-1.208-7.358 27.464 4.507 1.208z" fill="#fff"/></g><rect opacity=".5" x="602.859" y="440.519" width="174.383" height="174.383" rx="20" transform="rotate(-27.865 602.859 440.519)" fill="#C5D1E3"/><rect opacity=".5" x="215.898" y="557.252" width="90.695" height="90.695" rx="20" transform="rotate(-27.865 215.898 557.252)" fill="#C5D1E3"/><rect opacity=".5" x="307.161" y="254.696" width="72.011" height="72.011" rx="20" transform="rotate(-27.865 307.161 254.696)" fill="#C5D1E3"/><rect opacity=".5" x="769.782" y="335.478" width="90.695" height="90.695" rx="20" transform="rotate(-27.865 769.782 335.478)" fill="#C5D1E3"/><rect opacity=".5" x="837" y="436.51" width="165.835" height="165.835" rx="20" transform="rotate(-27.865 837 436.51)" fill="#C5D1E3"/><rect opacity=".5" x="324.507" y="520.965" width="72.011" height="72.011" rx="20" transform="rotate(-27.865 324.507 520.965)" fill="#C5D1E3"/><rect opacity=".5" x="552.032" y="328.245" width="90.695" height="90.695" rx="20" transform="rotate(-27.865 552.032 328.245)" fill="#fff"/><rect opacity=".5" x="221.553" y="423.256" width="90.695" height="90.695" rx="20" transform="rotate(-27.865 221.553 423.256)" fill="#fff"/><rect opacity=".5" x="539" y="198.657" width="72.011" height="72.011" rx="20" transform="rotate(-27.865 539 198.657)" fill="#C5D1E3"/><rect opacity=".5" x="486" y="492.344" width="94.875" height="94.875" rx="20" transform="rotate(-27.865 486 492.344)" fill="#C5D1E3"/><path opacity=".5" fill-rule="evenodd" clip-rule="evenodd" d="M703.842 262.178c-8.197 4.334-11.329 14.492-6.995 22.689l12.331 23.324c4.334 8.197 14.492 11.329 22.689 6.995l23.324-12.331c8.197-4.334 11.329-14.492 6.995-22.689l-12.331-23.324c-4.334-8.197-14.492-11.329-22.689-6.995l-23.324 12.331zm18.51 11.918a8.394 8.394 0 00-3.498 11.345l2.242 4.24a8.394 8.394 0 0011.345 3.498l4.24-2.242a8.394 8.394 0 003.498-11.345l-2.242-4.24a8.394 8.394 0 00-11.345-3.498l-4.24 2.242z" fill="#F1C060"/><path opacity=".5" d="M128.08 404.934c.272-7.279 8.322-11.535 14.49-7.66l41.64 26.155c6.168 3.875 5.829 12.975-.611 16.379l-43.471 22.983c-6.44 3.405-14.151-1.439-13.88-8.718l1.832-49.139z" fill="#6DAE56"/><g clip-path="url(#clip1)"><path d="M597.445 358.201a2.46 2.46 0 01-.216-1.841 2.349 2.349 0 011.131-1.43l4.165-2.283a2.35 2.35 0 011.815-.184c.61.185 1.126.607 1.435 1.172l5.837 10.648c.309.565.387 1.227.215 1.84a2.347 2.347 0 01-1.131 1.431l-4.165 2.283a2.35 2.35 0 01-1.815.184 2.461 2.461 0 01-1.435-1.172l-5.836-10.648zm7.827-15.368a2.458 2.458 0 01-.216-1.84 2.35 2.35 0 011.131-1.431l4.166-2.283a2.348 2.348 0 011.814-.184c.61.186 1.126.607 1.435 1.172l10.506 19.167c.309.565.387 1.227.215 1.84a2.344 2.344 0 01-1.131 1.431l-4.165 2.283a2.345 2.345 0 01-1.815.183 2.456 2.456 0 01-1.435-1.171l-10.505-19.167zm8.994-13.238a2.453 2.453 0 01-.215-1.84 2.343 2.343 0 011.13-1.431l4.166-2.283a2.348 2.348 0 011.814-.184 2.46 2.46 0 011.436 1.172l14.007 25.556c.31.565.387 1.227.215 1.84a2.349 2.349 0 01-1.13 1.431l-4.166 2.283a2.343 2.343 0 01-1.814.183 2.455 2.455 0 01-1.436-1.171l-14.007-25.556z" fill="#F28556"/></g><g clip-path="url(#clip2)"><path d="M302.99 449.82l-2.054 1.128-14.456-26.325c-.326-.593-1.056-.818-1.631-.502l-7.811 4.289-1.475-2.686c-.326-.593-1.056-.818-1.631-.502l-7.225 3.967c-.576.316-.778 1.053-.452 1.646l1.475 2.687-.846.464c-.575.316-.777 1.053-.451 1.647l14.456 26.324-2.054 1.127a1.226 1.226 0 00-.507 1.611c.311.632 1.066.879 1.658.554l7.42-4.074a.604.604 0 00.226-.824l-3.393-6.178-.426.234a1.226 1.226 0 01-1.631-.435c-.367-.601-.17-1.372.422-1.697l9.213-5.06a1.227 1.227 0 011.631.435c.367.602.17 1.373-.422 1.698l-.455.25 3.392 6.178a.604.604 0 00.816.251l7.42-4.074c.592-.325.789-1.096.422-1.698a1.226 1.226 0 00-1.631-.435zm-19.521-.905l-1.171.643c-.575.316-1.306.091-1.632-.502-.325-.594-.123-1.331.452-1.647l1.171-.643c.576-.316 1.306-.091 1.632.502.326.594.124 1.331-.452 1.647zm-2.212-4.029l-1.172.643c-.575.316-1.305.091-1.631-.503-.326-.593-.124-1.33.451-1.646l1.172-.643c.575-.316 1.305-.091 1.631.502.326.594.124 1.331-.451 1.647zm-2.213-4.03l-1.171.644c-.576.316-1.306.091-1.632-.503-.326-.593-.124-1.33.451-1.646l1.172-.644c.575-.315 1.306-.09 1.631.503.326.593.124 1.331-.451 1.646zm-2.213-4.029l-1.171.644c-.575.315-1.306.09-1.632-.503-.325-.593-.123-1.331.452-1.646l1.171-.644c.575-.316 1.306-.091 1.632.503.326.593.124 1.33-.452 1.646zm12.822 8.692l-1.172.643c-.575.316-1.305.091-1.631-.502-.326-.593-.124-1.331.451-1.646l1.172-.644c.575-.316 1.305-.091 1.631.503.326.593.124 1.33-.451 1.646zm-2.213-4.029l-1.171.643c-.576.316-1.306.091-1.632-.502-.326-.594-.124-1.331.452-1.647l1.171-.643c.575-.316 1.306-.091 1.632.502.325.594.123 1.331-.452 1.647zm-2.212-4.029l-1.172.643c-.575.316-1.306.091-1.632-.502-.325-.594-.123-1.331.452-1.647l1.171-.643c.576-.316 1.306-.091 1.632.502.326.594.124 1.331-.451 1.647zm-2.213-4.03l-1.172.644c-.575.316-1.305.091-1.631-.503-.326-.593-.124-1.33.451-1.646l1.172-.643c.575-.316 1.305-.091 1.631.502.326.593.124 1.331-.451 1.646zm6.7 25.777l-3.098-5.641a.603.603 0 01.226-.823l3.124-1.716a.603.603 0 01.816.251l3.098 5.641a.604.604 0 01-.226.823l-3.124 1.716a.604.604 0 01-.816-.251z" fill="#F1C060"/></g><defs><clipPath id="clip0"><path fill="#fff" transform="rotate(-30.002 895.844 -581.362) skewX(-.005)" d="M0 0h56.169v56.172H0z"/></clipPath><clipPath id="clip1"><path fill="#fff" transform="rotate(-28.727 947.564 -961.997)" d="M0 0h50v50H0z"/></clipPath><clipPath id="clip2"><path fill="#fff" transform="rotate(-28.774 966.693 -269.32)" d="M0 0h50v50H0z"/></clipPath></defs></svg>