<svg width="674" height="330" fill="none" xmlns="http://www.w3.org/2000/svg"><rect x="454" y="255.311" width="160.622" height="160.622" rx="20" transform="rotate(-30 454 255.311)" fill="#C5D1E3" fill-opacity=".5"/><rect x="101" y="41.769" width="83.538" height="83.538" rx="20" transform="rotate(-30 101 41.769)" fill="#C5D1E3" fill-opacity=".5"/><rect x="454" y="120.164" width="66.329" height="66.329" rx="20" transform="rotate(-30 454 120.164)" fill="#C5D1E3" fill-opacity=".5"/><rect x="280" y="282.769" width="83.538" height="83.538" rx="20" transform="rotate(-30 280 282.769)" fill="#C5D1E3" fill-opacity=".5"/><rect y="272.769" width="83.538" height="83.538" rx="20" transform="rotate(-30 0 272.769)" fill="#C5D1E3" fill-opacity=".5"/><rect x="315" y="159.164" width="66.329" height="66.329" rx="20" transform="rotate(-30 315 159.164)" fill="#C5D1E3" fill-opacity=".5"/><rect x="71.087" y="174.636" width="127.984" height="127.984" rx="20" transform="rotate(-30 71.087 174.636)" fill="#F1C060"/><mask id="a" maskUnits="userSpaceOnUse" x="71" y="110" width="176" height="176"><rect x="71.094" y="174.432" width="128.864" height="128.158" rx="20" transform="rotate(-30 71.094 174.432)" fill="#F1C060"/></mask><g mask="url(#a)"><path d="M111.357 288.87l18.5-62.5 13-38.5 2 3.5 12-5.5h.5l14 15 3 6.5-25 85-6.023 11.732-11.923 2.71-15.054-5.442-5-12.5z" fill="#000" fill-opacity=".08"/></g><g clip-path="url(#clip0)"><path fill-rule="evenodd" clip-rule="evenodd" d="M141.983 192.683a4.377 4.377 0 011.602-5.976l11.366-6.563a4.377 4.377 0 015.977 1.602l13.125 22.733a4.377 4.377 0 01-1.602 5.976l-11.366 6.563a4.377 4.377 0 01-5.977-1.602l-13.125-22.733zm23.398 14.276a2.19 2.19 0 01-.8 2.989 2.19 2.19 0 01-3.207-2.461 2.189 2.189 0 014.007-.528z" fill="#fff"/></g><rect x="139" y="329.769" width="83.538" height="83.538" rx="20" transform="rotate(-30 139 329.769)" fill="#DFE4EE"/><rect x="218" y="86.769" width="83.538" height="83.538" rx="20" transform="rotate(-30 218 86.769)" fill="#DFE4EE"/><rect opacity=".5" x="348" y="44.164" width="66.329" height="66.329" rx="33.164" transform="rotate(-30 348 44.164)" fill="#F5DCAC"/><path opacity=".5" d="M81.478 131.145c4.161-.001 6.761 4.503 4.68 8.106L72.11 163.575c-2.082 3.603-7.283 3.604-9.363.001l-14.04-24.319c-2.081-3.602.52-8.107 4.682-8.107l28.089-.005z" fill="#F5DCAC"/><defs><clipPath id="clip0"><path fill="#fff" transform="rotate(-30 425.661 -154.168)" d="M0 0h35v35H0z"/></clipPath></defs></svg>