<svg width="778" height="524" fill="none" xmlns="http://www.w3.org/2000/svg"><rect width="151.522" height="151.53" rx="20" transform="rotate(-29.198 844.616 -202.531) skewX(-.005)" fill="#F3A5A5"/><rect x="570.587" y="462.668" width="187.403" height="187.403" rx="20" transform="rotate(-30 570.587 462.668)" fill="#C5D1E3" fill-opacity=".5"/><rect x="238.31" y="255.155" width="78.169" height="78.169" rx="20" transform="rotate(-30 238.31 255.155)" fill="#fff"/><rect x="127" y="446.033" width="62.066" height="62.066" rx="20" transform="rotate(-30 127 446.033)" fill="#C5D1E3" fill-opacity=".5"/><rect x="556.257" y="349.522" width="78.169" height="78.169" rx="20" transform="rotate(-30 556.257 349.522)" fill="#fff"/><rect x="439" y="457.084" width="78.169" height="78.169" rx="20" transform="rotate(-30 439 457.084)" fill="#C5D1E3" fill-opacity=".5"/><rect x="339.023" y="530.591" width="62.066" height="62.066" rx="20" transform="rotate(-30 339.023 530.591)" fill="#C5D1E3" fill-opacity=".5"/><rect x="414.94" y="340.309" width="78.169" height="78.169" rx="20" transform="rotate(-30 414.94 340.309)" fill="#C5D1E3" fill-opacity=".5"/><g clip-path="url(#clip0)"><path d="M620.557 345.221a1.189 1.189 0 00-1.947.576l-1.813 6.857-3.871.982-2.881-2.765 1.811-6.859a1.184 1.184 0 00-.293-1.126 1.186 1.186 0 00-1.115-.336c-1.036.234-2.05.636-3.015 1.197-5.282 3.075-7.077 9.873-4.002 15.155a10.86 10.86 0 002.432 2.893l-5.448 20.628a4.711 4.711 0 00.484 3.602 4.716 4.716 0 002.893 2.2 4.716 4.716 0 003.602-.485 4.712 4.712 0 002.2-2.893l5.448-20.627a10.862 10.862 0 003.543-1.316c5.282-3.074 7.078-9.872 4.003-15.154a10.63 10.63 0 00-2.031-2.529z" fill="#F1C060"/></g><rect x="514" y="262.033" width="62.066" height="62.066" rx="20" transform="rotate(-30 514 262.033)" fill="#C5D1E3" fill-opacity=".5"/><path opacity=".5" d="M78.638 328.777c-1.707-9.991 9.937-16.713 17.736-10.24l12.663 10.511a10.914 10.914 0 008.812 2.361l16.223-2.771c9.99-1.706 16.712 9.937 10.239 17.736L133.8 359.037a10.918 10.918 0 00-2.361 8.812l2.771 16.223c1.707 9.99-9.937 16.712-17.735 10.239L103.811 383.8a10.917 10.917 0 00-8.812-2.361l-16.222 2.771c-9.991 1.707-16.713-9.937-10.24-17.735l10.511-12.664a10.92 10.92 0 002.361-8.812l-2.77-16.222z" fill="#988DD8"/><path opacity=".5" d="M409.674 208.429c0-6.278 6.797-10.203 12.235-7.063l36.703 21.19c5.437 3.14 5.437 10.988 0 14.127l-36.703 21.191c-5.438 3.139-12.235-.785-12.235-7.064v-42.381z" fill="#D4EB7A"/><mask id="a" maskUnits="userSpaceOnUse" x="213" y="319" width="192" height="192"><rect width="150.965" height="150.972" rx="20" transform="rotate(-29.198 845.012 -203.205) skewX(-.005)" fill="#F3A5A5"/></mask><g mask="url(#a)"><path d="M267.725 496.759l25.382-84.936 4.651 7.692 7.771 13.147 19.893-16.993 7.308 3.846-22.205 71.439-5.264 14.654L278 523l-10.275-26.241z" fill="#000" fill-opacity=".08"/></g><g clip-path="url(#clip1)"><path d="M332.434 421.877l-24.35 14.06a3.747 3.747 0 01-5.121-1.373l-11.247-19.482a3.736 3.736 0 011.372-5.122l9.74-5.624 5.121 1.373 11.364-6.562a3.748 3.748 0 015.121 1.373l-27.597 15.934 9.372 16.236-4.024-14.994 27.711-16.001 4.265 15.937c.442 1.628-.233 3.382-1.727 4.245z" fill="#fff"/></g><g clip-path="url(#clip2)" fill="#F28556"><path d="M290.171 265.873c3.68-2.07 4.991-6.748 2.921-10.429s-6.748-4.991-10.429-2.922c-3.681 2.07-4.991 6.749-2.921 10.429 2.069 3.681 6.748 4.992 10.429 2.922zm10.776-1.802a.059.059 0 00-.013.002c-.989.277-3.86 1.401-3.86 1.401a.679.679 0 00-.525.774l2.175 13.244c.126.764-.771 1.269-1.359.765l-10.187-8.739a.68.68 0 00-.775-.078c-.057.033-2.578 1.955-3.362 2.694-2.141 2.019-2.335 5.35-.9 7.902l5.143 9.146a2.85 2.85 0 003.878 1.086l21.046-11.835a2.848 2.848 0 001.086-3.878l-5.161-9.176a6.737 6.737 0 00-7.186-3.308z"/><path d="M293.052 267.46a.98.98 0 00-.778.093l-1.763.992a.976.976 0 00-.483.616.938.938 0 00.434 1.024l1.742.891 1.653 3.972 2.169 1.823c.216.185.544 0 .498-.28l-.431-2.801-2.535-3.475.144-1.952a.94.94 0 00-.65-.903z"/></g><defs><clipPath id="clip0"><path fill="#fff" transform="rotate(-30.205 945.937 -889.564)" d="M0 0h50v50H0z"/></clipPath><clipPath id="clip1"><path fill="#fff" transform="rotate(-30.002 901.237 -324.145) skewX(-.005)" d="M0 0h44.989v44.991H0z"/></clipPath><clipPath id="clip2"><path fill="#fff" transform="rotate(-29.351 624.452 -362.82)" d="M0 0h50v50H0z"/></clipPath></defs></svg>