<svg width="805" height="327" fill="none" xmlns="http://www.w3.org/2000/svg"><rect opacity=".5" x="536.295" y="302.062" width="171.08" height="171.08" rx="20" transform="rotate(-30 536.295 302.062)" fill="#C5D1E3"/><rect opacity=".5" x="404" y="65.324" width="70.647" height="70.647" rx="20" transform="rotate(-30 404 65.324)" fill="#C5D1E3"/><rect x="146" y="168.461" width="171.851" height="171.851" rx="26.855" transform="rotate(-29.195 146 168.461)" fill="url(#paint0_linear)"/><rect x="146" y="168.461" width="171.851" height="171.851" rx="26.855" transform="rotate(-29.195 146 168.461)" fill="#A6BFE3"/><mask id="a" maskUnits="userSpaceOnUse" x="146" y="84" width="234" height="235"><rect x="146" y="168.461" width="171.851" height="171.851" rx="26.855" transform="rotate(-29.195 146 168.461)" fill="url(#paint1_linear)"/></mask><g mask="url(#a)"><path d="M204.977 300.034l27.527-105.406 6.042-2.685 15.442 13.427 23.498-5.371 9.399 10.742-28.198 93.993-14.099 14.099-14.77 3.357-24.841-22.156z" fill="#000" fill-opacity=".08"/></g><g clip-path="url(#clip0)" fill="#fff"><path d="M276.661 178.234a4.913 4.913 0 00-4.855-.039l-27.289 15.755-4.018-4.105a2.465 2.465 0 00-3.043-.346l-4.264 2.461a2.463 2.463 0 002.462 4.264l2.644-1.526 18.512 18.476a2.465 2.465 0 003.043.347l19.187-11.078a2.464 2.464 0 001.221-2.268l-1.082-18.022a4.93 4.93 0 00-2.518-3.919zm-11.72 46.562a3.692 3.692 0 001.352-5.044 3.692 3.692 0 10-6.396 3.692 3.693 3.693 0 005.044 1.352zm21.319-12.309a3.691 3.691 0 10-3.692-6.395 3.693 3.693 0 003.692 6.395z"/></g><rect opacity=".5" x="486" y="189.488" width="88.977" height="88.977" rx="20" transform="rotate(-30 486 189.488)" fill="#C5D1E3"/><rect opacity=".5" x="54" y="144.112" width="54.223" height="54.223" rx="20" transform="rotate(-30 54 144.112)" fill="#C5D1E3"/><rect opacity=".5" x="369.613" y="179.116" width="70.647" height="70.647" rx="20" transform="rotate(-30 369.613 179.116)" fill="#fff"/><rect opacity=".5" x="345.984" y="305.137" width="126.307" height="126.307" rx="20" transform="rotate(-30 345.984 305.137)" fill="#C5D1E3"/><rect x="683.456" y="99.791" width="88.977" height="88.977" rx="20" transform="rotate(-30 683.456 99.791)" fill="#fff" fill-opacity=".16"/><rect opacity=".5" x="171" y="35.324" width="70.647" height="70.647" rx="20" transform="rotate(-30 171 35.324)" fill="#C5D1E3"/><rect opacity=".5" x="79" y="244.958" width="70.647" height="70.647" rx="20" transform="rotate(-30 79 244.958)" fill="#FCFCFC"/><path opacity=".5" fill-rule="evenodd" clip-rule="evenodd" d="M14.11 285.949c-7.792 4.499-10.463 14.465-5.963 22.258l12.802 22.174c4.5 7.793 14.465 10.463 22.258 5.964l22.174-12.802c7.793-4.5 10.463-14.465 5.964-22.258l-12.802-22.174c-4.5-7.793-14.465-10.464-22.258-5.964l-22.174 12.802zm18.383 10.889a8.147 8.147 0 00-2.982 11.129l2.328 4.032a8.146 8.146 0 0011.128 2.982L47 312.653a8.147 8.147 0 002.982-11.129l-2.328-4.031a8.146 8.146 0 00-11.129-2.982l-4.031 2.327z" fill="#29278C"/><path opacity=".5" d="M627.299 109.749c0-7.147 7.737-11.613 13.926-8.04l41.778 24.121c6.189 3.573 6.189 12.506 0 16.08l-41.778 24.12c-6.189 3.574-13.926-.893-13.926-8.04v-48.241z" fill="#F1C060"/><g clip-path="url(#clip1)"><path d="M423.328 205.936a14.326 14.326 0 001.714-.849 11.705 11.705 0 001.583-1.078l4.844 1.973a.997.997 0 001.195-.409l3.887-6.755a.992.992 0 00-.213-1.263l-4.12-3.236c.16-1.267.184-2.526.005-3.809l4.102-3.214a.983.983 0 00.233-1.262l-3.906-6.766c-.244-.423-.737-.585-1.2-.412l-4.834 1.945c-1.022-.796-2.152-1.412-3.302-1.9l-.742-5.186a.972.972 0 00-.987-.816l-7.784.006c-.491.002-.908.337-.951.831l-.714 5.182c-.579.216-1.2.481-1.745.796-.545.315-1.106.685-1.582 1.078l-4.845-1.972a.991.991 0 00-1.195.408l-3.887 6.755c-.265.435-.134.946.213 1.263l4.12 3.236c-.16 1.267-.183 2.526-.005 3.809l-4.102 3.214c-.372.332-.477.84-.233 1.263l3.906 6.766a.95.95 0 001.2.412l4.834-1.946a13.988 13.988 0 003.302 1.9l.742 5.186a.972.972 0 00.988.816l7.793.012c.509-.012.898-.354.951-.831l.735-5.147zm-11.943-9.879c-2.014-3.489-.813-7.989 2.67-10 3.483-2.011 7.981-.801 9.995 2.687 2.015 3.489.813 7.989-2.67 10-3.483 2.011-7.981.802-9.995-2.687z" fill="#F3A5A5"/></g><g clip-path="url(#clip2)" fill="#988DD8"><path d="M115.986 243.812a2.498 2.498 0 00-.915 3.415 2.5 2.5 0 003.415.915l4.33-2.5a2.5 2.5 0 10-2.5-4.33l-4.33 2.5z"/><path fill-rule="evenodd" clip-rule="evenodd" d="M109.36 255.336a4.67 4.67 0 01-.467-3.542 4.67 4.67 0 012.175-2.833 7 7 0 009.562 2.562l4.041-2.333a7.003 7.003 0 002.563-9.562 4.667 4.667 0 016.374 1.708l12.834 22.228a4.67 4.67 0 01-1.708 6.374l-16.166 9.334a4.667 4.667 0 01-6.375-1.708l-12.833-22.228zm10.728 4.583a2.332 2.332 0 00.563 4.274c.598.16 1.235.076 1.771-.233l.02-.012a2.332 2.332 0 00-.563-4.274 2.33 2.33 0 00-1.77.233l-.021.012zm6.063-3.5a2.333 2.333 0 102.333 4.041l6.062-3.5a2.33 2.33 0 00.854-3.187 2.33 2.33 0 00-3.187-.854l-6.062 3.5zm-1.396 11.582a2.336 2.336 0 00-.854 3.188 2.33 2.33 0 003.187.854l.021-.012a2.33 2.33 0 00.854-3.187 2.334 2.334 0 00-3.188-.854l-.02.011zm6.062-3.5a2.336 2.336 0 00-.854 3.188 2.334 2.334 0 003.188.854l6.062-3.5a2.334 2.334 0 00-2.334-4.042l-6.062 3.5z"/></g><defs><clipPath id="clip0"><path fill="#fff" transform="rotate(-30 464.71 -321.69)" d="M0 0h59.081v59.081H0z"/></clipPath><clipPath id="clip1"><path fill="#fff" transform="rotate(-30 533.483 -625.054)" d="M0 0h50v50H0z"/></clipPath><clipPath id="clip2"><path fill="#fff" transform="rotate(-30 511.14 -49.04)" d="M0 0h50v50H0z"/></clipPath><linearGradient id="paint0_linear" x1="315.001" y1="197.504" x2="162.558" y2="349.199" gradientUnits="userSpaceOnUse"><stop stop-color="#6192DD"/><stop offset="1" stop-color="#332397"/></linearGradient><linearGradient id="paint1_linear" x1="315.001" y1="197.504" x2="162.558" y2="349.199" gradientUnits="userSpaceOnUse"><stop stop-color="#6192DD"/><stop offset="1" stop-color="#332397"/></linearGradient></defs></svg>