<svg width="1107" height="524" fill="none" xmlns="http://www.w3.org/2000/svg"><rect x="715.159" y="436.387" width="194.05" height="194.05" rx="20" transform="rotate(-30 715.159 436.387)" fill="#C5D1E3" fill-opacity=".5"/><rect x="378.637" y="242.007" width="80.133" height="80.133" rx="20" transform="rotate(-30 378.637 242.007)" fill="#fff"/><rect x="896.426" y="312.66" width="100.923" height="100.923" rx="20" transform="rotate(-30 896.426 312.66)" fill="#C5D1E3" fill-opacity=".5"/><rect x="408.964" y="537.382" width="80.133" height="80.133" rx="20" transform="rotate(-30 408.964 537.382)" fill="#C5D1E3" fill-opacity=".5"/><rect x="653.985" y="313.644" width="100.923" height="100.923" rx="20" transform="rotate(-30 653.985 313.644)" fill="#C5D1E3" fill-opacity=".5"/><rect x="584" y="511.462" width="100.923" height="100.923" rx="20" transform="rotate(-30 584 511.462)" fill="#C5D1E3" fill-opacity=".5"/><rect x="290.428" y="432.996" width="100.923" height="100.923" rx="20" transform="rotate(-30 290.428 432.996)" fill="#C5D1E3" fill-opacity=".5"/><rect x="577" y="209.421" width="60.841" height="60.841" rx="20" transform="rotate(-30 577 209.421)" fill="#C5D1E3" fill-opacity=".5"/><rect x="992" y="471.421" width="60.841" height="60.841" rx="20" transform="rotate(-30 992 471.421)" fill="#fff"/><path opacity=".5" d="M810.492 248.738a8.785 8.785 0 018.945-5.165l37.638 3.956a8.788 8.788 0 017.676 6.911l7.868 37.019a8.788 8.788 0 01-4.201 9.436l-32.775 18.922a8.786 8.786 0 01-10.273-1.08l-28.124-25.323a8.784 8.784 0 01-2.147-10.103l15.393-34.573z" fill="#F3A5A5"/><rect x="465.479" y="364.786" width="121.585" height="121.585" rx="20" transform="rotate(-29.195 465.479 364.786)" fill="#F1C060"/><mask id="a" maskUnits="userSpaceOnUse" x="472" y="312" width="152" height="152"><rect x="465.479" y="364.786" width="121.585" height="121.585" rx="20" transform="rotate(-29.195 465.479 364.786)" fill="#F1C060"/></mask><g mask="url(#a)"><path d="M515.311 460.031l19.475-74.575 4.275-1.9 10.925 9.5 2.375-1.9 6.65 7.6-15.675 58.9-9.975 9.975-10.45 2.375-7.6-9.975z" fill="#000" fill-opacity=".08"/></g><g clip-path="url(#clip0)"><path d="M550.332 372.829c-2.454 1.416-3.514 4.423-3.951 6.327-1.867-.573-4.996-1.162-7.449.254-4.228 2.441-5.432 7.172-2.931 11.504 2.756 4.774 8.203 5.743 13.473 6.68 2.488.444 5.063.901 7.325 1.75.379.141.797.108 1.142-.091l.068-.039a1.34 1.34 0 00.648-.943c.398-2.385 1.287-4.843 2.149-7.22 1.823-5.03 3.71-10.233.953-15.008-2.502-4.332-7.201-5.655-11.427-3.214z" fill="#fff"/></g><g clip-path="url(#clip1)"><path d="M459.764 264.014l-17.076-4.576 17.076 4.576zm-18.676-15.68a14.57 14.57 0 011.457 11.066 14.58 14.58 0 01-12.183 10.684 14.578 14.578 0 01-14.533-7.167 14.582 14.582 0 1125.259-14.583z" stroke="#988DD8" stroke-width="8" stroke-linecap="round" stroke-linejoin="round"/></g><g clip-path="url(#clip2)" fill="#F5DF68"><path d="M1017.7 492.651a18.974 18.974 0 01-1.9-14.418 18.998 18.998 0 018.85-11.537l9.5 16.455 16.46-9.5a19.013 19.013 0 01-6.96 25.954 19.001 19.001 0 01-14.42 1.898 19.006 19.006 0 01-11.53-8.852z"/><path d="M1028.8 463.876c3.44-.954 7.08-.969 10.53-.044 3.45.925 6.59 2.756 9.1 5.303l-12.45 7.185-7.18-12.444z"/></g><defs><clipPath id="clip0"><path fill="#fff" transform="rotate(-30 972.876 -792.74)" d="M0 0h35.15v36.1H0z"/></clipPath><clipPath id="clip1"><path fill="#fff" transform="rotate(-30 662.774 -622.41)" d="M0 0h50v50H0z"/></clipPath><clipPath id="clip2"><path fill="#fff" transform="rotate(-30 1384.496 -1629.025)" d="M0 0h50v50H0z"/></clipPath></defs></svg>