<svg width="962" height="524" fill="none" xmlns="http://www.w3.org/2000/svg"><rect x="179.585" y="398.619" width="160.622" height="160.622" rx="20" transform="rotate(-30 179.585 398.619)" fill="#76CB9E"/><mask id="a" maskUnits="userSpaceOnUse" x="180" y="318" width="220" height="220"><rect x="180" y="398.311" width="160.622" height="160.622" rx="20" transform="rotate(-30 180 398.311)" fill="#76CB9E"/></mask><g mask="url(#a)"><path d="M245 516.057l18.5-62.557 13-38.5 2 3.5 12-5.5-5 9 8 13 19 5-24.141 79.851-11.382 11.381-11.924 2.71L250 528.5l-5-12.443z" fill="#000" fill-opacity=".08"/></g><rect x="600" y="440.311" width="160.622" height="160.622" rx="20" transform="rotate(-30 600 440.311)" fill="#C5D1E3" fill-opacity=".5"/><rect x="241.288" y="236.917" width="83.538" height="83.538" rx="20" transform="rotate(-30 241.288 236.917)" fill="#C5D1E3" fill-opacity=".5"/><rect x="491" y="218.164" width="66.329" height="66.329" rx="20" transform="rotate(-30 491 218.164)" fill="#C5D1E3" fill-opacity=".5"/><rect x="604" y="308.769" width="83.538" height="83.538" rx="20" transform="rotate(-30 604 308.769)" fill="#C5D1E3" fill-opacity=".5"/><rect x="456" y="464.769" width="83.538" height="83.538" rx="20" transform="rotate(-30 456 464.769)" fill="#C5D1E3" fill-opacity=".5"/><rect x="348.919" y="531.273" width="66.329" height="66.329" rx="20" transform="rotate(-30 348.919 531.273)" fill="#C5D1E3" fill-opacity=".5"/><rect x="841" y="469.769" width="83.538" height="83.538" rx="20" transform="rotate(-30 841 469.769)" fill="#fff"/><rect x="407" y="329.769" width="83.538" height="83.538" rx="20" transform="rotate(-30 407 329.769)" fill="#fff"/><rect opacity=".5" x="774" y="363.164" width="66.329" height="66.329" rx="20" transform="rotate(-30 774 363.164)" fill="#F5DF68"/><g clip-path="url(#clip0)" fill="#fff"><path d="M287.296 454.813l25.134-14.512-3.628-6.283a10.168 10.168 0 00-13.876-3.718l-7.54 4.353a10.168 10.168 0 00-3.718 13.876l3.628 6.284zm-11.467-28.568a10.158 10.158 0 1017.595-10.158 10.158 10.158 0 00-17.595 10.158z"/></g><path opacity=".5" fill-rule="evenodd" clip-rule="evenodd" d="M380.738 219.849c-9.244 5.337-12.411 17.158-7.074 26.402l15.185 26.303c5.338 9.244 17.158 12.411 26.402 7.074l26.303-15.186c9.244-5.337 12.411-17.157 7.074-26.402l-15.186-26.302c-5.337-9.244-17.157-12.411-26.402-7.074l-26.302 15.185zm21.804 12.917c-4.622 2.669-6.205 8.579-3.537 13.201l2.761 4.782c2.669 4.622 8.579 6.206 13.201 3.537l4.782-2.761c4.622-2.668 6.206-8.578 3.537-13.2l-2.761-4.783c-2.668-4.622-8.578-6.205-13.2-3.537l-4.783 2.761z" fill="#F1C060"/><path opacity=".5" d="M790.3 281.604c-3.119-5.403-1.268-12.31 4.135-15.429l15.371-8.875c5.402-3.119 12.31-1.268 15.429 4.134l8.875 15.371c3.119 5.403 1.268 12.311-4.135 15.43l-15.371 8.874c-5.402 3.119-12.31 1.268-15.429-4.134l-8.875-15.371z" fill="#707070"/><path opacity=".5" d="M572.478 378.145c4.161-.001 6.761 4.503 4.68 8.106l-14.048 24.324c-2.082 3.603-7.283 3.604-9.363.001l-14.041-24.319c-2.08-3.602.522-8.107 4.683-8.107l28.089-.005z" fill="#F3A5A5"/><g clip-path="url(#clip1)"><path fill-rule="evenodd" clip-rule="evenodd" d="M446.424 333.446a2.375 2.375 0 00-.87 3.244l1.188 2.057-2.057 1.188a4.749 4.749 0 00-1.739 6.488l11.875 20.569a4.751 4.751 0 006.489 1.738l24.682-14.25a4.749 4.749 0 001.738-6.488l-11.875-20.569a4.749 4.749 0 00-6.488-1.738l-2.057 1.187-1.188-2.057a2.374 2.374 0 00-4.113 2.375l1.187 2.057-12.341 7.125-1.187-2.057a2.377 2.377 0 00-3.244-.869zm5.937 10.284a2.377 2.377 0 002.375 4.114l16.455-9.5a2.377 2.377 0 00-.573-4.351 2.374 2.374 0 00-1.802.237l-16.455 9.5z" fill="#F1C060"/></g><g clip-path="url(#clip2)"><path fill-rule="evenodd" clip-rule="evenodd" d="M907.651 501.605a18.995 18.995 0 008.852-11.537 18.997 18.997 0 00-27.852-21.372 19.002 19.002 0 00-6.955 25.955 19 19 0 0025.955 6.954zm-12.193-25.869a2.374 2.374 0 10-4.114 2.375l4.75 8.227c.315.546.834.943 1.442 1.106l9.176 2.461a2.367 2.367 0 001.803-.238 2.363 2.363 0 001.108-1.442 2.39 2.39 0 00-.238-1.804 2.386 2.386 0 00-1.443-1.107l-8.226-2.202-4.258-7.376z" fill="#F28556"/></g><defs><clipPath id="clip0"><path fill="#fff" transform="rotate(-30 915.458 -270.68)" d="M0 0h46.436v46.436H0z"/></clipPath><clipPath id="clip1"><path fill="#fff" transform="rotate(-30 841.985 -634.39)" d="M0 0h50v50H0z"/></clipPath><clipPath id="clip2"><path fill="#fff" transform="rotate(-30 1320.228 -1374.246)" d="M0 0h50v50H0z"/></clipPath></defs></svg>